<svg width="80" height="80" viewBox="0 0 80 80" fill="none" xmlns="http://www.w3.org/2000/svg">
<path d="M5 31.0254V66.2004C5 71.0754 9.15 75.0004 14.25 75.0004H65.75C70.85 75.0004 75 71.0754 75 66.2004V23.0254C75 19.5005 72.8 16.3255 69.375 14.9505L46.625 5.72545C43.825 4.60045 40.625 4.82545 38.05 6.37545L9.3 23.6004C6.625 25.2254 5 28.0254 5 31.0254Z" fill="#C0C7FF"/>
<path d="M23.5263 47.9508C21.8263 47.9508 20.5513 46.4008 20.9013 44.7258C23.2763 33.0508 26.8013 17.1758 39.2763 17.1758C50.8763 17.1758 55.5513 33.0758 57.7513 44.7508C58.0763 46.4008 56.8013 47.9258 55.1013 47.9258H23.5263V47.9508Z" fill="#1F3889"/>
<path d="M36.3494 42.0762C35.1494 42.0762 34.1744 43.0512 34.1744 44.2512V53.7762H34.3494L37.3244 61.0762C38.0494 62.8762 40.5994 62.9012 41.3494 61.1012L44.2494 54.2012C44.3744 53.9262 44.4244 53.6512 44.4244 53.3512V44.2512C44.4244 43.0512 43.4494 42.0762 42.2494 42.0762H36.3494Z" fill="white"/>
<path d="M60.8744 75.0006H19.1244L23.2494 60.8006C23.7994 58.6506 39.9994 53.3506 39.9994 53.3506C39.9994 53.3506 56.2244 58.6256 56.7494 60.8006L60.8744 75.0006Z" fill="#2E46FF"/>
<path d="M50.0243 35.1004C50.0243 43.2504 42.1243 48.6754 39.2993 48.6754C35.0493 48.6754 28.5743 43.2504 28.5743 35.1004C28.5743 26.9504 32.0243 17.9004 39.2993 17.9004C46.5743 17.9004 50.0243 26.9754 50.0243 35.1004Z" fill="white"/>
<path d="M44.4 39.2262C43.95 39.2512 43.55 39.5262 43.325 39.9262C42.525 41.4012 41.2 42.4512 39.575 42.5512C37.975 42.6512 36.5 41.8262 35.5 40.4762C35.225 40.1012 34.8 39.9012 34.35 39.9262L33.75 39.9762C34.875 42.3762 37.15 43.9762 39.65 43.8012C42.15 43.6262 44.175 41.7512 44.95 39.2012L44.4 39.2262Z" fill="#2E46FF"/>
<path d="M39.097 17.1758C27.122 17.1758 26.347 32.2758 26.347 32.2758C26.347 32.2758 29.272 32.2758 32.022 29.3258C33.347 27.9008 34.122 26.2508 34.597 24.9258C35.672 25.9758 37.172 27.0008 39.297 27.7258C46.122 30.0758 52.972 31.5758 52.972 31.5758C52.972 31.5758 50.797 17.1758 39.097 17.1758Z" fill="#1F3889"/>
<path d="M45.9228 56.0766C45.9228 55.5016 45.5728 53.0766 45.5728 52.2266C45.5728 51.3266 45.0978 50.7016 44.2478 50.9266L39.8728 52.1016C39.7978 52.1516 39.4478 52.2016 39.3228 52.2766H39.2728C39.1478 52.2016 38.7978 52.1516 38.7228 52.1016L34.3728 50.9016C33.5228 50.6766 33.0228 51.3016 33.0228 52.2016C33.0228 53.0516 32.6478 55.4516 32.6478 56.0516C32.6478 56.3266 32.6978 57.0766 32.7478 57.9016C34.5228 60.5766 36.8478 56.6266 38.9478 54.9516C39.0728 54.8516 39.2228 54.7016 39.2978 54.5516C39.3728 54.7016 39.5228 54.8266 39.6478 54.9516C41.7478 56.6516 44.0478 60.6016 45.8478 57.9266C45.8728 57.1016 45.9228 56.3516 45.9228 56.0766Z" fill="#3DB6FF"/>
<path d="M29.4243 52.2008C28.1243 52.2008 27.5493 49.7758 27.5493 47.5008C27.5493 45.2258 28.1493 42.8008 29.4243 42.8008C30.7243 42.8008 31.2993 45.2258 31.2993 47.5008C31.2993 49.7508 30.7243 52.2008 29.4243 52.2008ZM29.4243 43.7508C29.1743 43.7508 28.4993 45.0508 28.4993 47.5008C28.4993 49.9508 29.1993 51.2508 29.4243 51.2508C29.6743 51.2508 30.3493 49.9508 30.3493 47.5008C30.3743 45.0258 29.6743 43.7508 29.4243 43.7508Z" fill="#FBF089"/>
<path d="M49.1478 52.2008C47.8478 52.2008 47.2728 49.7758 47.2728 47.5008C47.2728 45.2258 47.8728 42.8008 49.1478 42.8008C50.4478 42.8008 51.0228 45.2258 51.0228 47.5008C51.0228 49.7508 50.4478 52.2008 49.1478 52.2008ZM49.1478 43.7508C48.8978 43.7508 48.2228 45.0508 48.2228 47.5008C48.2228 49.9508 48.9228 51.2508 49.1478 51.2508C49.3978 51.2508 50.0728 49.9508 50.0728 47.5008C50.0728 45.0258 49.3978 43.7508 49.1478 43.7508Z" fill="#FBF089"/>
<circle cx="73.6982" cy="71.8515" r="1.87692" fill="#3ECFAF"/>
<ellipse cx="65.4528" cy="22.9597" rx="1.25129" ry="1.25128" transform="rotate(-180 65.4528 22.9597)" fill="white"/>
<ellipse cx="3.5641" cy="21.5641" rx="1.5641" ry="1.5641" fill="#3948FF"/>
<path fill-rule="evenodd" clip-rule="evenodd" d="M34.9269 3.29031C35.2828 3.16719 35.6711 3.35587 35.7942 3.71173L37.482 8.58997C37.6051 8.94583 37.4164 9.33412 37.0606 9.45724C36.7047 9.58036 36.3164 9.39169 36.1933 9.03583L34.5055 4.15758C34.3824 3.80172 34.5711 3.41343 34.9269 3.29031Z" fill="#3948FF"/>
<ellipse cx="64.8961" cy="40.7301" rx="1.5641" ry="1.5641" fill="#FFAC00"/>
<path fill-rule="evenodd" clip-rule="evenodd" d="M6.72857 46.4753C6.98385 46.7522 6.96639 47.1835 6.68957 47.4388L3.09276 50.7557C2.81594 51.011 2.38459 50.9936 2.12931 50.7167C1.87403 50.4399 1.89149 50.0086 2.16831 49.7533L5.76512 46.4363C6.04194 46.1811 6.47329 46.1985 6.72857 46.4753Z" fill="#3ECFAF"/>
<ellipse cx="58.0012" cy="3.23109" rx="1.5641" ry="1.5641" fill="#3ECFAF"/>
<path fill-rule="evenodd" clip-rule="evenodd" d="M72.6616 55.1771C72.7854 54.8215 73.174 54.6335 73.5297 54.7573L78.1506 56.3654C78.5063 56.4892 78.6942 56.8778 78.5705 57.2335C78.4467 57.5891 78.0581 57.7771 77.7024 57.6533L73.0815 56.0452C72.7258 55.9214 72.5379 55.5328 72.6616 55.1771Z" fill="#3948FF"/>
<path d="M11.7333 1H26.0889C28.7333 1 31 3.28511 31 5.95107V16.0436C31 18.7096 28.7333 20.9947 26.0889 20.9947H22.6889C21.9333 20.9947 21.5555 21.7564 21.7444 22.3277L22.1222 23.6607C22.5 24.6128 21.3666 25.3745 20.4222 24.8032L16.2666 21.3756C16.0777 21.1851 15.8888 21.1851 15.6999 21.1851H11.9221C9.27769 21.1851 7.01102 18.9 7.01102 16.2341V5.95107C6.82213 3.28511 9.0888 1 11.7333 1Z" fill="#00D0AF"/>
<path d="M19.3076 5.39162V9.30782C19.3076 9.50363 19.111 9.50363 19.111 9.50363H18.5212C18.3247 9.50363 18.3247 9.30782 18.3247 9.30782V6.56648C18.3247 6.37067 18.1281 6.17486 17.9315 6.37067L14.1966 7.93715C14 7.93715 14 8.13296 14 8.13296V14.5947C14 14.7905 14.1966 14.7905 14.1966 14.7905H17.9315C18.1281 14.7905 18.1281 14.5947 18.1281 14.5947V12.0492C18.1281 11.8533 18.3247 11.8533 18.3247 11.8533H18.9144C19.111 11.8533 19.111 12.0492 19.111 12.0492V14.5947C19.111 14.7905 19.3076 14.7905 19.3076 14.7905H23.0425C23.2391 14.7905 23.2391 14.5947 23.2391 14.5947V6.76229C23.6322 6.76229 23.4357 6.56648 23.4357 6.56648L19.7007 5C19.5041 5 19.3076 5.19581 19.3076 5.39162Z" fill="white"/>
</svg>
