<svg width="216" height="233" viewBox="0 0 216 233" fill="none" xmlns="http://www.w3.org/2000/svg">
<path d="M0 84.0365V179.597C0 192.841 11.2744 203.504 25.1296 203.504H165.041C178.896 203.504 190.17 192.841 190.17 179.597V62.3028C190.17 52.7263 184.193 44.1008 174.889 40.3653L113.083 15.3036C105.477 12.2473 96.783 12.8585 89.7875 17.0694L11.6819 63.8649C4.41466 68.2795 0 75.8863 0 84.0365Z" fill="#2E46FF"/>
<path d="M53.9209 56.7171C53.326 60.3392 53.1411 64.0407 54.1009 67.4048C51.5514 58.4885 51.4514 48.8973 53.8059 39.9314C54.0909 38.8448 54.7057 33.8036 57.4102 34.2551C62.1692 35.049 56.5404 45.2207 55.6205 48.9817C55.0257 51.413 54.3608 54.0427 53.9209 56.7171Z" fill="#002921"/>
<path d="M107.18 143.479C107.18 143.479 97.1423 145.36 92.7832 146.863C88.4242 148.366 79.711 156.454 68.3484 154.574C56.9808 152.693 51.302 143.856 49.6874 142.73C48.0727 141.604 46.1831 142.293 45.6132 139.128C45.0433 135.962 29.9365 92.978 29.9365 92.978C29.9365 92.978 51.507 92.1494 53.7715 94.0299C56.031 95.9104 97.1023 124.078 98.362 126.167C99.6218 128.256 108.505 135.768 107.18 143.479Z" fill="#FFAE00"/>
<path d="M63.5495 32.6177C63.5395 34.1608 63.4895 36.6169 63.2795 38.1848C63.0646 39.7775 62.4697 41.5092 62.5747 43.1069C62.5997 43.484 64.7192 41.539 64.7892 41.4397C65.4641 40.5417 65.964 39.4947 65.954 38.3535C65.934 36.5673 64.9392 33.6597 63.5495 32.6177Z" fill="#19306B"/>
<path d="M81.5201 95.5777C81.7301 95.8556 81.95 96.1533 81.99 96.5006C82.03 96.8628 81.8651 97.2101 81.7101 97.5376C80.5003 100.028 79.2906 102.524 78.0759 105.015C77.9009 105.372 77.7059 105.754 77.356 105.948C76.6762 106.32 75.8613 105.809 75.2814 105.298C67.2431 98.2372 64.0988 87.3213 61.3344 77.0255C60.7895 75.0011 57.8251 68.3474 59.3948 66.7397C61.4894 68.3821 63.159 71.4535 64.7987 73.6069C66.6883 76.0878 68.5779 78.5736 70.4675 81.0545C74.1517 85.8923 77.8859 90.7002 81.5201 95.5777Z" fill="#3CB3EF"/>
<path d="M130.54 95.7068C128.305 93.3946 98.2168 99.6415 90.3635 102.901C82.5101 106.161 75.0667 112.011 72.9721 120.198C71.7574 124.947 72.5222 130.166 75.0467 134.379C76.1815 136.264 77.7211 138.001 79.7557 138.864C82.2052 139.897 85.0746 139.519 87.4941 138.413C89.9136 137.306 91.9531 135.545 93.9077 133.759C97.7269 130.271 101.361 126.584 104.8 122.729C107.225 120.005 110.049 116.953 113.709 116.958C117.078 116.963 119.927 119.742 121.082 122.883C122.237 126.023 122.062 129.472 121.872 132.811C121.212 144.362 120.552 155.913 119.897 167.459L113.459 180.707C113.459 180.707 117.783 185.853 118.922 184.969C120.057 184.091 125.361 177.695 125.361 177.695L127.951 179.576C127.951 179.581 132.824 98.0686 130.54 95.7068Z" fill="#E2FFF5"/>
<path d="M104.806 122.724C101.366 126.584 97.7321 130.266 93.9129 133.754C91.9583 135.545 89.9137 137.306 87.4992 138.408C85.0847 139.514 82.2104 139.892 79.7609 138.86C77.9463 138.09 76.5266 136.627 75.4368 134.979C75.9967 134.349 76.6815 133.789 77.3464 133.277C81.6305 129.978 85.9196 126.678 90.2037 123.379C94.0478 120.421 97.982 117.41 102.586 115.857C106.04 114.691 110.094 114.408 113.534 115.777C114.778 116.273 115.408 116.646 115.398 117.196C114.853 117.043 114.294 116.958 113.714 116.953C110.049 116.953 107.23 120 104.806 122.724Z" fill="#7FFFDE"/>
<path d="M125.491 146.372C126.92 151.8 127.995 157.322 128.71 162.889C128.755 163.257 128.79 163.624 128.835 163.991C128.335 173.21 127.955 179.576 127.955 179.576L125.366 177.695C125.366 177.695 120.062 184.086 118.927 184.969C117.792 185.848 113.463 180.707 113.463 180.707L119.902 167.459C120.532 156.385 121.167 145.31 121.796 134.235C122.281 135.6 122.731 136.984 123.156 138.348C123.986 141.008 124.781 143.677 125.491 146.372Z" fill="#7FFFDE"/>
<path d="M91.3085 116.06C88.4641 123.022 87.5593 130.593 85.9796 137.942C85.9047 138.284 85.8147 138.651 85.5447 138.874C85.2598 139.113 84.8549 139.123 84.485 139.123C76.8566 139.123 71.1578 140.348 63.5444 139.832C62.1747 139.738 58.8304 138.145 57.6106 137.525C56.3909 136.905 55.3811 135.654 55.4861 134.3C55.5561 133.387 56.086 132.384 55.5661 131.63C55.2511 131.174 54.6613 131.005 54.1864 130.717C53.3565 130.211 52.8616 129.313 52.4217 128.445C50.5171 124.733 48.8225 120.918 47.3428 117.018C46.8079 115.614 46.298 114.185 45.5282 112.895C44.8134 111.704 43.8935 110.647 43.0087 109.575C31.3712 95.4389 25.8624 77.0604 24.7276 58.8407C24.6476 57.5606 24.6276 56.1515 25.4374 55.1492C26.2423 54.1568 27.627 53.874 28.8917 53.6557C31.5362 53.2042 34.1806 52.7477 36.825 52.2961C37.5199 54.7522 39.4845 56.6973 41.729 57.9377C43.9735 59.1831 46.498 59.8182 48.9875 60.4384C51.112 60.9694 54.7412 61.7285 56.2959 63.2567C58.4905 65.4102 60.8849 70.2181 62.9195 73.6368C64.6042 76.4551 69.3532 81.0249 69.3532 81.0249C69.3532 81.0249 70.4179 86.2844 70.7129 88.021C71.1778 90.7599 78.9811 106.98 78.8761 107.298C78.3063 108.99 99.9067 96.724 101.716 98.5946C103.336 100.257 95.2427 106.434 91.3085 116.06Z" fill="#3DB6FF"/>
<path d="M74.6619 107.347L75.3418 106.911C71.5126 101.006 67.7834 94.9527 64.2542 88.9191C63.2094 87.1329 62.0246 85.1085 61.6347 82.8955C61.5497 82.3944 61.4997 81.8883 61.4548 81.3822C61.3848 80.6677 61.3198 79.9284 61.1348 79.2039C60.42 76.336 58.0855 74.1826 56.2059 72.446L44.5683 61.7136L44.0185 62.3041L55.656 73.0364C57.4556 74.6986 59.6901 76.7627 60.35 79.3974C60.515 80.0623 60.5799 80.7371 60.6499 81.4566C60.6999 81.9825 60.7499 82.5135 60.8399 83.0344C61.2548 85.3913 62.5295 87.5695 63.5593 89.326C67.0886 95.3695 70.8278 101.433 74.6619 107.347Z" fill="#002921"/>
<path d="M65.5041 103.794C65.949 101.011 67.1388 98.4059 68.3135 95.8407C69.4883 93.2854 71.3829 89.1571 72.7876 86.1056C73.6724 84.1755 73.6874 81.9725 72.8526 80.0175C72.4576 79.0897 71.8028 78.008 71.8528 76.8966C71.9078 75.7355 72.2277 72.3565 72.0927 71.8058C71.8778 70.9176 71.6578 70.0294 71.4429 69.1413C71.3629 68.8088 71.2779 68.4615 71.3679 68.1092C71.4579 67.7569 71.7678 67.4046 72.1527 67.365C72.5776 67.3203 72.8726 67.6478 73.1025 67.9455C73.3375 68.2531 73.6874 68.5856 73.9973 68.9974C74.7172 69.95 75.8219 70.7241 75.8219 70.7241C75.8219 70.7241 77.3666 70.9374 78.3764 70.863C78.6863 70.8382 79.0013 70.8382 79.3212 70.8481C79.5261 70.8581 79.7311 70.8729 79.9311 70.8977C80.8209 71.0069 82.3705 71.2649 82.3705 71.2649C82.3705 71.2649 83.5853 70.6943 84.2651 69.5035C84.5351 69.0321 85.03 68.789 85.3049 68.4913C85.5599 68.2134 85.8848 67.9157 86.3047 67.9951C86.6846 68.0695 86.9646 68.4516 87.0196 68.8088C87.0745 69.1661 86.9646 69.5035 86.8546 69.831C86.5597 70.6943 86.2597 71.5626 85.9648 72.426C85.7798 72.9619 85.5899 73.5077 85.2399 73.9493C85.2249 73.9691 86.2747 76.2565 86.2147 77.5416C86.1197 79.6206 84.695 81.4068 83.0454 82.4935C81.9956 83.1831 81.3008 84.2946 81.0008 85.5152C80.7409 86.5869 80.4509 87.6388 80.331 88.6213C79.9611 91.6083 81.8856 94.7193 82.1606 97.7162C82.4005 100.346 82.7954 103.308 81.1108 105.347C78.7813 108.176 72.2077 107.585 68.9684 107.342C67.7387 107.248 66.309 107.034 65.7041 105.968C65.3342 105.323 65.3892 104.529 65.5041 103.794Z" fill="#002921"/>
<path d="M81.8208 76.3804C81.7909 77.0304 82.4707 76.7029 83.2856 76.7426C84.1004 76.7823 84.7502 77.1644 84.7802 76.5144C84.8102 75.8644 84.1704 75.3087 83.3555 75.274C82.5407 75.2392 81.8508 75.7304 81.8208 76.3804Z" fill="#FBF089"/>
<path d="M83.9528 77.0069C83.7901 76.9996 83.6701 76.7318 83.6848 76.4088C83.6996 76.0857 83.8434 75.8298 84.0061 75.8371C84.1689 75.8444 84.2888 76.1122 84.2741 76.4352C84.2594 76.7583 84.1155 77.0142 83.9528 77.0069Z" fill="#002921"/>
<path d="M74.3521 76.043C74.3221 76.693 75.002 76.3655 75.8168 76.4052C76.6366 76.44 77.2815 76.827 77.3115 76.177C77.3415 75.527 76.7016 74.9713 75.8868 74.9366C75.072 74.8969 74.3821 75.393 74.3521 76.043Z" fill="#FBF089"/>
<path d="M76.4841 76.6742C76.3213 76.6669 76.2014 76.3991 76.2161 76.076C76.2308 75.753 76.3747 75.497 76.5374 75.5043C76.7001 75.5117 76.8201 75.7795 76.8054 76.1025C76.7906 76.4255 76.6468 76.6815 76.4841 76.6742Z" fill="#002921"/>
<path d="M67.6432 104.906C68.9029 103.04 68.553 100.892 66.9584 99.3138C66.0735 98.4356 65.0438 97.7161 64.104 96.8925C63.1692 96.0688 62.2993 95.1707 61.5245 94.1933C58.0802 89.8715 56.4356 84.0365 58.7051 78.7819C59.8648 76.1026 61.9844 73.974 64.4439 72.4308C66.0785 71.4037 67.5832 73.9789 65.9586 75.001C64.029 76.2167 62.3443 77.8888 61.4245 79.9926C60.4497 82.2254 60.4447 84.8006 61.0846 87.1178C61.7145 89.3803 62.9792 91.4345 64.5639 93.1612C66.2635 95.012 68.533 96.312 70.0427 98.3264C71.7873 100.654 71.8573 103.998 70.2277 106.409C69.7778 107.074 68.9029 107.367 68.1781 106.945C67.5132 106.558 67.1883 105.576 67.6432 104.906Z" fill="#002921"/>
<path d="M79.4116 77.7302L79.3566 77.626C79.1717 77.2687 79.4416 76.852 79.8465 76.8668L79.9665 76.8718C80.3664 76.8917 80.6013 77.3333 80.3814 77.6707L80.3164 77.7699C80.1015 78.1073 79.5966 78.0874 79.4116 77.7302Z" fill="#FFAE00"/>
<path d="M107.31 135.58C107.31 135.58 61.4745 140.279 58.94 140.467C56.4055 140.656 48.6422 138.021 47.5024 134.637C46.3677 131.253 32.7855 92.9729 32.7855 92.9729H29.9311C32.5106 100.798 35.105 108.612 37.7195 116.427C39.4941 121.736 40.3339 127.304 42.3235 132.558C43.2833 135.089 44.3831 138.17 46.3677 140.12C49.512 143.211 53.3012 142.055 57.4853 141.802C64.4738 141.385 71.0174 143.276 77.681 145.037C83.7498 146.645 90.1734 146.134 96.4421 145.806C108.47 145.171 109.529 144.228 109.529 144.228C109.529 144.228 108.175 135.491 107.31 135.58Z" fill="#FBF089"/>
<path d="M44.0937 59.5254C44.1987 59.7685 44.3087 60.0166 44.4936 60.2101C44.8236 60.5525 45.3185 60.6666 45.7734 60.8155C47.0481 61.2323 48.1729 62.0907 48.9127 63.2021C48.9927 63.3261 49.1027 63.4651 49.2476 63.4601C49.3876 63.4502 49.4776 63.3162 49.5326 63.1922C49.8675 62.4231 49.7275 61.5349 49.5176 60.7262C48.8077 58.027 47.1481 54.6777 44.7586 53.0404C41.3143 50.6785 43.5638 58.2602 44.0937 59.5254Z" fill="#69CDFF"/>
<path d="M39.8691 48.7287C40.1191 47.5974 40.644 46.5455 41.2039 45.5284C42.3486 43.4394 43.6433 41.4299 45.073 39.5246C45.413 39.0731 45.7879 38.6067 46.3178 38.4231C47.0026 38.1849 47.7925 38.4876 48.2924 39.0086C48.7923 39.5345 49.0522 40.2391 49.2272 40.9387C50.5669 46.2329 47.8625 51.3882 46.0728 56.2359C44.8831 59.4611 44.1432 59.6843 42.0837 56.7321C40.474 54.4199 39.2343 51.5917 39.8691 48.7287Z" fill="#7FFFDE"/>
<path d="M45.2633 38.7455C45.2183 37.1428 45.3983 35.4955 45.5983 33.9226C45.5983 33.9226 45.9032 31.5013 47.6228 29.7101C48.7826 28.5044 50.3622 27.7601 51.9819 27.3185C54.2764 26.6933 56.8359 26.6536 58.9254 27.775C60.94 28.8616 62.2947 30.9257 62.9096 33.1188C63.0445 33.6001 63.1445 34.0913 63.2195 34.5826C63.7294 35.7585 63.5394 37.2619 63.3445 38.6314C63.3145 39.0531 63.2795 39.4798 63.2345 39.8966C63.1045 41.1023 62.9046 42.3329 62.4647 43.4542C62.0698 44.8386 61.5099 46.1683 60.6851 47.3542C59.7003 48.7733 58.3805 49.9244 57.0758 51.0607C55.0213 52.8469 52.9717 54.6381 50.9171 56.4244C50.4722 56.8114 49.9573 57.2232 49.3675 57.1934C48.9375 57.1686 48.5626 56.9106 48.2327 56.6328C46.3281 55.0351 45.2883 52.6385 44.6735 50.237C43.7586 46.6893 43.6587 42.8489 44.9734 39.4253C45.0634 39.202 45.1633 38.9737 45.2633 38.7455Z" fill="#E2FFF5"/>
<path d="M55.7914 53.9037C55.6864 54.4694 55.0216 54.7373 54.5567 54.395C54.2217 54.1518 53.8868 53.874 53.6918 53.6209C53.5769 53.4721 53.4669 53.3083 53.4269 53.1247C53.3269 52.698 53.5969 52.2763 53.8518 51.919C54.5017 51.0061 55.3265 49.6912 56.2913 48.6839C56.8612 48.0885 57.3311 48.7187 56.9012 49.4232C56.6162 49.8797 55.9964 52.8072 55.7914 53.9037Z" fill="#7FFFDE"/>
<path d="M46.8782 55.933C46.6532 55.9727 46.4283 55.8586 46.2433 55.7246C45.1786 54.9754 44.6487 53.6853 44.3037 52.4349C44.0488 51.512 43.8638 50.5743 43.7439 49.6266C43.5039 47.7262 43.5139 45.7961 43.7089 43.8907C43.7938 43.0472 43.9438 40.4572 45.3085 40.3827C46.2233 40.3331 46.9632 41.6232 47.3381 42.2682C48.9278 44.9972 49.7426 48.6441 49.3077 51.775C49.1327 53.0055 48.4129 55.6551 46.8782 55.933Z" fill="#7FFFDE"/>
<path d="M40.9189 65.5293C40.8389 65.9263 40.699 66.4224 40.294 66.477C39.9241 66.5266 39.6542 66.1545 39.4742 65.832C37.2247 61.7732 35.1551 57.2382 35.93 52.6733C36.0099 52.197 36.1249 51.7157 36.3649 51.2939C36.5498 50.9714 36.7998 50.6936 37.0547 50.4157C37.8596 49.5275 38.6694 48.6394 39.4742 47.7512C38.8294 48.4657 40.0091 52.0134 40.269 52.8271C40.8239 54.5439 41.6587 56.1714 42.7335 57.6252C43.1984 58.2553 44.1582 58.945 44.4732 59.6198C44.9531 60.6469 44.6081 60.4484 43.6983 61.1828C42.3186 62.3042 41.2838 63.7679 40.9189 65.5293Z" fill="#69CDFF"/>
<path d="M133.759 196.436C134.374 198.391 136.229 200.45 137.738 201.845C138.703 202.738 139.938 203.273 141.128 203.844C142.317 204.415 143.512 205.08 144.302 206.127C145.092 207.173 145.367 208.712 144.617 209.793C144.437 210.056 144.192 210.285 143.887 210.389C143.592 210.488 143.272 210.453 142.962 210.414C138.988 209.947 135.024 209.367 131.085 208.667C129.61 208.404 128.11 208.121 126.786 207.417C124.906 206.419 123.551 204.683 122.262 203.001C118.652 198.292 115.043 193.583 111.429 188.874C110.869 188.145 110.314 187.421 109.754 186.691C109.659 186.562 109.554 186.428 109.534 186.274C109.504 186.066 109.619 185.868 109.734 185.689C110.714 184.106 111.694 182.523 112.674 180.94C112.829 180.687 113.019 180.415 113.314 180.365C113.554 180.325 113.788 180.459 113.988 180.603C115.358 181.62 116.053 183.55 117.693 184.017C119.082 184.409 120.537 183.526 121.467 182.424C122.397 181.323 123.022 179.983 124.036 178.961C128.015 174.952 128.89 179.239 129.945 183.511C131.15 188.418 132.39 192.095 133.759 196.436Z" fill="#3CB3EF"/>
<path d="M142.147 207.421C142.912 207.421 143.657 207.357 144.382 207.228L144.237 206.434C141.123 206.995 137.543 206.255 134.164 204.345C131.02 202.569 128.375 200.058 125.931 197.637C121.382 193.127 116.993 188.353 112.894 183.446L112.269 183.962C116.388 188.884 120.792 193.677 125.356 198.202C127.835 200.659 130.53 203.214 133.759 205.04C136.529 206.603 139.433 207.421 142.147 207.421Z" fill="#002921"/>
<path d="M102.716 120.66C104.255 118.665 105.915 116.7 108.065 115.375C110.214 114.051 112.954 113.45 115.313 114.358C118.197 115.475 119.837 118.496 120.792 121.419C122.587 126.902 122.846 132.752 123.091 138.512C123.631 151.319 125.241 189.301 126.726 195.295C128.21 201.289 131.01 207.114 135.634 211.237C134.164 212.884 131.85 214.666 130.005 213.455C129.485 213.118 129.105 212.572 128.53 212.339C127.406 211.887 126.216 212.835 125.526 213.827C124.836 214.82 124.226 216.01 123.076 216.392C121.877 216.789 120.532 216.075 119.817 215.038C119.102 214.001 118.887 212.716 118.717 211.47C117.403 201.924 116.593 192.199 115.168 182.667C113.204 169.528 109.024 156.94 108.38 143.672C108.28 141.658 108.205 139.42 106.78 137.986C105.64 136.84 103.921 136.522 102.311 136.359C100.701 136.2 97.1919 136.369 95.7822 135.57C91.4531 133.134 100.501 123.523 102.716 120.66Z" fill="#7FFFDE"/>
<path d="M112.389 114.716C112.384 114.458 112.379 114.2 112.374 113.941C113.374 113.877 114.369 113.996 115.308 114.358C118.193 115.475 119.832 118.496 120.787 121.419C122.582 126.902 122.842 132.752 123.087 138.512C123.497 148.158 124.506 172.094 125.616 185.878C117.453 169.796 114.439 151.497 113.179 133.466C112.749 127.224 112.519 120.967 112.389 114.716Z" fill="#E2FFF5"/>
<path d="M77.9014 108.588C75.067 108.052 56.7508 104.038 48.4826 100.703C48.1926 100.584 47.8777 100.465 47.5728 100.535C47.3428 100.589 47.1479 100.748 46.9679 100.902C43.9085 103.517 42.5088 106.395 40.2243 109.699C53.2716 111.52 65.444 113.877 71.4527 113.277C74.6021 112.959 73.0024 112.741 76.2017 109.54L77.9014 108.588Z" fill="#E2FFF5"/>
<path d="M75.4867 111.555L81.9853 101.631L90.9834 99.6464L82.9851 94.1884L79.9607 95.2056L81.4854 92.2037L84.4848 91.2114V90.219L79.8308 91.3354C79.8308 91.3354 76.9864 98.1579 76.9864 98.654C76.9864 99.1502 67.4884 112.051 67.4884 112.051L75.4867 111.555Z" fill="#7FFFDE"/>
<path d="M71.4573 113.271C65.4485 113.872 53.2761 111.52 40.2289 109.699C41.7736 109.912 43.8831 104.176 44.568 103.159C45.2078 102.202 46.1326 100.673 47.4324 100.554C49.7469 100.336 50.3317 103.968 51.4415 105.422C53.3061 107.868 56.2705 109.297 59.2948 109.922C62.0743 110.498 64.8187 110.319 67.6281 110.369C68.4679 110.384 74.5516 111.431 74.6416 111.312C73.4968 112.84 73.8818 113.033 71.4573 113.271Z" fill="#7FFFDE"/>
<path d="M37.155 106.786C37.005 107.074 36.835 107.392 36.5251 107.496C36.0352 107.66 35.5753 107.198 35.2804 106.777C32.8659 103.328 31.6911 99.1949 30.5514 95.151C27.2021 83.2477 23.8228 71.0863 24.4577 58.7414C24.5427 57.0891 24.7976 55.2483 26.1073 54.2311C26.4722 53.9433 26.9371 53.7399 27.397 53.7994C28.1119 53.8937 28.5868 54.5536 28.9617 55.1639C35.9302 66.4669 39.1346 79.9183 47.2728 90.4224C48.2226 91.643 50.2072 93.8411 49.5574 95.5877C49.0325 96.9918 47.1279 97.0861 45.9231 97.6815C42.1889 99.5323 39.0446 103.149 37.155 106.786Z" fill="#4DC4FF"/>
<path d="M48.603 100.574C45.1487 103.789 41.9844 107.312 39.165 111.093C38.815 110.2 38.4651 109.312 38.1152 108.419C37.9252 107.927 37.0104 106.022 37.0304 105.501C37.0504 104.926 44.6338 95.5329 46.6684 97.1108C47.8631 98.0287 49.7177 99.5371 48.603 100.574Z" fill="#3DB6FF"/>
<path d="M150.835 221.612C152.305 222.302 153.855 222.868 155.159 223.825C156.464 224.783 157.519 226.261 157.469 227.869C157.414 229.601 156.069 231.089 154.495 231.833C152.92 232.578 151.13 232.722 149.386 232.836C144.782 233.138 139.908 233.253 135.859 231.054C134.514 230.325 133.309 229.362 132.014 228.549C128.88 226.584 125.181 225.507 121.472 225.492C120.922 225.487 120.347 225.502 119.852 225.259C118.877 224.773 118.642 223.522 118.552 222.446C118.262 218.913 118.312 215.35 118.702 211.828C121.117 213.842 125.071 213.698 127.33 211.51C128.455 210.423 129.215 208.9 130.625 208.21C134.604 206.265 137.323 210.845 139.588 213.123C142.887 216.452 146.561 219.598 150.835 221.612Z" fill="#3DB6FF"/>
<path d="M109.955 92.9729L106.801 97.4087L93.0935 95.7068L92.6586 96.7141L89.2443 95.7068L87.7796 97.4087L88.9944 99.3538L88.7394 100.515L89.8742 101.358L88.8644 102.738L90.849 104.072L110.59 97.7164L111.475 92.9729H109.955Z" fill="#7FFFDE"/>
<path d="M88.9946 99.3537L87.7849 97.4087L89.2496 95.7068L92.6638 96.7091L93.0988 95.7068L93.3237 95.7366C93.0888 96.3369 92.8888 96.9522 92.7238 97.5774C92.4839 98.5201 92.3239 99.5026 92.4789 100.46C92.6339 101.418 93.1387 102.356 93.9786 102.857C94.0586 102.906 94.1435 102.946 94.2285 102.981L90.8492 104.067L88.8697 102.738L89.8794 101.358L88.7447 100.515L88.9946 99.3537Z" fill="#7FFFDE"/>
<path d="M102.646 96.8927L106.801 97.4087L109.96 92.9729H111.475L110.59 97.7164L96.8327 102.147C98.8523 100.51 100.817 98.7583 102.646 96.8927Z" fill="#7FFFDE"/>
<path d="M92.4736 100.46C92.3187 99.5026 92.4736 98.5201 92.7186 97.5774C92.8785 96.9522 93.0835 96.3369 93.3184 95.7366L102.646 96.8927C100.817 98.7583 98.8573 100.51 96.8327 102.142L94.2283 102.981C94.1433 102.941 94.0583 102.901 93.9783 102.857C93.1335 102.356 92.6286 101.418 92.4736 100.46Z" fill="#E2FFF5"/>
<path d="M113.488 88.398C113.488 88.398 104.679 82.8991 99.4998 81.4999C94.3209 80.1007 91.268 79.1938 91.268 79.1938L74.4715 102.023L75.9162 104.107L93.1576 80.6576L113.488 88.398Z" fill="#E2FFF5"/>
<path d="M107.215 227.859C107.59 227.859 107.96 227.775 108.309 227.606L108.729 227.398C109.744 226.906 110.289 225.795 110.059 224.693L93.5726 146.099L91.9879 146.426L108.474 225.026C108.554 225.403 108.364 225.785 108.015 225.959L107.595 226.167C107.355 226.281 107.085 226.281 106.845 226.167C106.605 226.053 106.44 225.84 106.38 225.587L89.5484 148.178L87.9638 148.515L104.795 225.924C104.955 226.668 105.445 227.283 106.135 227.616C106.485 227.78 106.85 227.859 107.215 227.859Z" fill="#E2FFF5"/>
<path d="M73.942 225.453C74.2019 225.453 74.4669 225.413 74.7218 225.329L75.2817 225.15C76.3415 224.803 77.0363 223.791 76.9813 222.689L73.2171 151.83L71.5975 151.914L75.3617 222.773C75.3817 223.155 75.1417 223.503 74.7768 223.622L74.2169 223.8C73.962 223.885 73.687 223.845 73.4671 223.696C73.2471 223.547 73.1121 223.309 73.0971 223.046L69.153 151.552L67.5333 151.641L71.4775 223.131C71.5175 223.9 71.9074 224.589 72.5523 225.026C72.9722 225.304 73.4521 225.453 73.942 225.453Z" fill="#E2FFF5"/>
<path d="M37.0144 218.521C37.3643 218.521 37.7142 218.447 38.0391 218.298C38.714 217.995 39.2089 217.415 39.3989 216.705L58.0449 148.292L56.4803 147.87L37.8342 216.283C37.7692 216.526 37.5942 216.73 37.3643 216.834C37.2293 216.899 36.9544 216.978 36.6394 216.824C36.2745 216.65 36.0846 216.239 36.1845 215.852L54.4757 145.27L52.906 144.868L34.6149 215.45C34.3199 216.576 34.8748 217.767 35.9346 218.273C36.2795 218.442 36.6444 218.521 37.0144 218.521Z" fill="#E2FFF5"/>
<path d="M48.8176 40.4225C48.0827 41.7672 45.2033 47.1606 43.5587 51.8297C43.3437 52.435 42.4389 52.2762 42.4639 51.6362C42.5139 50.2369 42.6089 48.8427 42.7489 47.4534C42.8088 46.8381 41.969 46.6049 41.6891 47.1606C39.5645 51.3831 35.9003 53.8888 27.877 54.2014C27.3371 54.2213 27.0722 53.5514 27.4971 53.214C36.4152 46.0442 42.6489 29.6951 43.4937 27.2043C44.0536 25.557 46.5231 23.8551 48.2577 23.6269C54.7663 22.7635 64.4893 27.5367 64.4893 35.6394C64.4893 45.2404 53.5866 40.5366 49.3725 40.1298C49.1475 40.1099 48.9275 40.224 48.8176 40.4225Z" fill="#1F3889"/>
<path d="M43.4934 27.2043C43.6834 26.6436 44.0983 26.078 44.6282 25.5669C45.8679 25.17 47.1477 24.9268 48.4474 24.9467C50.6219 24.9765 52.7965 25.7803 54.3961 27.244C55.9958 28.7077 56.9806 30.8363 56.9556 32.9947C56.9306 35.4508 55.6759 37.7035 54.4561 39.837C54.2312 40.229 54.0112 40.621 53.7863 41.008C52.0616 40.6458 50.482 40.2389 49.3672 40.1298C49.1373 40.1099 48.9223 40.2191 48.8123 40.4176C48.0775 41.7622 45.1981 47.1557 43.5534 51.8247C43.3385 52.4301 42.4337 52.2713 42.4587 51.6312C42.5087 50.232 42.6036 48.8377 42.7436 47.4484C42.8036 46.8332 41.9638 46.6 41.6838 47.1557C39.5593 51.3782 35.8951 53.8839 27.8718 54.1965C27.3319 54.2163 27.0669 53.5465 27.4918 53.2091C36.4149 46.0442 42.6486 29.6951 43.4934 27.2043Z" fill="#19306B"/>
<path d="M66.3085 125.949C68.538 119.593 73.507 111.654 79.5957 108.26L79.2008 107.561C72.9321 111.059 67.8232 119.186 65.5437 125.686L66.3085 125.949Z" fill="#002921"/>
<path d="M99.9313 100.113L100.031 99.3141C97.8267 99.0362 95.6422 98.545 93.5376 97.8503L93.2827 98.6145C95.4372 99.329 97.6717 99.8301 99.9313 100.113Z" fill="#002921"/>
<path d="M139.038 223.175L140.463 222.5C142.017 221.761 143.752 221.31 145.472 221.186L145.412 220.382C144.117 220.476 142.852 220.734 141.637 221.156C142.672 220.079 143.922 219.206 145.307 218.605L146.736 217.985L145.182 217.841C143.692 217.697 142.147 217.554 140.628 217.891C139.868 218.055 139.168 218.347 138.573 218.729C139.373 217.429 140.533 216.338 141.897 215.648L142.952 215.112L141.787 214.894C139.258 214.423 136.663 214.527 134.199 215.197C134.679 214.562 135.204 213.951 135.819 213.46C136.813 212.671 137.953 212.299 138.938 212.463L139.068 211.669C137.838 211.48 136.479 211.902 135.309 212.835C134.294 213.649 133.549 214.696 132.829 215.713L132.094 216.745L133.294 216.323C135.614 215.509 138.098 215.236 140.543 215.519C138.758 216.74 137.413 218.605 136.858 220.684L137.618 220.952C138.118 219.851 139.313 219.002 140.808 218.675C141.747 218.466 142.727 218.466 143.702 218.526C142.237 219.384 140.963 220.536 139.963 221.91L139.038 223.175Z" fill="#002921"/>
<path d="M144.842 223.81C144.937 223.81 145.037 223.805 145.137 223.801C146.282 223.711 147.557 222.947 147.767 221.662C147.992 220.312 146.952 219.176 146.017 218.333C144.612 217.067 143.178 215.842 141.743 214.696L141.233 215.321C142.653 216.457 144.083 217.673 145.472 218.928C146.302 219.677 147.127 220.57 146.967 221.533C146.822 222.401 145.882 222.937 145.072 223.002C144.093 223.076 143.128 222.664 142.308 222.252C139.459 220.814 136.979 218.67 134.58 216.601C133.31 215.504 131.995 214.368 130.635 213.341C128.891 212.026 127.431 211.694 126.291 212.364L126.701 213.058C127.736 212.453 129.141 213.227 130.146 213.986C131.485 214.998 132.79 216.125 134.05 217.211C136.484 219.315 139.004 221.493 141.943 222.977C142.733 223.364 143.763 223.81 144.842 223.81Z" fill="#002921"/>
<path d="M147.536 230.583C150.046 230.583 152.485 230.072 154.67 229.03C155.25 228.752 155.91 228.395 156.389 227.834C156.939 227.194 157.159 226.366 156.964 225.671L156.184 225.889C156.309 226.326 156.155 226.872 155.775 227.308C155.39 227.755 154.845 228.048 154.32 228.301C149.451 230.618 143.197 230.176 137.998 227.15C137.094 226.624 136.209 226.018 135.354 225.428C133.864 224.406 132.32 223.349 130.6 222.649C128.33 221.726 125.866 221.473 123.481 221.23C122.712 221.151 121.937 221.071 121.172 220.967C120.277 220.848 118.742 220.496 118.542 219.439L117.743 219.588C117.968 220.759 119.112 221.508 121.062 221.766C121.837 221.87 122.612 221.95 123.391 222.029C125.721 222.267 128.125 222.515 130.29 223.394C131.93 224.058 133.434 225.09 134.889 226.088C135.759 226.683 136.659 227.298 137.583 227.839C140.698 229.665 144.177 230.583 147.536 230.583Z" fill="#002921"/>
<path d="M133 213.227L136.189 211.024C136.369 210.9 136.409 210.657 136.289 210.483L135.274 209.039C135.149 208.861 134.904 208.821 134.729 208.94L131.54 211.143C131.36 211.267 131.32 211.51 131.44 211.684L132.455 213.128C132.58 213.307 132.82 213.351 133 213.227Z" fill="#E2FFF5"/>
<path d="M135.464 200.579C135.589 200.579 135.714 200.554 135.819 200.495C136.014 200.386 136.114 200.182 136.089 199.954L135.279 200.038C135.274 199.989 135.289 199.919 135.339 199.855C135.389 199.795 135.449 199.775 135.464 199.775C135.389 199.78 135.359 199.761 135.324 199.736C133.34 198.282 131.98 196.262 130.535 194.124C129.465 192.536 128.356 190.889 126.971 189.514L126.396 190.085C127.726 191.405 128.811 193.017 129.86 194.575C131.28 196.679 132.745 198.853 134.844 200.391C135.014 200.5 135.244 200.579 135.464 200.579Z" fill="#002921"/>
<path d="M130.505 196.183L131.294 195.9C132.009 195.642 132.809 195.608 133.544 195.801L133.754 195.027C133.124 194.858 132.459 194.829 131.814 194.938C132.159 194.134 132.609 193.38 133.159 192.69L133.589 192.149L132.904 192.04C131.854 191.871 130.77 191.901 129.725 192.12L131.939 187.882L131.374 187.803C129.665 187.55 127.91 188.006 126.54 189.048L127.035 189.688C128.06 188.909 129.38 188.483 130.68 188.547L128.13 193.429L129.07 193.127C130.045 192.814 131.074 192.695 132.099 192.765C131.534 193.578 131.094 194.462 130.775 195.399L130.505 196.183Z" fill="#002921"/>
<path d="M103.696 137.302C105.021 137.302 106.39 137.168 107.79 136.895L107.635 136.106C102.641 137.073 98.0721 136.23 94.7578 133.724L94.2679 134.364C96.8274 136.299 100.087 137.302 103.696 137.302Z" fill="#00D0AF"/>
<path d="M102.326 121.717C106.15 117.554 111.039 114.472 116.453 112.8L116.213 112.031C110.659 113.743 105.65 116.904 101.731 121.171L102.326 121.717Z" fill="#00D0AF"/>
<path d="M59.0447 230.851C59.0897 230.851 59.1297 230.851 59.1747 230.846C60.2095 230.792 61.0293 230.107 61.2543 229.1L63.1489 206.404C63.3138 205.7 63.9187 205.387 64.4286 205.343C64.9285 205.313 65.5883 205.511 65.8833 206.231L71.5271 226.931C71.942 227.948 72.8718 228.469 73.9216 228.35C74.9664 228.211 75.7312 227.452 75.8662 226.415L81.585 181.313L80.7801 181.213L75.0613 226.316C74.9564 227.125 74.3265 227.487 73.8166 227.556C73.3067 227.626 72.6019 227.432 72.2919 226.678L66.6481 205.978C66.2532 205.01 65.3884 204.474 64.3586 204.544C63.3538 204.628 62.564 205.313 62.344 206.285L60.4494 228.981C60.2795 229.71 59.6296 230.018 59.1247 230.042C58.6398 230.072 57.98 229.844 57.705 229.139L58.2899 214.353L58.2649 214.284C57.86 213.098 56.7602 212.691 55.8604 212.78C54.9556 212.889 53.9958 213.554 53.8858 214.805L53.5609 226.187C53.4859 226.996 52.856 227.378 52.3362 227.452C51.8363 227.532 51.1464 227.358 50.8165 226.644L51.4164 208.826L51.3814 208.746C51.0264 207.873 50.2116 207.312 49.2418 207.342C48.297 207.362 47.4772 207.952 47.1673 208.836L41.5784 228.023C41.3185 228.752 40.6686 228.985 40.1387 228.956C39.6138 228.926 38.994 228.618 38.814 227.839L31.5656 177.303L30.7657 177.418L38.0192 227.983C38.2541 229.01 39.064 229.695 40.0888 229.755C41.1335 229.814 42.0033 229.229 42.3483 228.266L47.9371 209.079C48.177 208.409 48.7769 208.156 49.2618 208.146C49.7117 208.156 50.3116 208.349 50.6015 208.97L50.0017 226.787L50.0316 226.867C50.4316 227.844 51.4114 228.4 52.4561 228.246C53.5059 228.092 54.2757 227.284 54.3707 226.232L54.6957 214.849C54.7706 214.021 55.4255 213.644 55.9604 213.579C56.4903 213.505 57.1801 213.718 57.4751 214.472L56.8902 229.258L56.9152 229.328C57.2401 230.266 58.0649 230.851 59.0447 230.851Z" fill="#002921"/>
<path d="M11.935 173.185C13.3397 175.125 16.1192 176.053 18.7786 176.182C21.438 176.311 24.0725 175.775 26.7069 175.438C34.1004 174.485 42.2836 174.902 49.0722 177.7C56.1057 180.593 64.194 181.729 71.9424 181.06C79.5907 180.4 96.7221 174.282 99.4765 169.25C99.7065 169.593 99.8515 169.955 99.8615 170.332C100.011 175.552 80.3056 182.791 71.9424 183.516C64.194 184.185 56.1057 183.049 49.0722 180.156C42.2786 177.358 34.1004 176.941 26.7069 177.894C24.0725 178.231 21.438 178.767 18.7786 178.638C16.1192 178.509 13.3347 177.581 11.935 175.641C11.0302 174.391 10.8253 172.868 11.1352 171.409C11.2802 172.034 11.5401 172.639 11.935 173.185Z" fill="#FFAE00"/>
<path d="M71.9474 181.06C64.199 181.729 56.1108 180.593 49.0772 177.7C42.2837 174.902 34.1054 174.485 26.712 175.438C24.0775 175.775 21.4431 176.311 18.7837 176.182C16.1242 176.053 13.3398 175.125 11.9401 173.185C11.5452 172.639 11.2853 172.034 11.1403 171.409C11.2803 170.749 11.5302 170.104 11.8651 169.509C12.9499 167.588 14.8545 166.09 16.9091 164.889C19.4235 163.42 22.2079 162.329 25.0523 161.406C43.4834 155.427 64.279 156.563 83.085 161.624C87.1542 162.721 91.1933 164.006 94.7726 165.991C96.0973 166.725 98.5368 167.851 99.4766 169.251C96.7221 174.287 79.5958 180.4 71.9474 181.06Z" fill="#FBF089"/>
<path d="M65.3144 153.76C69.3485 153.76 72.7678 152.38 73.9775 150.465C73.9775 150.783 73.9575 151.105 73.9076 151.428L71.998 163.515C71.4881 166.74 68.7187 169.161 65.4294 169.181C65.3994 169.181 65.3744 169.181 65.3444 169.181C65.2894 169.181 65.2294 169.181 65.1694 169.181C61.6052 169.131 58.6208 166.482 58.1609 162.974L56.6212 151.264C56.5812 150.956 56.5712 150.649 56.5812 150.346C57.711 152.321 61.1952 153.76 65.3144 153.76Z" fill="#4DC4FF"/>
<path d="M65.3096 153.76C61.1905 153.76 57.7112 152.321 56.5715 150.341C56.5715 148.123 58.796 146.803 61.7254 146.436C62.8151 146.297 64.0299 146.208 65.3346 146.208C66.5693 146.208 67.7291 146.292 68.7839 146.421C71.7732 146.784 73.9678 148.853 73.9678 150.46C72.768 152.38 69.3438 153.76 65.3096 153.76Z" fill="#3CB3EF"/>
<path d="M65.3141 153.76C62.5147 153.76 60.0152 153.095 58.3406 152.048C58.9255 150.659 61.8049 149.602 65.2741 149.602C68.7784 149.602 71.6728 150.679 72.2227 152.088C70.548 153.115 68.0735 153.76 65.3141 153.76Z" fill="#CC9900"/>
<path d="M53.3019 154.603C53.9118 152.991 56.0114 152.103 57.591 152.857L58.8008 161.932C57.756 162.15 56.6212 162.354 55.6514 161.907C55.0266 161.619 54.5467 161.088 54.1917 160.503C53.6119 159.535 53.3469 158.419 53.177 157.303C53.047 156.404 52.977 155.457 53.3019 154.603ZM54.2617 157.332C54.3617 158.007 54.5217 158.687 54.8766 159.277C55.0916 159.635 55.3815 159.957 55.7614 160.131C56.3513 160.404 57.0411 160.275 57.676 160.146L56.9412 154.633C55.9814 154.172 54.7066 154.717 54.3367 155.695C54.1368 156.211 54.1817 156.787 54.2617 157.332Z" fill="#3CB3EF"/>
<path d="M56.6162 151.259C56.5762 150.951 56.5662 150.644 56.5762 150.341C57.716 152.321 61.1952 153.76 65.3144 153.76C69.3485 153.76 72.7678 152.38 73.9775 150.465C73.9775 150.783 73.9575 151.105 73.9076 151.428L72.0979 162.899C71.618 163.177 71.1781 163.663 70.7632 163.966C69.6235 164.79 68.3187 165.39 66.944 165.698C64.4446 166.259 61.7351 165.857 59.5106 164.596C59.1707 164.403 58.7958 164.184 58.4208 164.14C58.3059 163.763 58.2159 163.376 58.1609 162.974L56.6162 151.259Z" fill="#4DC4FF"/>
<path d="M66.9389 165.698C68.3136 165.39 69.6183 164.79 70.758 163.966C71.178 163.664 71.6129 163.177 72.0928 162.899L71.9978 163.515C71.4879 166.74 68.7185 169.161 65.4292 169.181C65.3992 169.181 65.3742 169.181 65.3442 169.181C65.2892 169.181 65.2292 169.181 65.1692 169.181C62.0149 169.136 59.3155 167.052 58.4157 164.14C58.7906 164.189 59.1655 164.403 59.5054 164.596C61.73 165.857 64.4394 166.259 66.9389 165.698Z" fill="#3CB3EF"/>
<g opacity="0.8">
<g opacity="0.8">
<path opacity="0.8" d="M65.6792 151.77C62.4599 150.381 59.7604 147.821 58.2108 144.695C57.9308 144.124 57.6809 143.524 57.6359 142.894C57.5009 140.909 59.4805 139.301 61.4701 139.033C63.4547 138.765 65.4292 139.445 67.3588 139.996C69.2884 140.547 71.398 140.973 73.2526 140.224C75.1122 139.475 76.4019 137.093 75.3221 135.416" fill="#E2FFF5"/>
</g>
</g>
<g opacity="0.8">
<g opacity="0.8">
<path opacity="0.8" d="M58.2954 144.064C57.1456 141.737 56.1558 138.899 57.4806 136.666C58.5953 134.786 60.9748 134.071 63.1644 133.873C65.3539 133.675 67.6284 133.828 69.668 133.02C70.0879 132.856 70.5128 132.628 70.7177 132.226C71.1776 131.318 70.1979 130.345 69.278 129.894C66.4886 128.524 63.2643 128.36 60.33 127.343" fill="#E2FFF5"/>
</g>
</g>
<path d="M35.9502 160.771H51.137C52.6167 160.771 53.8164 161.962 53.8164 163.431V167.633H53.7964C53.8064 167.693 53.8164 167.752 53.8164 167.817C53.8164 169.519 49.2174 170.898 43.5486 170.898C37.8798 170.898 33.2808 169.519 33.2808 167.817C33.2808 167.757 33.2908 167.693 33.3008 167.633H33.2808V163.431C33.2708 161.957 34.4705 160.771 35.9502 160.771Z" fill="#2E46FF"/>
<path d="M43.5436 164.329C38.3118 164.329 34.0706 163.056 34.0706 161.485C34.0706 159.915 38.3118 158.642 43.5436 158.642C48.7754 158.642 53.0166 159.915 53.0166 161.485C53.0166 163.056 48.7754 164.329 43.5436 164.329Z" fill="#4DC4FF"/>
<path fill-rule="evenodd" clip-rule="evenodd" d="M37.0297 145.533L41.2588 146.287V151.076C41.3737 150.971 41.5587 150.937 41.7787 150.937C42.0286 150.937 42.3285 151.061 42.5685 151.254C42.8084 151.443 42.9834 151.696 42.9834 151.949C42.9834 152.113 42.9134 152.247 42.7934 152.341C42.6785 152.435 42.5185 152.49 42.3435 152.49C42.0686 152.49 41.7537 152.376 41.5137 152.192C41.2688 152.003 41.0988 151.75 41.0988 151.472V146.843L37.1796 146.148V150.351C37.2946 150.247 37.4796 150.212 37.6995 150.212C37.9495 150.212 38.2494 150.336 38.4894 150.53C38.7293 150.718 38.9043 150.971 38.9043 151.224C38.9043 151.388 38.8343 151.522 38.7143 151.616C38.5993 151.711 38.4394 151.765 38.2644 151.765C37.9895 151.765 37.6745 151.651 37.4346 151.468C37.1896 151.279 37.0197 151.026 37.0197 150.748L37.0297 145.533Z" fill="#2E46FF"/>
<path fill-rule="evenodd" clip-rule="evenodd" d="M35.1352 132.896C35.0802 133.297 35.0702 133.799 34.6503 134.305C34.3254 134.687 33.9654 135.034 33.7155 135.342C33.3856 135.749 33.1506 136.26 33.1506 136.781C33.1506 137.614 33.5555 138.438 33.8305 138.889H33.9604C33.7655 138.458 33.3806 137.748 33.4106 136.989C33.4256 136.567 33.5855 136.111 33.8605 135.773C34.1654 135.381 34.6853 135.069 35.1352 135.039V139.574C35.1352 139.936 35.3552 140.264 35.6701 140.502C35.975 140.74 36.3799 140.884 36.7349 140.884C36.9598 140.884 37.1698 140.815 37.3147 140.69C37.4697 140.571 37.5547 140.393 37.5547 140.189C37.5547 139.862 37.3297 139.534 37.0198 139.296C36.7149 139.048 36.3249 138.889 36.005 138.889C35.7251 138.889 35.4801 138.929 35.3352 139.063V132.9H35.1352V132.896Z" fill="#2E46FF"/>
<path d="M52.3762 55.0202C51.4914 54.7771 50.7166 54.1519 50.3217 53.3283C50.2367 53.1546 50.2667 52.9164 50.4566 52.8172C50.6216 52.7279 50.8815 52.7626 50.9715 52.9512C51.0165 53.0405 51.0615 53.1298 51.1165 53.2141C51.1415 53.2588 51.1715 53.2985 51.1965 53.3382C51.2115 53.358 51.2215 53.3729 51.2365 53.3928C51.2465 53.4076 51.2965 53.4821 51.2415 53.4027C51.3414 53.5615 51.5064 53.7004 51.6514 53.8195C51.6664 53.8344 51.6864 53.8492 51.7064 53.8641C51.7763 53.9237 51.6414 53.8195 51.7164 53.874C51.7514 53.8989 51.7913 53.9286 51.8263 53.9534C51.9113 54.008 51.9963 54.0626 52.0813 54.1073C52.1213 54.1271 52.1613 54.1469 52.2013 54.1668C52.2263 54.1767 52.2513 54.1966 52.2763 54.2015C52.1913 54.1817 52.2662 54.1966 52.2862 54.2065C52.3812 54.2412 52.4762 54.276 52.5712 54.3008C52.7612 54.3504 52.8961 54.5687 52.8311 54.7572C52.7761 54.9508 52.5762 55.0748 52.3762 55.0202Z" fill="#002921"/>
<path d="M59.1799 47.5525C59.4098 47.5178 59.6248 47.5178 59.8547 47.5724C60.0447 47.6171 60.2396 47.6964 60.4046 47.8056C60.7595 48.0388 61.0345 48.3812 61.1495 48.788C61.1994 48.9766 61.0845 49.1999 60.8895 49.2445C60.6896 49.2892 60.4846 49.185 60.4296 48.9865C60.4196 48.9518 60.4096 48.9121 60.3946 48.8774C60.3646 48.798 60.4196 48.922 60.3996 48.8922C60.3896 48.8774 60.3846 48.8625 60.3796 48.8476C60.3446 48.7781 60.2996 48.7186 60.2596 48.6541C60.3246 48.7533 60.2546 48.6491 60.2296 48.6243C60.2047 48.5945 60.1747 48.5697 60.1497 48.5449C60.1347 48.535 60.1247 48.5201 60.1097 48.5102C60.0997 48.5003 60.0397 48.4556 60.0897 48.4953C60.1397 48.53 60.0897 48.4953 60.0797 48.4854C60.0647 48.4754 60.0447 48.4606 60.0297 48.4506C59.9647 48.4109 59.8947 48.3812 59.8297 48.3415C59.8497 48.3564 59.9097 48.3712 59.8497 48.3514C59.8347 48.3464 59.8147 48.3415 59.7997 48.3316C59.7597 48.3167 59.7198 48.3067 59.6798 48.2968C59.6448 48.2869 59.6098 48.2819 59.5798 48.277C59.5048 48.2621 59.6748 48.2869 59.5948 48.277C59.5798 48.277 59.5598 48.272 59.5448 48.272C59.5048 48.272 59.4698 48.267 59.4298 48.272C59.3948 48.272 59.2549 48.2919 59.3848 48.272C59.2798 48.2869 59.1899 48.2869 59.0949 48.2323C59.0149 48.1877 58.9449 48.0983 58.9249 48.009C58.8749 47.8354 58.9699 47.5823 59.1799 47.5525Z" fill="#00D0AF"/>
<path d="M56.666 45.8955C56.0062 44.7791 54.9014 43.9703 53.6417 43.6577C53.1718 43.5436 53.3717 42.8241 53.8416 42.9383C55.2913 43.2955 56.561 44.2432 57.3159 45.5184C57.5608 45.9302 56.911 46.3073 56.666 45.8955Z" fill="#00D0AF"/>
<path d="M47.1122 55.4321C45.7975 54.2263 44.7227 52.7676 43.9778 51.155C43.8929 50.9714 43.9279 50.7531 44.1128 50.6439C44.2728 50.5497 44.5427 50.5943 44.6277 50.7779C45.3526 52.3409 46.3723 53.7401 47.6471 54.9061C47.997 55.2336 47.4671 55.7546 47.1122 55.4321Z" fill="#00D0AF"/>
<path d="M59.1053 50.9514C58.8703 50.8621 58.6354 50.7777 58.4004 50.6884C58.2854 50.6438 58.1655 50.5991 58.0505 50.5594C57.9955 50.5396 57.9405 50.5197 57.8905 50.4999C57.8655 50.4899 57.8355 50.48 57.8105 50.4701C57.7906 50.4651 57.7756 50.4552 57.7556 50.4503C57.7106 50.4354 57.7206 50.4354 57.7806 50.4453C57.8455 50.4304 57.9055 50.4106 57.9705 50.3957C57.9655 50.4006 57.9605 50.4006 57.9555 50.4056C58.0005 50.3609 58.0455 50.3163 58.0905 50.2716C58.1305 50.2171 58.1155 50.1972 58.1055 50.2419C58.0905 50.2964 58.1155 50.1873 58.1155 50.1823C58.1155 50.2022 58.1105 50.227 58.1105 50.2468C58.1055 50.2964 58.1055 50.351 58.1055 50.4006C58.1055 50.4602 58.1105 50.5148 58.1155 50.5743C58.1205 50.6388 58.1005 50.4751 58.1105 50.5346C58.1105 50.5495 58.1155 50.5644 58.1155 50.5793C58.1205 50.614 58.1305 50.6438 58.1355 50.6785C58.1405 50.7083 58.1505 50.738 58.1605 50.7678C58.1655 50.7877 58.2055 50.8869 58.1755 50.8125C58.1455 50.738 58.1905 50.8323 58.1955 50.8522C58.2055 50.867 58.2654 50.9514 58.2155 50.8869C58.1655 50.8224 58.2305 50.8968 58.2454 50.9117C58.2904 50.9564 58.1755 50.867 58.2105 50.8869C58.2205 50.8919 58.2305 50.9018 58.2405 50.9067C58.2555 50.9167 58.3054 50.9365 58.2355 50.9067C58.1655 50.877 58.2155 50.8968 58.2355 50.9018C58.2555 50.9067 58.3104 50.9167 58.2305 50.9067C58.1505 50.8968 58.2205 50.9018 58.2355 50.9018C58.4304 50.9067 58.6204 51.0705 58.6104 51.2739C58.6004 51.4724 58.4454 51.651 58.2355 51.646C57.7356 51.6361 57.4556 51.1945 57.3806 50.748C57.3506 50.5693 57.3307 50.3858 57.3506 50.2071C57.3556 50.1525 57.3606 50.093 57.3756 50.0384C57.4056 49.8846 57.5256 49.7606 57.6756 49.7159C57.7955 49.6762 57.9155 49.7209 58.0305 49.7606C58.1105 49.7903 58.1905 49.8201 58.2754 49.8499C58.6204 49.9789 58.9603 50.1029 59.3052 50.2319C59.4002 50.2667 59.4752 50.3163 59.5302 50.4006C59.5752 50.48 59.5952 50.5991 59.5702 50.6884C59.5052 50.867 59.3002 51.0258 59.1053 50.9514Z" fill="#002921"/>
<path d="M54.3008 46.868C53.646 46.7737 53.0461 46.347 52.7112 45.7863C52.9411 45.7565 53.1661 45.7267 53.396 45.697C53.386 45.7267 53.381 45.7565 53.376 45.7912C53.371 45.816 53.371 45.8756 53.376 45.7664C53.376 45.7813 53.371 45.7962 53.371 45.8061C53.366 45.8706 53.366 45.9351 53.366 45.9947C53.366 46.0244 53.371 46.0592 53.376 46.0889C53.381 46.1386 53.361 46.0046 53.371 46.0542C53.376 46.0691 53.376 46.0889 53.381 46.1038C53.391 46.1683 53.411 46.2279 53.431 46.2874C53.441 46.3122 53.451 46.342 53.461 46.3668C53.426 46.2576 53.456 46.3569 53.471 46.3817C53.501 46.4363 53.531 46.4909 53.566 46.5454C53.576 46.5603 53.586 46.5752 53.596 46.5901C53.626 46.6298 53.586 46.5702 53.576 46.5653C53.601 46.5802 53.621 46.6149 53.641 46.6347C53.661 46.6596 53.6859 46.6794 53.7109 46.7042C53.7359 46.7241 53.8259 46.7985 53.7309 46.729C53.8109 46.7886 53.8759 46.8481 53.9009 46.9523C53.9259 47.0416 53.9159 47.1607 53.8609 47.2401C53.8109 47.3195 53.7309 47.3889 53.636 47.4088C53.546 47.4286 53.426 47.4286 53.346 47.3691C53.1861 47.245 53.0561 47.121 52.9361 46.9573C52.8361 46.8183 52.7611 46.6645 52.7062 46.5057C52.5912 46.1832 52.5812 45.826 52.6662 45.4985C52.7462 45.1859 53.1911 45.1363 53.351 45.4092C53.386 45.4638 53.421 45.5183 53.461 45.5729C53.506 45.6325 53.421 45.5233 53.451 45.558C53.461 45.5729 53.476 45.5878 53.486 45.5977C53.506 45.6225 53.531 45.6473 53.551 45.6722C53.596 45.7218 53.646 45.7664 53.6959 45.8061C53.7109 45.8161 53.7259 45.8309 53.7409 45.8409C53.7809 45.8706 53.7309 45.8309 53.7159 45.821C53.7459 45.8409 53.7759 45.8657 53.8059 45.8855C53.8609 45.9202 53.9159 45.955 53.9759 45.9848C54.0059 45.9996 54.0359 46.0145 54.0659 46.0294C54.0909 46.0393 54.1458 46.0592 54.0459 46.0244C54.0609 46.0294 54.0709 46.0344 54.0859 46.0393C54.2158 46.0889 54.3508 46.1237 54.4908 46.1435C54.5758 46.1584 54.6707 46.2428 54.7157 46.3122C54.7607 46.3916 54.7807 46.5107 54.7557 46.6C54.7257 46.6893 54.6707 46.7786 54.5858 46.8233C54.4958 46.8828 54.4058 46.8828 54.3008 46.868Z" fill="#002921"/>
<path d="M54.1657 46.3569C54.1557 46.481 54.1307 46.6001 54.0557 46.7043C53.9857 46.8085 53.9007 46.8928 53.7907 46.9573C53.7358 46.9871 53.6808 47.0119 53.6208 47.0317C53.5608 47.0516 53.4958 47.0566 53.4358 47.0615C53.3108 47.0714 53.1859 47.0317 53.0759 46.9821C53.0309 46.9573 52.9959 46.9275 52.9709 46.8879C52.9359 46.8531 52.9159 46.8085 52.9059 46.7588C52.8909 46.7092 52.8859 46.6596 52.9009 46.61C52.9009 46.5604 52.9159 46.5157 52.9459 46.4711C52.9959 46.3917 53.0759 46.3222 53.1709 46.3024C53.2059 46.2974 53.2359 46.2924 53.2709 46.2875C53.3408 46.2875 53.4008 46.3024 53.4608 46.3371C53.4658 46.3421 53.4708 46.3421 53.4808 46.347C53.4508 46.3321 53.4208 46.3222 53.3908 46.3073C53.4158 46.3172 53.4458 46.3222 53.4708 46.3272C53.4358 46.3222 53.4058 46.3172 53.3708 46.3123C53.4008 46.3172 53.4308 46.3172 53.4608 46.3123C53.4258 46.3172 53.3958 46.3222 53.3608 46.3272C53.3958 46.3222 53.4258 46.3123 53.4608 46.3024C53.4308 46.3172 53.4008 46.3272 53.3708 46.3421C53.4058 46.3272 53.4358 46.3073 53.4658 46.2875C53.4408 46.3073 53.4158 46.3272 53.3908 46.347C53.4158 46.3272 53.4408 46.3024 53.4658 46.2726C53.4458 46.2974 53.4258 46.3222 53.4058 46.347C53.4258 46.3222 53.4408 46.2974 53.4508 46.2726C53.4358 46.3024 53.4258 46.3321 53.4108 46.3619C53.4208 46.3371 53.4308 46.3123 53.4308 46.2825C53.4258 46.3172 53.4208 46.347 53.4158 46.3817C53.4158 46.3768 53.4158 46.3669 53.4158 46.3619C53.4158 46.3123 53.4258 46.2627 53.4458 46.218C53.4608 46.1734 53.4858 46.1337 53.5258 46.0989C53.5608 46.0642 53.6008 46.0394 53.6458 46.0195C53.6908 45.9947 53.7408 45.9848 53.7907 45.9898C53.8857 45.9947 53.9907 46.0245 54.0557 46.0989C54.1207 46.1634 54.1707 46.2577 54.1657 46.3569Z" fill="#002921"/>
</svg>
