<svg width="60" height="60" viewBox="0 0 60 60" fill="none" xmlns="http://www.w3.org/2000/svg">
<path d="M3.75 23.2688V49.6501C3.75 53.3063 6.8625 56.2501 10.6875 56.2501H49.3125C53.1375 56.2501 56.25 53.3063 56.25 49.6501V17.2688C56.25 14.6251 54.6 12.2438 52.0312 11.2126L34.9688 4.29384C32.8687 3.45009 30.4688 3.61884 28.5375 4.78134L6.975 17.7001C4.96875 18.9188 3.75 21.0188 3.75 23.2688Z" fill="#B2E4F9"/>
<path d="M44.7496 13.7624C44.1496 13.7624 43.6059 13.9124 43.0996 14.1562C42.0684 12.8812 40.4934 12.0562 38.7309 12.0562C36.7246 12.0562 34.9809 13.1062 33.9871 14.6812C33.8371 14.6624 33.7059 14.6437 33.5559 14.6437C31.8871 14.6437 30.5371 15.9937 30.5371 17.6624H33.1246H36.5746H40.8871H44.3371H48.6496C48.6121 15.5062 46.8871 13.7624 44.7496 13.7624Z" fill="white"/>
<path d="M26.2871 56.2501H49.3121C49.8934 56.2501 50.4559 56.1563 50.9809 56.0438V35.3063L42.8809 25.5188L34.7809 35.3063V45.7876H26.2871V56.2501Z" fill="white"/>
<path d="M10.6871 56.2501H26.2871V47.6251V45.7688H34.7809V35.2876H12.4496V47.0626H7.34961V55.3876C8.34336 55.9314 9.46836 56.2501 10.6871 56.2501Z" fill="#3DB6FF"/>
<path d="M44.9059 23.0625L42.8809 25.5L50.9809 35.3063H55.0308L44.9059 23.0625Z" fill="#3DB6FF"/>
<path d="M9.73047 35.3063H34.7617L44.9055 23.0625H19.8742L9.73047 35.3063Z" fill="#1F3889"/>
<path d="M18.9932 36.4312H16.0869V41.9249H18.9932V36.4312Z" fill="#2E46FF"/>
<path d="M46.2744 36.4312H43.3682V47.0437H46.2744V36.4312Z" fill="#2E46FF"/>
<path d="M46.2744 48.4314H43.3682V55.2939H46.2744V48.4314Z" fill="#2E46FF"/>
<path d="M16.7625 50.5122H10.7812V53.8122H16.7625V50.5122Z" fill="#2E46FF"/>
<path d="M23.7371 50.5122H17.7559V53.8122H23.7371V50.5122Z" fill="#2E46FF"/>
<path d="M17.2871 22.6125C22.4648 22.6125 26.6621 18.4152 26.6621 13.2375C26.6621 8.05988 22.4648 3.86255 17.2871 3.86255C12.1094 3.86255 7.91211 8.05988 7.91211 13.2375C7.91211 18.4152 12.1094 22.6125 17.2871 22.6125Z" fill="#3948FF"/>
<path d="M17.8307 18.1876V19.2188H16.7244V18.1876C14.8119 17.9626 13.5557 16.7063 13.5557 14.9251H15.3744C15.3932 15.6563 15.8807 16.2376 16.7432 16.4251V13.8001C15.3369 13.4813 13.8557 12.9938 13.8557 10.8563C13.8557 9.43135 14.8869 8.23135 16.7432 8.04385V7.25635H17.8307V8.0251C19.4244 8.2126 20.7182 9.1876 20.7744 11.0251H18.8994C18.8807 10.3876 18.5244 9.88135 17.8307 9.73135V12.1126C19.3119 12.4501 20.9994 12.8813 20.9994 15.1313C20.9994 16.7626 19.8557 18.0001 17.8307 18.1876ZM16.7244 11.8688V9.73135C16.0494 9.88135 15.7119 10.3126 15.7119 10.8188C15.7119 11.4001 16.1244 11.6813 16.7244 11.8688ZM19.0682 15.3001C19.0682 14.5876 18.5432 14.2688 17.8119 14.0626V16.4626C18.5994 16.3313 19.0682 15.9188 19.0682 15.3001Z" fill="white"/>
</svg>
