<svg width="48" height="48" viewBox="0 0 48 48" fill="none" xmlns="http://www.w3.org/2000/svg">
<path d="M3 18.6142V39.7192C3 42.6442 5.49 44.9992 8.55 44.9992H39.45C42.51 44.9992 45 42.6442 45 39.7192V13.8142C45 11.6992 43.68 9.7942 41.625 8.9692L27.975 3.4342C26.295 2.7592 24.375 2.8942 22.83 3.8242L5.58 14.1592C3.975 15.1342 3 16.8142 3 18.6142Z" fill="#E1EFFF"/>
<path d="M21.0273 45.001H39.4473C39.9123 45.001 40.3623 44.926 40.7823 44.836V28.246L34.3023 20.416L27.8223 28.246V36.631H21.0273V45.001Z" fill="white"/>
<path d="M8.54891 45H21.0289V38.1V36.615H27.8239V28.23H9.95891V37.65H5.87891V44.31C6.67391 44.745 7.57391 45 8.54891 45Z" fill="#7B9994"/>
<path d="M35.9238 18.4502L34.3038 20.4002L40.7839 28.2452H44.0239L35.9238 18.4502Z" fill="#7B9994"/>
<path d="M7.78516 28.2452H27.8102L35.9252 18.4502H15.9002L7.78516 28.2452Z" fill="#5B6866"/>
<path d="M15.1922 29.1445H12.8672V33.5395H15.1922V29.1445Z" fill="#5B6866"/>
<path d="M37.0203 29.1445H34.6953V37.6345H37.0203V29.1445Z" fill="#5B6866"/>
<path d="M37.0203 38.7461H34.6953V44.2361H37.0203V38.7461Z" fill="#5B6866"/>
<path d="M13.41 40.4082H8.625V43.0482H13.41V40.4082Z" fill="#5B6866"/>
<path d="M18.9881 40.4082H14.2031V43.0482H18.9881V40.4082Z" fill="#5B6866"/>
<path d="M7.78503 28.2457H27.81L35.925 18.4507H15.9L7.78503 28.2457Z" fill="#1C292C"/>
<circle cx="13" cy="10" r="6" fill="white"/>
<path d="M12.3867 9.13717C12.2262 8.99126 12.1459 8.79484 12.1459 8.54791C12.1459 8.28977 12.229 8.09054 12.395 7.95024C12.561 7.80433 12.7878 7.72857 13.0756 7.72296V9.50755C12.7768 9.40093 12.5471 9.27746 12.3867 9.13717Z" fill="#70B3A4"/>
<path d="M14.0633 12.0666C13.8973 12.2293 13.6622 12.3107 13.3578 12.3107V10.4672C13.6677 10.5738 13.9056 10.7001 14.0716 10.846C14.2376 10.9863 14.3207 11.1855 14.3207 11.4437C14.3207 11.6962 14.2349 11.9038 14.0633 12.0666Z" fill="#70B3A4"/>
<path fill-rule="evenodd" clip-rule="evenodd" d="M13 17C16.866 17 20 13.866 20 10C20 6.13401 16.866 3 13 3C9.13401 3 6 6.13401 6 10C6 13.866 9.13401 17 13 17ZM14.4618 10.0042C14.2238 9.89197 13.9084 9.77412 13.5155 9.65066L13.3578 9.60015V7.74821C13.5958 7.79311 13.7839 7.89132 13.9222 8.04284C14.0661 8.18875 14.1546 8.36272 14.1878 8.56475H15.2088C15.159 8.12702 14.9736 7.76505 14.6527 7.47884C14.3317 7.19263 13.9001 7.02989 13.3578 6.9906V6.26667H13.0756V6.98219C12.6938 6.98219 12.3562 7.04953 12.0629 7.18422C11.7697 7.3189 11.54 7.5069 11.374 7.74821C11.2135 7.98953 11.1333 8.26732 11.1333 8.58159C11.1333 8.96881 11.2246 9.27746 11.4072 9.50755C11.5898 9.73764 11.8001 9.906 12.038 10.0126C12.276 10.1136 12.6218 10.2343 13.0756 10.3746V12.2855C12.8044 12.2406 12.5886 12.1283 12.4282 11.9487C12.2732 11.7692 12.1847 11.5699 12.1625 11.3511H11.1499C11.1886 11.8225 11.3823 12.2125 11.7309 12.5212C12.0795 12.8242 12.5278 12.9982 13.0756 13.0431V13.7333H13.3578V13.0599H13.3744C13.8005 13.0599 14.1602 12.9841 14.4535 12.8326C14.7467 12.6811 14.9653 12.4819 15.1092 12.2349C15.2586 11.9824 15.3333 11.7102 15.3333 11.4184C15.3333 11.0424 15.2475 10.7422 15.076 10.5177C14.91 10.2876 14.7052 10.1164 14.4618 10.0042Z" fill="#70B3A4"/>
</svg>
