<svg width="80" height="80" viewBox="0 0 80 80" fill="none" xmlns="http://www.w3.org/2000/svg">
<path d="M5 31.0255V66.2005C5 71.0755 9.15 75.0005 14.25 75.0005H65.75C70.85 75.0005 75 71.0755 75 66.2005V23.0255C75 19.5005 72.8 16.3255 69.375 14.9505L46.625 5.72545C43.825 4.60045 40.625 4.82545 38.05 6.37545L9.3 23.6005C6.625 25.2255 5 28.0255 5 31.0255Z" fill="#C0C7FF"/>
<path d="M38.475 34.2L57.5501 51.55C57.9001 51.875 58.1251 52.35 58.1251 52.825V53.6C58.1251 54.175 57.825 54.725 57.35 55.05L57.025 55.275C56.55 55.6 56.2501 56.15 56.2501 56.725V57.65C56.2501 58.225 55.95 58.775 55.475 59.1L54.2251 59.925C53.75 60.25 53.45 60.8 53.45 61.375C53.45 61.95 53.15 62.5 52.675 62.825L51.15 63.85C50.825 64.075 50.5751 64.375 50.4751 64.75L50 66.15C49.8251 66.675 49.425 67.075 48.9 67.25L47.55 67.7C47.1501 67.825 46.7001 67.825 46.3251 67.65L22.875 57.725C22.8 57.7 22.7 57.65 22.625 57.65L16.625 56.15C15.85 55.95 15.3 55.25 15.3 54.475V41.125C15.3 40.225 15.975 39.5 16.85 39.4L25.275 38.525C25.45 38.5 25.6 38.475 25.75 38.4L36.6 33.95C37.275 33.625 37.975 33.75 38.475 34.2Z" fill="#E1EFFF"/>
<path d="M61.4746 34.4003H54.5996C54.1496 34.4003 53.7246 34.2503 53.3496 34.0003L44.1996 27.6253C43.5996 27.2003 42.8496 27.1253 42.1496 27.3753L32.0496 31.2503C31.4746 31.4753 31.0246 31.9253 30.7996 32.5003L27.5496 40.9253C26.9996 42.3503 28.0496 43.8753 29.5746 43.9003C31.3996 43.9253 33.4496 43.7253 33.9496 42.7503C34.4496 41.7253 35.5496 39.8503 36.3996 38.3753C37.0746 37.2253 38.9496 35.8003 39.9996 36.6003L57.5496 51.5753C57.9246 51.8753 58.3996 52.0253 58.8996 52.0253H61.2746C62.4746 52.0253 63.4496 51.0753 63.4746 49.8753L63.6996 36.5753C63.6996 35.4003 62.6996 34.4003 61.4746 34.4003Z" fill="#71B5FF"/>
<path d="M23.4008 54.3498C23.4008 54.3498 24.3758 54.2748 24.7758 54.5748C25.6008 55.1748 26.7758 54.8248 27.1008 53.8498C27.4758 52.7748 28.4008 51.9998 29.5508 51.8248L29.6758 51.7998C30.5508 51.6748 31.4508 51.8998 32.1758 52.3998C32.6758 52.7498 32.9258 53.3998 32.7758 53.9998L32.1008 56.7248L33.9258 53.4498C34.4008 52.5748 35.2508 51.9498 36.2258 51.7248C36.5758 51.6498 37.2258 51.8498 37.2258 51.8498C38.5758 52.5248 39.3258 54.0498 39.0258 55.5248L38.6008 57.6498L39.3008 56.3248C39.8758 55.2748 40.9508 54.6248 42.1508 54.6248C42.6258 54.6248 43.0758 54.8498 43.3508 55.2248C44.1508 56.2748 44.3258 57.6498 43.8508 58.8748L43.2758 60.3248C43.2508 60.3998 43.2258 60.4748 43.2008 60.5248L41.8508 66.1748C41.6508 67.0748 40.7008 67.5748 39.8508 67.2498L23.5008 61.1248C23.0258 60.9498 22.6758 60.5498 22.5508 60.0748L21.8258 57.0998C21.5758 55.9498 22.2508 54.7248 23.4008 54.3498Z" fill="#71B5FF"/>
<path d="M68.3767 32.5254H61.8517V53.9254H68.3767V32.5254Z" fill="#F9FAFF"/>
<path d="M18.1501 37.2002H11.6251V58.6002H18.1501V37.2002Z" fill="#F9FAFF"/>
<path d="M39.875 67.3L44.875 67L41 64.875L39.875 67.3Z" fill="#71B5FF"/>
<path d="M74.9516 29.9258H68.2266V57.1508H74.9516V29.9258Z" fill="#1F3889"/>
<path d="M12.1001 34.2754H5.37512V61.5004H12.1001V34.2754Z" fill="#1F3889"/>
</svg>
