<svg width="223" height="266" viewBox="0 0 223 266" fill="none" xmlns="http://www.w3.org/2000/svg">
<path d="M0 84.4256V180.429C0 193.734 11.2744 204.446 25.1296 204.446H165.041C178.896 204.446 190.17 193.734 190.17 180.429V62.5912C190.17 52.9705 184.193 44.305 174.889 40.5522L113.083 15.3744C105.477 12.304 96.783 12.9181 89.7875 17.1485L11.6819 64.1606C4.41466 68.5957 0 76.2377 0 84.4256Z" fill="#3ECFAF"/>
<path d="M124.083 67.9876C124.061 68.005 124.039 68.0224 124.017 68.0355C123.917 68.1052 123.817 68.175 123.747 68.2752C123.499 68.6281 123.921 68.846 124.205 68.9332C124.571 69.0421 124.989 69.1467 125.316 68.9506C125.555 68.8068 125.682 68.5323 125.773 68.2708C125.93 67.8176 126.431 66.5365 125.913 66.1923C125.259 66.75 124.78 67.4647 124.083 67.9876Z" fill="#7FFFDE"/>
<path d="M125.556 77.7746C122.955 75.0076 125.029 66.6672 127.05 62.1527C127.138 61.961 127.26 61.7911 127.412 61.6516C130.353 58.9804 134.654 58.0087 138.628 58.1307C140.449 58.183 142.327 58.3747 143.927 59.2332C148.084 61.4643 146.837 66.2532 144.72 69.4865C143.077 71.9878 141.107 76.0883 138.171 77.304C135.29 78.4936 126.449 78.7289 125.556 77.7746Z" fill="#E2FFF5"/>
<path d="M140.985 67.0113C140.685 66.4056 140.345 65.8087 139.918 65.2857C138.567 63.6517 136.441 62.9109 134.432 62.2485C132.719 61.682 128.602 61.5644 128.959 64.5188C129.024 65.0853 129.321 65.6126 129.303 66.179C129.268 67.1072 128.436 67.7652 127.791 68.4319C126.636 69.6172 125.896 71.2208 125.852 72.8766C125.813 74.5325 126.523 75.5391 127.804 76.5936C128.82 77.4303 130.079 78.0273 131.399 78.3192C131.273 78.5023 131.142 78.6896 131.024 78.877C129.652 81.0427 126.467 86.7293 128.262 89.248C129.634 91.1784 131.665 89.5182 132.955 88.2719C135.107 86.2064 138.236 78.5153 138.693 76.9902C140.232 76.1274 141.473 74.8942 141.983 73.2165C142.593 71.1641 141.94 68.9374 140.985 67.0113Z" fill="#7FFFDE"/>
<path d="M126.471 54.3309C128.676 55.8822 131.525 56.2134 134.223 56.1175C136.92 56.0217 139.617 55.5598 142.306 55.7428C144.066 55.8561 145.957 56.3485 147.02 57.7516C147.922 58.9543 148.022 60.5884 147.835 62.083C147.351 66.0092 145.225 69.5301 142.942 72.7591C141.669 74.5457 140.183 76.402 138.066 76.9729C137.608 77.0992 137.059 77.1341 136.728 76.7898C136.532 76.5807 136.467 76.2844 136.44 76.0011C136.327 74.7374 136.863 73.4737 136.658 72.2231C136.24 69.6565 133.168 68.5845 131.469 66.6106C129.931 64.8152 130.401 62.6321 129.473 60.6407C128.405 58.3704 126.462 57.1285 126.471 54.3309Z" fill="#1F3889"/>
<path d="M139.943 62.1875C136.658 63.2769 134.584 65.6779 133.643 68.5016C135.028 69.5518 136.388 70.5802 136.654 72.2274C136.854 73.478 136.322 74.7417 136.436 76.0054C136.462 76.2886 138.044 77.0991 138.501 76.9727C140.619 76.3932 141.669 74.5456 142.941 72.759C144.972 69.896 146.867 66.7978 147.608 63.3946C147.569 63.3684 147.525 63.3335 147.482 63.3074C145.268 61.8955 142.44 61.3639 139.943 62.1875Z" fill="#19306B"/>
<path d="M131.76 70.0573C131.957 70.5889 132.628 70.8155 133.177 70.6892C133.73 70.5628 134.179 70.1706 134.567 69.761C135.333 68.9592 135.987 68.0528 136.497 67.0637C137.451 65.2073 135.795 63.7345 134.061 64.8326C133.02 65.4993 131.329 68.9069 131.76 70.0573Z" fill="#7FFFDE"/>
<path d="M134.715 65.7478C134.75 65.7913 134.776 65.8393 134.798 65.8872C134.824 65.9351 134.776 65.8218 134.789 65.861C134.794 65.8741 134.798 65.8872 134.802 65.9003C134.811 65.9264 134.82 65.9526 134.824 65.9787C134.828 66.0005 134.841 66.0354 134.841 66.0571C134.841 66.0441 134.833 65.97 134.837 66.0266C134.837 66.0397 134.837 66.0528 134.841 66.0659C134.841 66.092 134.841 66.1181 134.841 66.1486C134.841 66.1835 134.82 66.2663 134.846 66.1574C134.833 66.2097 134.824 66.2619 134.811 66.3142C134.802 66.3491 134.759 66.4188 134.811 66.3273C134.798 66.3491 134.789 66.3709 134.78 66.3927C134.767 66.4145 134.754 66.4406 134.737 66.4624C134.728 66.4755 134.719 66.4842 134.715 66.4973C134.759 66.4232 134.75 66.4537 134.733 66.4755C134.715 66.4973 134.698 66.5147 134.676 66.5321C134.667 66.5408 134.654 66.5495 134.645 66.5583C134.606 66.5975 134.711 66.5103 134.658 66.5452C134.589 66.5975 134.532 66.6541 134.51 66.7413C134.489 66.8197 134.497 66.9243 134.545 66.994C134.632 67.1291 134.846 67.2206 134.994 67.1117C135.251 66.9243 135.434 66.6498 135.482 66.3317C135.53 66.0179 135.486 65.6824 135.29 65.4209C135.238 65.3512 135.186 65.2946 135.094 65.2728C135.016 65.251 134.911 65.2597 134.841 65.3076C134.698 65.3861 134.602 65.5996 134.715 65.7478Z" fill="#00D0AF"/>
<path d="M131.642 77.753C132.305 76.9599 133.08 76.2758 133.956 75.7311C134.104 75.6396 134.165 75.4391 134.074 75.2823C133.987 75.1341 133.777 75.0731 133.625 75.1646C132.701 75.7354 131.873 76.4544 131.18 77.2867C131.067 77.4218 131.05 77.6179 131.18 77.7486C131.298 77.8707 131.529 77.8881 131.642 77.753Z" fill="#00D0AF"/>
<path d="M126.706 62.2006C126.71 62.1919 126.71 62.1832 126.714 62.1701C126.701 62.1963 126.693 62.2224 126.68 62.2486C126.684 62.2355 126.688 62.2268 126.697 62.2137C126.714 62.1789 126.727 62.205 126.675 62.2399C126.68 62.2355 126.693 62.2268 126.697 62.2224C126.658 62.2704 126.636 62.2616 126.675 62.2442C126.649 62.2573 126.623 62.266 126.597 62.2791C126.614 62.2704 126.632 62.266 126.649 62.266C126.619 62.2704 126.592 62.2747 126.562 62.2791C126.575 62.2791 126.592 62.2791 126.605 62.2791C126.575 62.2747 126.549 62.2704 126.518 62.266C126.54 62.2704 126.562 62.2747 126.579 62.2834C126.553 62.2704 126.527 62.2616 126.501 62.2486C126.51 62.2529 126.523 62.2573 126.531 62.2616C126.558 62.2791 126.549 62.2704 126.505 62.2399C126.518 62.2573 126.54 62.2704 126.553 62.2878C126.575 62.3139 126.566 62.3052 126.536 62.2616C126.544 62.2704 126.549 62.2791 126.558 62.2878C126.571 62.3052 126.584 62.327 126.597 62.3488C126.649 62.4359 126.697 62.5318 126.736 62.6277C126.723 62.6015 126.714 62.5754 126.701 62.5492C126.771 62.7192 126.819 62.8935 126.841 63.0722C126.836 63.0417 126.832 63.0155 126.828 62.985C126.832 63.0111 126.832 63.0373 126.836 63.0634C126.845 63.1506 126.867 63.229 126.932 63.2944C126.989 63.351 127.08 63.3946 127.163 63.3903C127.324 63.3815 127.507 63.2465 127.49 63.0634C127.455 62.6887 127.346 62.3227 127.146 62.0045C127.019 61.8041 126.849 61.6472 126.601 61.6254C126.348 61.6036 126.139 61.7997 126.07 62.0263C126.017 62.1876 126.131 62.388 126.296 62.4272C126.479 62.4708 126.649 62.3749 126.706 62.2006Z" fill="#00D0AF"/>
<path d="M126.91 66.301C127.146 66.1572 127.385 66.0222 127.629 65.9001C127.756 65.8348 127.821 65.6648 127.777 65.5297C127.782 65.5515 127.782 65.5777 127.777 65.5995C127.773 65.6256 127.773 65.63 127.777 65.6125C127.764 65.582 127.79 65.5297 127.795 65.4949C127.799 65.4382 127.79 65.3772 127.773 65.3249C127.747 65.2291 127.699 65.1376 127.655 65.0461C127.581 64.8892 127.507 64.7323 127.433 64.5798C127.359 64.4229 127.124 64.3706 126.984 64.4621C126.823 64.5667 126.788 64.7454 126.867 64.911C126.936 65.0591 127.006 65.2073 127.076 65.3554C127.093 65.3903 127.106 65.4252 127.124 65.46C127.128 65.4644 127.159 65.5297 127.133 65.4818C127.111 65.4339 127.133 65.4949 127.137 65.5036C127.159 65.5603 127.133 65.4513 127.133 65.4905C127.133 65.5341 127.146 65.4077 127.133 65.4775C127.119 65.5603 127.115 65.63 127.137 65.7128C127.185 65.5908 127.237 65.4687 127.285 65.3424C127.041 65.4687 126.801 65.6038 126.566 65.7433C126.418 65.8304 126.353 66.0396 126.448 66.1921C126.562 66.3315 126.758 66.3969 126.91 66.301Z" fill="#002921"/>
<path d="M124.732 72.7199C125.203 72.8071 125.691 72.7286 126.1 72.4759C126.244 72.3844 126.314 72.1796 126.218 72.0271C126.122 71.8833 125.926 71.8135 125.769 71.9094C125.725 71.9355 125.678 71.9617 125.63 71.9878C125.616 71.9966 125.603 72.0009 125.586 72.0096C125.547 72.0271 125.603 72.0053 125.612 72.0009C125.59 72.014 125.56 72.0227 125.534 72.0314C125.429 72.0663 125.325 72.0924 125.216 72.1055C125.246 72.1011 125.272 72.0968 125.303 72.0924C125.168 72.1098 125.028 72.1098 124.893 72.0924C124.924 72.0968 124.95 72.1011 124.98 72.1055C124.954 72.1011 124.932 72.0968 124.906 72.0924C124.819 72.075 124.732 72.0793 124.654 72.1273C124.584 72.1665 124.523 72.2449 124.505 72.3234C124.466 72.4759 124.553 72.685 124.732 72.7199Z" fill="#002921"/>
<path d="M216.302 164.089C214.715 163.392 212.916 162.987 211.722 161.732C210.694 160.647 210.28 159.078 209.212 158.028C208.694 157.523 207.835 157.165 207.269 157.618C207.081 157.767 206.959 157.98 206.846 158.189C206.219 159.366 205.778 160.799 206.184 162.028C206.28 162.32 206.467 162.573 206.698 162.778L210.406 166.05C210.681 166.957 210.602 167.776 211.474 169.083C212.563 170.717 213.217 170.39 213.4 172.6C213.421 172.839 213.7 173.044 213.935 172.996C214.127 172.957 214.232 172.757 214.293 172.574C214.45 172.107 214.458 171.676 214.393 171.253C214.315 170.726 214.123 170.216 213.975 169.689C214.537 170.181 215.064 170.63 215.195 170.8C216.197 172.116 217.556 173.153 219.086 173.781C219.373 173.898 219.77 173.964 219.927 173.698C219.957 173.65 219.639 173.262 219.217 172.774C219.648 173.07 220.114 173.31 220.62 173.467C220.724 173.497 220.846 173.528 220.942 173.476C221.112 173.38 221.195 172.452 221.143 172.264C220.968 171.672 220.62 170.207 220.092 168.743C220.371 169.109 220.628 169.454 221.064 169.959C221.557 170.53 222.38 172.038 222.999 171.611C221.975 168.303 219.469 165.488 216.302 164.089Z" fill="#E2FFF5"/>
<path d="M220.338 169.471C219.797 168.865 219.27 168.251 218.603 167.763C217.492 166.952 216.176 166.438 214.825 166.203C213.47 165.968 211.967 165.959 210.921 165.066C210.743 164.913 210.564 164.73 210.329 164.704C209.976 164.669 209.714 165.018 209.645 165.375L210.411 166.05C210.686 166.957 210.608 167.776 211.479 169.083C212.568 170.717 213.222 170.391 213.405 172.6C213.427 172.84 213.706 173.044 213.941 172.996C214.133 172.957 214.237 172.757 214.298 172.574C214.455 172.107 214.464 171.676 214.398 171.253C214.32 170.726 214.128 170.216 213.98 169.689C214.542 170.181 215.069 170.63 215.2 170.8C216.202 172.116 217.562 173.153 219.091 173.781C219.379 173.898 219.775 173.964 219.932 173.698C219.963 173.65 219.645 173.262 219.222 172.774C219.653 173.07 220.12 173.31 220.625 173.467C220.73 173.498 220.852 173.528 220.948 173.476C221.118 173.38 221.2 172.452 221.148 172.264C220.996 171.763 220.725 170.669 220.338 169.471Z" fill="#7FFFDE"/>
<path d="M51.636 53.7341C51.7493 53.9912 54.0151 55.4815 54.7297 56.2833C54.9781 56.5665 55.2221 56.8672 55.3224 57.2332C55.4574 57.7256 55.3093 58.2398 55.1698 58.7322C54.9084 59.6125 54.6513 60.4883 54.3899 61.3686C52.6469 67.2644 64.4947 70.1273 63.462 62.6802C63.1177 60.2007 61.5273 57.8128 59.719 56.1438C58.4815 55.0022 50.7297 51.7296 51.636 53.7341Z" fill="#E2FFF5"/>
<path d="M63.4575 62.6758C63.1307 60.327 61.684 58.0611 59.9977 56.4139C59.9803 56.4183 59.9628 56.4227 59.9454 56.4314C58.6992 56.8671 57.4835 57.5033 56.6556 58.5274C55.8407 59.534 55.4704 60.8412 55.3832 62.1354C55.3135 63.1856 55.2569 64.397 55.5488 65.4472C58.2765 68.053 64.2026 68.0356 63.4575 62.6758Z" fill="#7FFFDE"/>
<path d="M114.574 82.6466C112.67 83.4483 111.049 84.9517 110.213 86.8429C110.134 87.0259 110.056 87.2176 110.069 87.4137C110.099 87.9541 110.714 88.2373 111.241 88.3593C113.903 88.9825 116.827 88.3637 119.015 86.7252C120.095 85.9147 122.026 83.4178 120.326 82.2413C118.949 81.287 115.943 82.0714 114.574 82.6466Z" fill="#7FFFDE"/>
<path d="M159.831 119.934C158.014 116.191 156.04 112.526 153.892 108.962C151.826 105.532 149.63 102.199 147.425 98.8654C144.135 93.8891 140.58 88.673 135.172 86.1326C128.375 82.9385 120.44 84.7338 112.949 85.3177C94.9534 86.7252 77.0228 78.9905 65.8373 64.933C65.8591 64.1966 65.5192 63.4645 64.8613 63.0244L64.1815 62.5712C63.1662 61.8958 61.798 62.1703 61.1226 63.1813L58.9788 66.3971C58.3034 67.4125 58.5779 68.7807 59.5888 69.4562L60.2773 69.9137C60.469 70.0401 60.6738 70.1229 60.883 70.1839C63.5279 78.302 69.7633 82.5812 77.2668 88.0281C85.4238 93.9501 96.2476 96.6779 106.3 97.532C102.03 114.888 98.2302 133.055 102.126 150.498C102.396 151.697 102.705 152.904 103.368 153.941C104.148 155.152 105.35 156.024 106.562 156.812C114.148 161.732 123.189 164.377 132.231 164.32C133.207 164.316 134.296 164.22 134.915 163.475C135.259 163.057 135.386 162.512 135.495 161.985C137.695 150.999 133.12 139.295 136.039 128.479C139.538 115.546 155.19 125.542 154.51 126.575C148.811 135.255 142.911 143.796 137.015 152.341C143.926 145.975 150.833 139.609 157.744 133.242C159.234 131.865 160.789 130.405 161.43 128.475C162.367 125.656 161.129 122.61 159.831 119.934Z" fill="#1F3889"/>
<path d="M93.5892 249.594C93.7417 249.981 93.9204 250.369 94.2167 250.657C94.513 250.949 94.9531 251.123 95.3496 251.005C95.6415 250.918 95.8681 250.692 96.0555 250.456C97.1405 249.097 98.866 243.284 95.964 243.057C95.0969 242.987 92.9792 243.706 92.6567 244.421C92.099 245.659 93.1273 248.421 93.5892 249.594Z" fill="#19306B"/>
<path d="M129.32 250.901C129.472 251.289 129.651 251.677 129.947 251.964C130.243 252.256 130.684 252.43 131.08 252.313C131.372 252.226 131.599 251.999 131.786 251.764C132.871 250.404 134.596 244.591 131.694 244.365C130.827 244.295 128.71 245.014 128.387 245.728C127.829 246.966 128.858 249.729 129.32 250.901Z" fill="#19306B"/>
<path d="M170.27 73.6524C170.248 73.6698 170.227 73.6872 170.205 73.7003C170.105 73.77 170.004 73.8398 169.935 73.94C169.686 74.2929 170.109 74.5108 170.392 74.598C170.758 74.7069 171.176 74.8115 171.503 74.6154C171.743 74.4716 171.869 74.1971 171.961 73.9356C172.118 73.4824 172.619 72.2013 172.1 71.8571C171.447 72.4148 170.967 73.1295 170.27 73.6524Z" fill="#7FFFDE"/>
<path d="M119.511 177.768C124.844 197.499 127.285 218.01 126.74 238.438C126.614 243.149 126.356 248.029 128.139 252.4C132.213 247.994 133.089 241.589 133.646 235.619C135.481 215.923 136.121 163.157 133.494 160.582C132.13 159.244 115.55 157.984 108.857 156.281C107.363 155.897 105.685 155.562 104.36 156.359C103.572 156.838 103.057 157.636 102.578 158.425C94.4211 171.828 88.9918 187.917 85.0048 203.094C84.2902 205.809 83.7891 211.391 83.7891 211.391C83.7891 211.391 84.9394 216.332 85.8806 218.698C89.9286 228.83 93.9767 238.966 98.0247 249.097C98.1249 249.354 98.2338 249.615 98.4343 249.798C99.4583 250.718 100.578 248.757 100.578 247.384C100.539 238.011 100.469 228.455 97.5061 219.561C96.0943 215.339 93.7152 212.702 94.4952 208.323" fill="#3DB6FF"/>
<path d="M131.742 239.881C133.651 225.313 131.084 210.079 135.206 196.048C135.328 183.293 135.128 171.284 134.466 165.018C134.322 164.848 134.178 164.7 133.995 164.573C133.572 164.273 133.067 164.129 132.561 163.989C128.967 162.996 116.613 158.368 112.971 157.575C111.315 157.213 108.936 179.088 98.0161 185.816C93.6848 188.488 93.772 197.015 91.4059 201.521C90.6259 203.007 88.5213 205.883 88.2729 207.539C87.9113 209.94 90.9702 210.92 90.6869 213.334C89.8721 220.219 92.2992 225.039 95.1576 229.549C97.8723 233.837 97.1141 239.654 98.5869 244.5C98.8353 245.319 99.4801 247.437 100.443 248.23C100.517 247.947 100.556 247.659 100.556 247.398C100.517 238.024 100.447 228.468 97.4845 219.574C96.0727 215.352 93.6935 212.716 94.4735 208.332L119.498 177.777C124.831 197.508 127.272 218.019 126.727 238.447C126.653 241.205 126.54 244.012 126.81 246.748C128.958 246.844 130.657 248.121 131.742 239.881Z" fill="#37A4DB"/>
<path d="M134.004 167.584C134.5 167.58 135.137 167.663 135.272 168.303C135.32 168.526 135.285 168.765 135.25 168.992C134.901 171.275 134.413 173.519 133.799 175.698C133.485 176.809 133.089 177.982 132.317 178.557C131.681 179.036 130.906 179.01 130.178 178.953C128.91 178.849 127.45 178.518 126.827 177.036C126.492 176.234 126.483 175.262 126.526 174.343C126.614 172.552 126.849 167.619 128.091 166.508C129.285 165.44 132.461 167.589 134.004 167.584Z" fill="#3DB6FF"/>
<path d="M160.929 128.118C160.951 126.697 160.066 125.433 159.195 124.314C155.656 119.769 151.273 116.191 147.495 111.925C144.911 109.001 140.288 107.018 137.233 110.91C136.854 111.389 136.54 111.938 136.018 112.256C134.95 112.901 133.577 112.282 132.536 111.589C131.163 110.674 129.887 109.62 128.732 108.443C127.865 107.563 126.95 106.552 125.725 106.387C125.072 106.299 124.414 106.469 123.795 106.696C120.971 107.737 118.732 109.955 116.923 112.369C113.83 116.496 111.769 121.285 109.69 126.004C109.032 127.495 108.339 129.037 107.141 130.144C106.339 130.889 105.346 131.408 104.566 132.175C103.35 133.364 102.758 135.064 102.483 136.741C101.947 140.027 102.505 143.391 103.089 146.672C103.716 150.167 104.44 153.797 106.396 156.716C106.457 156.756 106.509 156.791 106.57 156.83C114.157 161.749 123.198 164.394 132.24 164.338C133.207 164.333 134.305 164.238 134.924 163.492C135.268 163.074 135.394 162.529 135.503 162.002C137.704 151.017 133.124 139.312 136.048 128.497C139.543 115.564 155.194 125.56 154.519 126.593C149.02 134.968 143.329 143.225 137.634 151.466C137.743 151.444 137.856 151.439 137.983 151.474C144.571 145.404 151.16 139.334 157.748 133.264C158.166 132.872 158.589 132.484 158.998 132.074C159.046 132.009 159.099 131.948 159.147 131.878C160.001 130.754 160.907 129.53 160.929 128.118Z" fill="#19306B"/>
<path d="M182.868 78.5984C180.589 79.6225 178.746 81.4701 177.417 83.5791C176.044 85.7448 172.859 91.4315 174.654 93.9502C176.027 95.8806 178.057 94.2203 179.347 92.9741C181.5 90.9086 183.112 88.2417 184.271 85.5183C185.025 83.7404 187.818 76.3891 182.868 78.5984Z" fill="#7FFFDE"/>
<path d="M174.336 82.6857C173.038 82.5158 171.094 82.5114 170.772 81.239C169.665 72.9989 170.95 63.19 185.021 62.8326C186.842 62.8849 188.72 63.0767 190.319 63.9351C194.476 66.1662 193.23 70.9552 191.112 74.1885C189.474 76.6897 187.5 80.7902 184.563 82.0059C181.683 83.1999 177.312 83.0648 174.336 82.6857Z" fill="#E2FFF5"/>
<path d="M191.966 64.4536C191.731 64.1485 191.43 63.9045 191.116 63.6823C189.495 62.5449 187.465 62.0612 185.487 62.1571C183.508 62.253 181.582 62.9023 179.844 63.8522C178.31 64.6889 176.885 65.8088 175.787 67.164C175.556 66.994 175.308 66.8328 175.024 66.7979C174.763 66.7631 174.502 66.8415 174.253 66.9287C173.717 67.116 172.763 67.3601 172.676 68.005C172.593 68.6237 173.399 69.4255 173.8 69.7959C173.905 69.8918 174.014 69.9877 174.127 70.0792C174.066 70.2491 174.009 70.4234 173.961 70.6021C173.617 71.8091 173.539 73.0728 173.46 74.3278C173.364 75.8268 173.273 77.3302 173.177 78.8292C173.103 79.9926 172.972 81.3086 173.059 82.4634C173.155 83.7358 174.445 84.1062 175.534 84.3066C177.059 84.5899 178.624 84.8557 180.144 84.5768C182.567 84.1367 184.537 82.398 186.214 80.5984C187.957 78.729 189.552 76.694 190.724 74.4193C191.896 72.149 192.646 69.6216 192.637 67.0637C192.641 66.1486 192.524 65.1813 191.966 64.4536Z" fill="#7FFFDE"/>
<path d="M125.367 252.213C125.284 253.568 124.661 257.442 126.108 258.326C126.6 258.627 127.202 258.692 127.781 258.727C129.528 258.841 131.289 258.784 133.023 258.566C135.921 258.2 134.417 256.409 133.568 254.535C132.317 251.781 130.979 249.502 128.862 247.337C126.382 244.801 125.585 248.683 125.367 252.213Z" fill="#1F3889"/>
<path d="M86.3508 254.069C85.6536 254.091 84.9172 254.047 84.2854 254.352C83.6536 254.657 83.2047 255.468 83.5533 256.073C83.7233 256.357 84.0152 256.531 84.3072 256.683C89.231 259.25 95.083 258.997 100.63 258.675C101.183 258.64 101.767 258.601 102.212 258.278C102.791 257.86 102.983 257.102 103.088 256.405C103.419 254.078 101.009 241.358 96.9741 245.149C95.6015 246.439 95.3052 248.94 94.0895 250.439C92.2638 252.679 89.2136 253.99 86.3508 254.069Z" fill="#1F3889"/>
<path d="M148.187 89.1522C151.494 88.8907 154.863 88.3112 158.327 87.5922C165.93 86.006 170.828 87.3046 177.682 90.5292C181.042 92.1153 189.948 95.4315 191.304 99.4099C196.432 114.435 191.7 129.211 205.727 152.882C206.668 154.477 207.857 155.901 209.06 157.305C211.09 159.671 212.934 167.645 207.535 164.625C205.94 163.736 204.663 162.381 203.77 160.795C195.325 145.87 188.166 134.223 185.255 117.555C183.643 124.958 172.218 141.548 172.179 145.452C172.087 155.732 175.382 188.222 176.336 194.096C177.652 202.188 180.746 209.892 182.353 217.936C184.218 227.239 184.07 236.804 183.879 246.291C183.852 247.62 183.796 249.045 182.754 250.034C182.319 250.443 181.7 250.666 181.107 250.557C179.996 250.343 179.695 249.319 179.46 248.404C176.602 237.131 173.739 225.858 170.88 214.585C168.636 205.726 164.937 188.435 158.362 182.09C152.937 186.448 148.924 201.726 150.292 208.31C153.651 224.446 154.549 237.266 156.462 251.141C152.043 249.855 150.261 244.674 149.141 240.207C147.394 233.261 140.169 213.156 139.533 206.292C138.335 193.547 134.853 165.771 139.533 153.858C146.928 135.033 153.486 119.89 157.451 99.3271C144.597 101.336 128.849 95.2615 119.969 85.7533C117.89 83.5266 117.528 81.862 121.058 81.6136C123.55 81.4393 126.034 84.032 128.069 85.1694C134.714 88.8777 141.315 89.6969 148.187 89.1522Z" fill="#19306B"/>
<path d="M156.462 251.141C156.039 248.077 155.664 245.066 155.307 242.055C155.155 241.985 154.993 241.929 154.828 241.89C153.669 241.606 152.418 242.173 151.647 243.084C151.194 243.62 150.854 244.225 150.614 244.861C151.799 247.764 153.56 250.295 156.462 251.141Z" fill="#7FFFDE"/>
<path d="M183.936 243.062C183.822 243.079 183.718 243.144 183.618 243.205C182.868 243.667 182.036 243.985 181.173 244.151C180.533 244.277 178.951 243.929 178.476 244.186C178.45 244.199 178.428 244.225 178.406 244.242C178.759 245.632 179.112 247.023 179.465 248.408C179.7 249.323 180.005 250.343 181.112 250.561C181.705 250.67 182.324 250.448 182.759 250.038C183.801 249.049 183.853 247.624 183.883 246.295C183.897 245.219 183.918 244.142 183.936 243.062Z" fill="#7FFFDE"/>
<path d="M187.142 255.829C187.722 256.792 188.293 258.135 187.478 258.91C187.203 259.172 186.824 259.294 186.454 259.381C184.04 259.974 181.417 259.677 179.19 258.562C178.78 258.361 178.371 258.113 178.149 257.716C177.878 257.237 177.935 256.649 178 256.104C178.175 254.644 178.349 253.184 178.523 251.729C178.785 249.502 179.922 242.565 182.667 246.487C184.541 249.162 185.417 252.953 187.142 255.829Z" fill="#3DB6FF"/>
<path d="M147.495 260.052C147.495 260.187 147.508 260.335 147.604 260.435C147.686 260.518 147.804 260.549 147.922 260.57C149.251 260.806 152.649 260.936 153.961 260.592C155.782 260.113 155.599 259.132 157.133 258.043C158.667 256.954 159.848 255.18 159.721 253.302C159.674 252.583 159.447 251.89 159.216 251.206C158.475 248.992 155.734 240.155 153.246 245.707C152.331 247.751 152.122 250.025 151.103 252.095C149.882 254.553 147.455 257.176 147.495 260.052Z" fill="#3DB6FF"/>
<path d="M209.065 157.313C207.862 155.91 206.672 154.481 205.731 152.89C191.7 129.22 196.433 114.452 191.308 99.4187C190.711 97.6582 188.633 96.0285 186.21 94.621C184.467 92.8867 182.376 91.501 180.079 90.6295C178.646 90.0848 177.142 89.7493 175.622 89.6011C169.791 87.0737 165.151 86.1717 158.336 87.5966C154.872 88.3243 151.503 88.8995 148.196 89.1566C141.325 89.7013 134.723 88.8734 128.074 85.1782C126.034 84.0408 123.564 81.4481 121.063 81.6224C117.533 81.8708 117.89 83.5397 119.973 85.7621C128.841 95.2529 144.536 101.319 157.386 99.349C156.013 101.34 154.798 103.471 153.625 105.567C149.442 113.075 145.416 120.666 141.477 128.301C139.29 132.528 137.12 136.789 135.66 141.317C133.355 148.45 132.862 156.019 132.562 163.51C131.93 179.411 132.087 195.346 133.041 211.234C133.303 215.666 133.895 220.611 137.329 223.409C139.05 224.808 160.728 239.584 185.853 227.684C189.156 226.119 192.602 224.572 194.925 221.749C195.448 221.108 195.94 220.376 196.001 219.544C196.053 218.777 195.744 218.045 195.443 217.339C187.944 199.887 182.999 181.341 180.807 162.468C180.31 158.198 179.953 153.897 180.227 149.609C180.572 144.175 181.914 138.868 183.19 133.578C184.171 129.499 185.112 125.403 186.023 121.311C189.295 136.035 195.988 147.034 203.788 160.804C204.69 162.39 205.966 163.75 207.553 164.634C212.934 167.654 211.099 159.68 209.065 157.313Z" fill="#FBF089"/>
<path d="M211.91 160.804C211.626 160.024 210.254 159.518 209.962 158.747C209.687 158.181 209.378 157.684 209.068 157.322C207.866 155.919 206.676 154.49 205.735 152.899C202.232 146.982 199.901 141.626 198.284 136.685C197.626 136.14 196.898 135.682 196.314 135.717C194.85 135.8 194.593 137.809 194.184 138.911C193.874 139.744 193.5 140.546 193.155 141.352C196.223 147.692 199.857 153.901 203.774 160.821C204.676 162.407 205.953 163.767 207.539 164.652C211.073 166.612 212.602 163.593 211.91 160.804Z" fill="#FFAE00"/>
<path d="M171.569 90.8866C173.255 93.2049 176.062 95.0263 178.637 96.1985C181.735 97.6017 185.199 98.2335 188.594 97.8718C188.794 97.85 189.012 97.8195 189.173 97.6888C189.461 97.4622 189.421 97.0918 189.26 96.7345C188.393 95.9894 187.343 95.2747 186.21 94.6167C184.467 92.8824 182.376 91.4967 180.079 90.6252C178.646 90.0805 177.142 89.745 175.622 89.5968C173.948 88.8691 172.367 88.2808 170.807 87.8407C170.423 88.5684 170.737 89.7362 171.569 90.8866Z" fill="#FFAE00"/>
<path d="M156.807 102.748C158.24 102.621 159.704 101.933 160.388 100.665C161.073 99.4012 160.676 97.5449 159.364 96.9522C158.606 96.608 157.73 96.73 156.903 96.8259C152.78 97.3226 148.593 97.1963 144.506 96.5034C137.29 95.2789 130.366 92.294 124.558 87.8362C123.73 87.1956 121.812 84.8251 120.693 85.4177C120.396 85.579 120.27 85.8012 120.257 86.0583C129.172 95.3748 144.671 101.297 157.377 99.3402C156.624 100.43 155.926 101.567 155.247 102.713C155.765 102.778 156.284 102.791 156.807 102.748Z" fill="#FFAE00"/>
<path d="M185.844 227.68C189.147 226.115 192.594 224.568 194.916 221.744C195.439 221.104 195.932 220.372 195.993 219.54C196.045 218.773 195.735 218.041 195.435 217.335C191.369 207.87 188.062 198.087 185.526 188.104C180.611 181.232 175.696 174.36 170.785 167.488C168.885 164.835 166.964 162.15 164.497 160.015C162.031 157.88 158.924 156.307 155.66 156.294C151.922 156.276 148.401 158.32 145.861 161.065C143.32 163.811 141.63 167.218 140.083 170.626C137.037 177.337 134.423 184.248 132.266 191.294C132.388 197.943 132.636 204.593 133.037 211.23C133.298 215.661 133.891 220.607 137.325 223.405C139.041 224.799 160.719 239.576 185.844 227.68Z" fill="#FFAE00"/>
<path d="M118.309 165.732C118.836 165.732 119.751 165.737 119.712 166.469C119.668 167.34 119.324 168.286 119.102 169.127C118.675 170.735 118.178 172.347 117.537 173.885C117.272 174.526 116.945 175.179 116.444 175.667C115.803 176.291 114.962 176.465 114.091 176.478C112.775 176.491 111.25 176.391 110.073 175.755C108.631 174.975 108.5 173.493 108.596 172.007C108.653 171.109 108.727 170.212 108.844 169.323C108.988 168.229 109.184 167.114 109.576 166.076C109.882 165.262 110.326 164.482 111.263 164.373C112.474 164.238 113.768 164.691 114.914 165.013C116.012 165.323 117.154 165.719 118.309 165.732C118.731 165.737 118.731 165.083 118.309 165.079C117.054 165.066 115.799 164.577 114.596 164.246C113.455 163.933 112.16 163.54 110.967 163.754C109.964 163.937 109.411 164.752 109.045 165.641C108.561 166.804 108.352 168.077 108.191 169.319C108.038 170.495 107.899 171.715 107.908 172.905C107.916 174.46 108.557 175.785 110.008 176.447C111.376 177.075 113.163 177.245 114.649 177.101C116.344 176.94 117.381 175.864 118.039 174.365C118.901 172.399 119.511 170.286 120.008 168.203C120.182 167.475 120.657 166.342 120.134 165.667C119.721 165.131 118.932 165.074 118.309 165.079C117.886 165.079 117.886 165.732 118.309 165.732Z" fill="#002921"/>
<path d="M172.663 71.9661C172.899 71.8223 173.138 71.6872 173.382 71.5652C173.509 71.4998 173.574 71.3299 173.53 71.1948C173.535 71.2166 173.535 71.2427 173.53 71.2645C173.526 71.2907 173.526 71.295 173.53 71.2776C173.517 71.2471 173.543 71.1948 173.548 71.1599C173.552 71.1033 173.543 71.0423 173.526 70.99C173.5 70.8941 173.452 70.8026 173.408 70.7111C173.334 70.5542 173.26 70.3974 173.186 70.2448C173.112 70.088 172.877 70.0357 172.737 70.1272C172.576 70.2318 172.541 70.4104 172.62 70.576C172.689 70.7242 172.759 70.8723 172.829 71.0205C172.846 71.0553 172.859 71.0902 172.877 71.1251C172.881 71.1294 172.912 71.1948 172.885 71.1469C172.864 71.0989 172.885 71.1599 172.89 71.1686C172.912 71.2253 172.885 71.1163 172.885 71.1556C172.885 71.1991 172.899 71.0728 172.885 71.1425C172.872 71.2253 172.868 71.295 172.89 71.3778C172.938 71.2558 172.99 71.1338 173.038 71.0074C172.794 71.1338 172.554 71.2689 172.319 71.4083C172.171 71.4955 172.105 71.7046 172.201 71.8571C172.315 71.9966 172.511 72.0619 172.663 71.9661Z" fill="#002921"/>
<path d="M94.8181 206.794C94.073 208.031 92.7309 208.89 91.2755 208.968C89.7853 209.051 88.3038 208.336 87.428 207.134C87.184 206.798 86.6175 207.121 86.8615 207.465C87.8681 208.855 89.5413 209.722 91.2712 209.626C92.9575 209.53 94.5087 208.567 95.3759 207.125C95.6024 206.763 95.036 206.432 94.8181 206.794Z" fill="#002921"/>
<path d="M93.5629 211.121C92.0465 211.739 90.3733 211.805 88.8177 211.295C88.4168 211.164 88.2469 211.796 88.6434 211.927C90.2992 212.467 92.1249 212.41 93.7372 211.752C93.9028 211.687 94.0161 211.535 93.9638 211.352C93.9202 211.195 93.7241 211.055 93.5629 211.121Z" fill="#002921"/>
<path d="M196.846 69.8659C195.97 67.0945 194.589 63.4516 191.748 62.4537C191.626 62.2401 191.491 62.0223 191.334 61.8044C188.214 57.534 178.789 57.5427 174.545 59.3031C171.129 60.7237 168.301 63.8089 167.756 67.4649C167.717 67.7481 167.769 68.1447 168.057 68.1621C168.152 68.1708 168.24 68.1229 168.327 68.088C168.523 68.0009 168.719 67.9399 168.919 67.8963C169.203 67.3472 169.481 66.8505 169.612 66.5977C169.721 66.3842 169.895 66.1358 169.969 66.2404C170 66.284 169.996 66.3842 169.987 66.4801C169.943 66.8417 169.813 67.2339 169.673 67.6087C169.656 67.6566 169.625 67.7307 169.595 67.8178C169.734 67.8135 169.869 67.8222 170.009 67.8309C170.279 67.308 170.54 66.8417 170.671 66.5977C170.78 66.3842 170.954 66.1358 171.028 66.2404C171.059 66.284 171.054 66.3842 171.046 66.4801C171.002 66.8417 170.871 67.2339 170.732 67.6087C170.706 67.6784 170.667 67.783 170.614 67.9181C171.542 68.1054 172.471 68.5238 173.333 68.9203C175.521 69.9269 177.782 70.8289 180.148 71.2255C178.828 72.4587 177.408 73.5829 175.774 74.5459C174.858 75.0819 165.643 81.8274 167.529 83.5487C172.954 88.4902 180.296 91.1613 187.621 91.157C187.66 90.7604 187.695 90.4249 187.713 90.2157C187.735 89.9194 187.826 89.549 187.992 89.6275C188.066 89.6623 188.118 89.7756 188.162 89.8889C188.305 90.268 188.366 90.7125 188.406 91.1483C189.6 91.1178 190.789 91.0175 191.966 90.8389C192.122 90.1068 192.301 89.4445 192.38 89.1046C192.445 88.8126 192.597 88.4509 192.807 88.5424C192.894 88.5817 192.955 88.6993 192.998 88.817C193.16 89.2527 193.173 89.7626 193.168 90.255C193.168 90.3378 193.164 90.4685 193.16 90.6297C193.652 90.5339 194.144 90.4249 194.632 90.3029C194.589 89.5185 194.602 88.7821 194.584 88.4161C194.567 88.1067 194.663 87.6796 195.003 87.6404C195.146 87.623 195.282 87.6971 195.386 87.7799C195.783 88.0893 195.996 88.5555 196.175 89.0131C196.231 89.1525 196.327 89.4357 196.428 89.7844C196.519 89.7538 196.611 89.7277 196.698 89.6972C197.295 89.5011 197.922 89.2484 198.266 88.7211C198.554 88.2723 198.576 87.7014 198.589 87.1611C198.706 81.7446 198.519 75.1168 196.846 69.8659Z" fill="#1F3889"/>
<path d="M170.872 77.618C170.985 77.6049 171.094 77.5875 171.198 77.5482C171.303 77.509 171.403 77.4655 171.499 77.4044C171.686 77.2824 171.843 77.1256 171.956 76.9338C172.044 76.7857 171.996 76.5678 171.839 76.485C171.682 76.4022 171.486 76.4458 171.39 76.6027C171.368 76.6375 171.346 76.6724 171.32 76.7029C171.338 76.6811 171.355 76.6593 171.373 76.6375C171.312 76.716 171.246 76.7813 171.168 76.8423C171.19 76.8249 171.211 76.8075 171.233 76.79C171.155 76.851 171.072 76.899 170.98 76.9338C171.007 76.9208 171.033 76.912 171.059 76.899C170.972 76.9338 170.885 76.96 170.793 76.9731C170.824 76.9687 170.85 76.9643 170.88 76.96C170.876 76.96 170.872 76.96 170.867 76.96C170.824 76.96 170.78 76.9687 170.741 76.9861C170.702 76.9992 170.667 77.021 170.636 77.0558C170.58 77.1125 170.536 77.204 170.54 77.2868C170.545 77.3696 170.571 77.4611 170.636 77.5177C170.702 77.5744 170.789 77.6267 170.872 77.618Z" fill="#002921"/>
<path d="M103.18 255.89C102.84 255.842 102.444 255.899 102.113 255.977C98.5353 256.853 94.7793 256.975 91.1495 256.383C89.3325 256.086 87.546 255.607 85.8248 254.949C85.4719 254.814 84.9751 254.596 84.4653 254.439C84.4217 254.457 84.3782 254.474 84.3346 254.496C83.7071 254.81 83.2714 255.629 83.6287 256.23C83.803 256.509 84.0993 256.679 84.3912 256.832C89.3543 259.32 95.2063 258.971 100.745 258.557C101.294 258.514 101.877 258.466 102.318 258.134C102.888 257.707 103.071 256.945 103.163 256.243C103.172 256.147 103.18 256.025 103.18 255.89Z" fill="#3DB6FF"/>
<path d="M134.17 255.738C133.228 255.904 132.309 256.213 131.372 256.409C129.62 256.775 127.803 256.714 126.069 256.278C125.808 256.213 125.494 256.061 125.185 255.973C125.25 257.019 125.49 257.947 126.108 258.326C126.601 258.627 127.202 258.692 127.782 258.727C129.529 258.841 131.289 258.784 133.024 258.566C135.289 258.278 134.867 257.124 134.17 255.738Z" fill="#3DB6FF"/>
<path d="M157.255 252.326C155.473 252.927 149.338 257.285 147.856 260.557C147.878 260.562 147.9 260.57 147.917 260.575C149.246 260.81 152.645 260.941 153.957 260.596C155.778 260.117 155.595 259.137 157.129 258.047C158.663 256.958 159.844 255.184 159.717 253.306C159.691 252.927 159.617 252.552 159.517 252.186C158.828 251.964 157.97 252.082 157.255 252.326Z" fill="#37A4DB"/>
<path d="M187.643 258.714C186.763 258.152 185.865 257.612 184.942 257.119C184.445 256.853 183.931 256.596 183.377 256.487C182.807 256.374 182.223 256.426 181.643 256.487C181.077 256.548 178.998 256.662 177.987 257.259C178.018 257.42 178.066 257.572 178.149 257.716C178.371 258.113 178.78 258.361 179.19 258.566C181.417 259.682 184.035 259.982 186.449 259.39C186.82 259.302 187.194 259.18 187.473 258.919C187.543 258.849 187.595 258.784 187.643 258.714Z" fill="#37A4DB"/>
<path d="M96.1515 246.696C96.6526 247.232 97.1494 247.772 97.6505 248.308C98.0775 248.77 98.4871 249.275 99.01 249.628C99.4588 249.933 100.021 250.082 100.544 249.886C101.027 249.707 101.411 249.302 101.402 248.761C101.398 248.343 100.744 248.339 100.749 248.761C100.753 249.097 100.404 249.293 100.104 249.319C99.6549 249.363 99.2496 249.023 98.9533 248.731C98.1385 247.938 97.389 247.062 96.6178 246.23C96.3258 245.925 95.8683 246.391 96.1515 246.696Z" fill="#002921"/>
<path d="M126.025 247.541C125.607 248.583 125.846 249.825 126.513 250.709C126.857 251.162 127.297 251.52 127.829 251.733C128.16 251.868 128.544 251.942 128.892 251.838C129.223 251.738 129.463 251.489 129.646 251.206C130.09 250.531 130.395 249.738 130.578 248.953C130.674 248.544 130.042 248.369 129.947 248.779C129.807 249.372 129.602 249.942 129.315 250.478C129.197 250.701 129.071 250.975 128.866 251.132C128.639 251.306 128.326 251.228 128.086 251.136C127.267 250.823 126.705 250.021 126.53 249.184C126.426 248.692 126.474 248.186 126.661 247.72C126.727 247.554 126.591 247.363 126.435 247.319C126.243 247.258 126.09 247.376 126.025 247.541Z" fill="#002921"/>
<path d="M93.7933 249.886C93.0003 250.57 92.6996 251.777 93.0875 252.749C93.1528 252.914 93.3053 253.027 93.4883 252.975C93.6452 252.932 93.7846 252.74 93.7149 252.574C93.4012 251.79 93.606 250.901 94.2509 250.348C94.386 250.234 94.3685 250.003 94.2509 249.886C94.1245 249.755 93.9284 249.772 93.7933 249.886Z" fill="#002921"/>
<path d="M91.7681 251.751C91.2147 252.439 91.2147 253.415 91.7638 254.104C91.8683 254.239 92.1167 254.226 92.2257 254.104C92.3564 253.96 92.3389 253.786 92.2257 253.642C92.2431 253.664 92.2474 253.668 92.2257 253.642C92.2126 253.624 92.1995 253.603 92.1864 253.585C92.169 253.555 92.1472 253.524 92.1298 253.494C92.1211 253.472 92.108 253.454 92.0993 253.433C92.0819 253.402 92.0862 253.411 92.0993 253.437C92.0862 253.402 92.0731 253.372 92.0601 253.337C92.0339 253.263 92.0209 253.189 92.0034 253.114C91.9947 253.075 92.0078 253.171 92.0034 253.106C92.0034 253.088 91.9991 253.071 91.9991 253.053C91.9947 253.014 91.9947 252.971 91.9947 252.931C91.9947 252.897 91.9947 252.857 91.9991 252.823C91.9991 252.805 92.0034 252.788 92.0034 252.77C92.0034 252.731 91.9947 252.827 92.0034 252.762C92.0165 252.687 92.0339 252.609 92.0557 252.539C92.0601 252.522 92.0688 252.504 92.0731 252.487C92.0775 252.478 92.0949 252.426 92.0819 252.461C92.0644 252.504 92.0949 252.435 92.0993 252.426C92.108 252.409 92.1167 252.395 92.1254 252.378C92.1429 252.348 92.1603 252.313 92.1821 252.282C92.1952 252.265 92.2082 252.243 92.2213 252.226C92.23 252.212 92.2692 252.165 92.23 252.217C92.3346 252.082 92.3694 251.881 92.23 251.755C92.1124 251.642 91.8814 251.607 91.7681 251.751Z" fill="#002921"/>
<path d="M153.381 245.859C153.769 246.805 154.445 247.611 155.342 248.116C155.826 248.391 156.388 248.6 156.95 248.517C157.46 248.443 157.904 248.108 158.057 247.611C158.183 247.21 157.551 247.036 157.425 247.437C157.32 247.772 156.946 247.898 156.623 247.881C156.209 247.859 155.8 247.646 155.46 247.423C154.819 247.009 154.296 246.391 154.009 245.685C153.943 245.523 153.791 245.406 153.608 245.458C153.455 245.497 153.312 245.693 153.381 245.859Z" fill="#002921"/>
<path d="M179.247 248.165C179.438 248.67 179.704 249.128 180.057 249.537C180.432 249.969 180.885 250.278 181.478 250.165C181.961 250.073 182.423 249.738 182.746 249.372C183.077 248.997 183.312 248.548 183.417 248.06C183.504 247.65 182.876 247.476 182.785 247.886C182.637 248.579 182.131 249.302 181.421 249.507C181.011 249.624 180.746 249.337 180.502 249.049C180.236 248.735 180.022 248.374 179.879 247.99C179.818 247.825 179.656 247.711 179.478 247.764C179.316 247.807 179.186 247.999 179.247 248.165Z" fill="#002921"/>
<path d="M59.8148 259.01C60.4335 259.333 61.122 259.394 61.8148 259.302C62.4989 259.211 63.183 258.967 63.8061 258.67C65.3138 257.951 64.2985 257.437 63.1961 257.263C62.2593 257.115 60.2941 256.914 59.5185 257.638C59.013 258.113 59.1568 258.666 59.8148 259.01Z" fill="#FBF089"/>
<path d="M64.0987 257.424C64.382 258.457 64.7567 259.572 65.6587 260.156C66.9921 251.624 67.2579 242.922 66.4387 234.32C66.2992 232.839 66.4779 230.128 65.0748 229.157C63.4843 228.058 62.6608 229.645 62.3296 231.048C61.4059 234.974 61.6063 239.536 61.8285 243.532C62.09 248.23 62.8482 252.897 64.0987 257.424Z" fill="#FFAE00"/>
<path d="M57.8585 260.805C57.6145 261.093 57.4532 261.489 57.5578 261.851C57.6537 262.187 57.95 262.426 58.2332 262.636C59.109 263.276 60.0459 263.843 61.0219 264.313C62.5993 265.076 64.2943 265.616 66.0242 265.895C69.911 266.518 70.081 264.239 67.3707 262.3C65.3619 260.875 59.95 258.343 57.8585 260.805Z" fill="#FBF089"/>
<path d="M80.5997 227.806C85.5366 236.695 89.589 246.805 87.8286 256.823C87.4278 259.093 86.6304 261.472 84.7828 262.849C82.0725 264.867 78.2293 264.021 75.092 262.758C72.5211 261.721 69.9677 260.413 68.155 258.309C66.0765 255.894 65.1963 252.687 64.5819 249.559C63.2573 242.769 62.9261 235.78 63.6102 228.891C63.9588 225.4 64.595 221.87 66.0024 218.642C67.0874 216.162 69.6322 211.395 72.7826 211.199C75.7587 211.011 75.7281 215.055 76.1029 217.151C76.8044 221.06 78.6955 224.376 80.5997 227.806Z" fill="#FBF089"/>
<path d="M66.0198 242.316C61.8018 244.151 61.5404 255.419 62.8302 258.452C63.7975 260.736 65.1221 262.971 67.1919 264.339C70.9393 266.814 81.1399 267.085 81.5495 260.875C81.9766 254.4 75.9067 248.587 71.6539 244.512C70.5907 243.497 69.4403 242.447 68.0024 242.142C67.266 241.989 66.6037 242.059 66.0198 242.316Z" fill="#FFAE00"/>
<path d="M65.1001 217.125C65.5707 217.604 66.0631 218.032 66.586 218.402C69.7015 220.594 73.7539 219.273 75.2964 215.857C78.9218 207.852 68.5643 205.421 64.416 201.39C63.4923 200.492 62.7079 199.403 61.5619 198.81C60.7558 198.388 59.6882 198.283 58.9954 198.88C57.3745 200.283 58.3287 204.083 58.7296 205.83C59.7362 210.179 61.697 213.639 65.1001 217.125Z" fill="#FFAE00"/>
<path d="M66.7128 211.29C67.9154 211.273 69.0091 212.11 69.6191 213.142C70.2292 214.18 70.4383 215.404 70.5821 216.598C70.983 219.945 70.9656 223.335 70.5342 226.677C70.4427 227.392 70.312 228.146 69.8414 228.69C66.8217 232.207 59.401 228.912 59.8978 224.424C60.2638 221.139 62.3859 211.347 66.7128 211.29Z" fill="#002921"/>
<path d="M81.5016 217.082C82.0681 218.602 82.4385 220.289 81.9766 221.849C81.8067 222.437 81.5016 223.012 81.0049 223.37C80.0288 224.071 78.5822 223.705 77.7238 222.864C76.8697 222.019 76.4688 220.829 76.142 219.67C75.7324 218.202 73.4012 209.321 75.3228 208.942C76.434 208.724 78.3251 211.534 78.8828 212.288C79.9809 213.748 80.8655 215.369 81.5016 217.082Z" fill="#002921"/>
<path d="M102.975 244.556C100.914 247.423 98.7048 250.217 96.0511 252.548C93.0358 255.197 89.8593 256.579 86.0684 257.694C84.6348 258.117 82.979 258.688 84.9136 259.782C86.2209 260.522 88.1294 259.62 89.3713 259.141C95.781 256.67 101.045 251.184 102.975 244.556Z" fill="#FBF089"/>
<path d="M61.0351 201.773C62.0504 201.59 62.6866 200.383 62.4469 199.076C62.2116 197.769 61.1964 196.858 60.1811 197.041C59.1658 197.224 58.5296 198.431 58.7693 199.738C59.0046 201.046 60.0199 201.956 61.0351 201.773Z" fill="#002921"/>
<path d="M64.8962 206.318C64.7394 205.612 63.9725 205.203 63.2884 205.303C62.5955 205.408 62.1816 206.109 62.2644 206.776C62.3167 207.186 62.5128 207.552 62.8657 207.774C63.0095 207.865 63.2317 207.809 63.3145 207.656C63.4017 207.495 63.3537 207.308 63.1969 207.207C63.1838 207.199 63.1751 207.19 63.162 207.186C63.1054 207.151 63.2056 207.225 63.1707 207.194C63.1489 207.172 63.1271 207.155 63.1054 207.133C63.0879 207.116 63.0705 207.094 63.0531 207.072C63.0139 207.029 63.0661 207.085 63.0661 207.09C63.0661 207.085 63.0356 207.046 63.0313 207.042C63.0182 207.02 63.0051 206.998 62.9921 206.972C62.9877 206.959 62.979 206.946 62.9746 206.937C62.9441 206.876 62.9921 206.994 62.979 206.95C62.9572 206.894 62.9398 206.837 62.9267 206.776C62.9224 206.758 62.9224 206.741 62.918 206.728C62.9136 206.697 62.9267 206.693 62.9224 206.754C62.9267 206.728 62.918 206.697 62.9136 206.671C62.9093 206.61 62.9136 206.549 62.918 206.488C62.9224 206.419 62.9049 206.549 62.9136 206.506C62.918 206.493 62.918 206.48 62.9224 206.467C62.9267 206.436 62.9354 206.406 62.9441 206.379C62.9529 206.353 62.9616 206.327 62.9703 206.301C62.9746 206.292 62.9834 206.275 62.9834 206.262C62.979 206.318 62.9659 206.305 62.9834 206.266C62.9964 206.244 63.0095 206.218 63.0226 206.196C63.0313 206.188 63.0879 206.105 63.0531 206.148C63.0182 206.192 63.0836 206.118 63.0923 206.105C63.101 206.096 63.1664 206.044 63.1664 206.035C63.1664 206.039 63.101 206.079 63.1489 206.048C63.162 206.039 63.1707 206.031 63.1838 206.026C63.2056 206.013 63.2317 206 63.2535 205.987C63.2535 205.987 63.2884 205.974 63.2884 205.97C63.2709 206 63.223 205.992 63.2753 205.978C63.3058 205.97 63.3407 205.957 63.3712 205.952C63.3842 205.948 63.3973 205.948 63.4104 205.944C63.4496 205.935 63.4496 205.957 63.3929 205.944C63.4147 205.948 63.4496 205.939 63.4757 205.939C63.5019 205.939 63.528 205.939 63.5585 205.939C63.5716 205.939 63.5847 205.939 63.5977 205.944C63.6588 205.948 63.6195 205.957 63.5934 205.939C63.6152 205.952 63.6631 205.952 63.6849 205.957C63.711 205.961 63.7372 205.97 63.7633 205.978C63.772 205.983 63.8418 206.013 63.8505 206.009C63.8461 206.009 63.7764 205.974 63.8287 206C63.8461 206.009 63.8679 206.018 63.8853 206.026C63.9158 206.044 63.9463 206.061 63.9725 206.079C63.9856 206.087 63.9943 206.092 64.0073 206.1C64.0117 206.105 64.0204 206.109 64.0248 206.114C64.0509 206.135 64.0466 206.131 64.0073 206.1C64.0073 206.109 64.0771 206.161 64.0858 206.166C64.1119 206.188 64.1337 206.214 64.1555 206.24C64.186 206.27 64.1424 206.244 64.1424 206.222C64.1424 206.231 64.1642 206.257 64.1729 206.262C64.1904 206.288 64.2078 206.318 64.2252 206.349C64.2296 206.358 64.2383 206.388 64.247 206.392C64.2296 206.384 64.2209 206.323 64.2383 206.379C64.2514 206.414 64.2601 206.449 64.2688 206.488C64.3036 206.654 64.5084 206.767 64.6697 206.715C64.844 206.667 64.9398 206.501 64.8962 206.318Z" fill="#002921"/>
<path d="M70.4392 203.551C70.2824 202.845 69.5155 202.436 68.8313 202.536C68.1385 202.641 67.7246 203.342 67.8074 204.009C67.8596 204.419 68.0557 204.785 68.4087 205.007C68.5525 205.098 68.7747 205.042 68.8575 204.889C68.9446 204.728 68.8967 204.541 68.7398 204.44C68.7268 204.432 68.718 204.423 68.705 204.419C68.6483 204.384 68.7486 204.458 68.7137 204.427C68.6919 204.405 68.6701 204.388 68.6483 204.366C68.6309 204.349 68.6135 204.327 68.596 204.305C68.5568 204.262 68.6091 204.318 68.6091 204.323C68.6091 204.318 68.5786 204.279 68.5743 204.275C68.5612 204.253 68.5481 204.231 68.535 204.205C68.5307 204.192 68.522 204.179 68.5176 204.17C68.4871 204.109 68.535 204.227 68.522 204.183C68.5002 204.127 68.4827 204.07 68.4697 204.009C68.4653 203.992 68.4653 203.974 68.461 203.961C68.4566 203.931 68.4697 203.926 68.4653 203.987C68.4697 203.961 68.461 203.931 68.4566 203.904C68.4522 203.843 68.4566 203.782 68.461 203.721C68.4653 203.652 68.4479 203.782 68.4566 203.739C68.461 203.726 68.461 203.713 68.4653 203.7C68.4697 203.669 68.4784 203.639 68.4871 203.612C68.4958 203.586 68.5045 203.56 68.5133 203.534C68.5176 203.525 68.5263 203.508 68.5263 203.495C68.522 203.551 68.5089 203.538 68.5263 203.499C68.5394 203.477 68.5525 203.451 68.5655 203.429C68.5743 203.421 68.6309 203.338 68.596 203.381C68.5612 203.425 68.6265 203.351 68.6353 203.338C68.644 203.329 68.7093 203.277 68.7093 203.268C68.7093 203.273 68.644 203.312 68.6919 203.281C68.705 203.273 68.7137 203.264 68.7268 203.259C68.7486 203.246 68.7747 203.233 68.7965 203.22C68.7965 203.22 68.8313 203.207 68.8313 203.203C68.8139 203.233 68.766 203.225 68.8183 203.212C68.8488 203.203 68.8836 203.19 68.9141 203.185C68.9272 203.181 68.9403 203.181 68.9533 203.177C68.9926 203.168 68.9926 203.19 68.9359 203.177C68.9577 203.181 68.9926 203.172 69.0187 203.172C69.0449 203.172 69.071 203.172 69.1015 203.172C69.1146 203.172 69.1276 203.172 69.1407 203.177C69.2017 203.181 69.1625 203.19 69.1364 203.172C69.1581 203.185 69.2061 203.185 69.2279 203.19C69.254 203.194 69.2802 203.203 69.3063 203.212C69.315 203.216 69.3847 203.246 69.3934 203.242C69.3891 203.242 69.3194 203.207 69.3717 203.233C69.3891 203.242 69.4109 203.251 69.4283 203.259C69.4588 203.277 69.4893 203.294 69.5155 203.312C69.5285 203.32 69.5372 203.325 69.5503 203.334C69.5547 203.338 69.5634 203.342 69.5677 203.347C69.5939 203.368 69.5895 203.364 69.5503 203.334C69.5503 203.342 69.62 203.395 69.6287 203.399C69.6549 203.421 69.6767 203.447 69.6985 203.473C69.729 203.503 69.6854 203.477 69.6854 203.456C69.6854 203.464 69.7072 203.49 69.7159 203.495C69.7333 203.521 69.7508 203.551 69.7682 203.582C69.7725 203.591 69.7813 203.621 69.79 203.625C69.7725 203.617 69.7638 203.556 69.7813 203.612C69.7943 203.647 69.803 203.682 69.8118 203.721C69.8466 203.887 70.0514 204 70.2126 203.948C70.3869 203.896 70.4784 203.73 70.4392 203.551Z" fill="#002921"/>
<path d="M58.573 260.954C58.6296 260.928 58.5381 260.967 58.573 260.954C58.5904 260.945 58.6078 260.941 58.6209 260.936C58.6557 260.923 58.6906 260.915 58.7298 260.901C58.7647 260.893 58.8039 260.884 58.8388 260.875C58.9128 260.862 58.8388 260.88 58.8388 260.875C58.8388 260.875 58.8823 260.871 58.8867 260.871C58.9608 260.867 59.0348 260.862 59.1133 260.867C59.1351 260.867 59.1568 260.871 59.1743 260.871C59.183 260.871 59.1917 260.871 59.2004 260.875C59.2266 260.88 59.2179 260.875 59.1743 260.871C59.1743 260.871 59.2789 260.893 59.2832 260.893C59.3573 260.91 59.427 260.936 59.4967 260.958C59.5403 260.971 59.4444 260.932 59.488 260.954C59.5054 260.962 59.5272 260.971 59.5447 260.98C59.5795 260.997 59.61 261.015 59.6449 261.032C59.6754 261.05 59.7102 261.071 59.7407 261.093C59.7538 261.102 59.7669 261.111 59.78 261.124C59.719 261.08 59.7712 261.115 59.78 261.128C59.841 261.18 59.8932 261.237 59.9455 261.298C60.0545 261.429 60.2941 261.42 60.4074 261.298C60.5338 261.159 60.5251 260.976 60.4074 260.836C59.8845 260.213 58.9608 260.052 58.2418 260.387C58.0849 260.461 58.037 260.697 58.1241 260.836C58.2287 260.997 58.4074 261.032 58.573 260.954Z" fill="#CC9900"/>
<path d="M57.7019 261.825C57.7585 261.799 57.667 261.838 57.7019 261.825C57.7193 261.817 57.7367 261.812 57.7498 261.808C57.7847 261.795 57.8195 261.786 57.8587 261.773C57.8936 261.764 57.9328 261.756 57.9677 261.747C58.0417 261.734 57.9677 261.751 57.9677 261.747C57.9677 261.747 58.0112 261.743 58.0156 261.743C58.0897 261.738 58.1637 261.734 58.2422 261.738C58.264 261.738 58.2858 261.743 58.3032 261.743C58.3119 261.743 58.3206 261.743 58.3293 261.747C58.3555 261.751 58.3468 261.747 58.3032 261.743C58.3032 261.743 58.4078 261.764 58.4121 261.764C58.4862 261.782 58.5559 261.808 58.6256 261.83C58.6692 261.843 58.5733 261.804 58.6169 261.825C58.6343 261.834 58.6561 261.843 58.6736 261.851C58.7084 261.869 58.7389 261.886 58.7738 261.904C58.8043 261.921 58.8391 261.943 58.8696 261.965C58.8827 261.974 58.8958 261.982 58.9089 261.995C58.8479 261.952 58.9001 261.987 58.9089 262C58.9699 262.052 59.0222 262.109 59.0744 262.17C59.1834 262.3 59.423 262.292 59.5363 262.17C59.6627 262.03 59.654 261.847 59.5363 261.708C59.0134 261.085 58.0897 260.923 57.3707 261.259C57.2138 261.333 57.1659 261.568 57.2531 261.708C57.3576 261.869 57.5363 261.904 57.7019 261.825Z" fill="#CC9900"/>
<path d="M59.5194 260.152C59.5499 260.135 59.5804 260.117 59.6109 260.1C59.6196 260.095 59.6284 260.091 59.6414 260.087C59.6632 260.078 59.6545 260.082 59.6109 260.1C59.6153 260.104 59.6545 260.082 59.6589 260.082C59.6937 260.069 59.7242 260.06 59.7591 260.052C59.7765 260.047 59.7939 260.043 59.8114 260.039C59.8201 260.039 59.8331 260.034 59.8419 260.034C59.868 260.03 59.8549 260.03 59.807 260.039C59.8331 260.047 59.8854 260.03 59.9116 260.03C59.9464 260.03 59.9813 260.03 60.0162 260.03C60.0336 260.03 60.051 260.034 60.0684 260.034C60.1338 260.039 60.0641 260.043 60.0554 260.03C60.0684 260.043 60.1512 260.047 60.1687 260.052C60.2035 260.06 60.2384 260.069 60.2689 260.082C60.2863 260.087 60.3037 260.095 60.3168 260.1C60.3822 260.121 60.2689 260.078 60.3081 260.095C60.3735 260.13 60.4388 260.161 60.4998 260.204C60.5042 260.209 60.5129 260.213 60.5173 260.217C60.539 260.235 60.539 260.235 60.5173 260.217C60.4955 260.2 60.4955 260.2 60.5173 260.217C60.5216 260.222 60.526 260.226 60.5347 260.23C60.5608 260.252 60.587 260.278 60.6088 260.305C60.6218 260.318 60.6349 260.335 60.6523 260.352C60.6916 260.396 60.6262 260.309 60.648 260.344C60.6654 260.379 60.6916 260.409 60.709 260.44C60.7961 260.588 61.0096 260.653 61.1578 260.557C61.3059 260.461 61.367 260.27 61.2754 260.108C60.8702 259.411 59.8811 259.158 59.197 259.586C59.0532 259.677 58.9835 259.882 59.0793 260.034C59.1665 260.178 59.3626 260.248 59.5194 260.152Z" fill="#CC9900"/>
<path d="M72.6917 220.52C73.8507 221.261 74.8965 222.141 75.8246 223.156C75.9031 222.969 75.9772 222.786 76.0556 222.598C75.4194 222.681 74.8442 222.877 74.3083 223.235C74.073 223.391 74.1078 223.749 74.3867 223.832C76.1558 224.372 77.694 225.474 78.7615 226.986C78.8574 226.821 78.9489 226.66 79.0448 226.494C78.4957 226.451 77.9423 226.411 77.3933 226.368C77.0316 226.342 76.9968 226.803 77.2277 226.978C79.5023 228.69 80.2082 231.667 80.8139 234.298C80.9097 234.708 81.5372 234.534 81.4457 234.124C80.7964 231.292 79.9947 228.25 77.5589 226.411C77.5022 226.616 77.45 226.817 77.3933 227.021C77.9423 227.065 78.4957 227.104 79.0448 227.148C79.2801 227.165 79.4674 226.851 79.328 226.655C78.1559 224.999 76.5 223.792 74.561 223.2C74.5871 223.4 74.6133 223.596 74.6394 223.797C75.0752 223.509 75.5371 223.317 76.0556 223.248C76.3301 223.213 76.4913 222.917 76.2865 222.69C75.3235 221.635 74.2255 220.72 73.0228 219.953C72.6655 219.727 72.3344 220.293 72.6917 220.52Z" fill="#CC9900"/>
<path d="M63.0092 248.866C62.9787 245.349 66.2555 243.297 68.9788 241.811C68.8699 241.624 68.761 241.436 68.6477 241.244C67.8111 241.889 67.323 242.804 67.2882 243.868C67.2838 244.029 67.4407 244.216 67.615 244.195C70.1684 243.876 72.578 245.192 74.2382 247.062C76.0073 249.053 76.9964 251.607 77.942 254.06C78.0902 254.448 78.722 254.278 78.5738 253.886C77.5673 251.271 76.5084 248.57 74.5868 246.469C72.8308 244.556 70.2643 243.21 67.615 243.541C67.7239 243.65 67.8328 243.759 67.9418 243.868C67.9679 243.057 68.3296 242.308 68.9745 241.807C69.2969 241.558 69.0268 241.035 68.6433 241.24C65.7021 242.844 62.3164 245.092 62.3469 248.857C62.36 249.289 63.0136 249.289 63.0092 248.866Z" fill="#CC9900"/>
<path d="M57.724 201.582C57.7763 202.767 58.3253 203.913 59.2403 204.676C59.3754 204.789 59.5715 204.807 59.7022 204.676C59.8199 204.558 59.8373 204.327 59.7022 204.214C58.9179 203.56 58.4211 202.606 58.3776 201.582C58.3689 201.408 58.2338 201.255 58.0508 201.255C57.8808 201.255 57.7152 201.403 57.724 201.582Z" fill="#002921"/>
<path d="M192.985 63.1201C192.366 62.9589 191.752 62.7933 191.133 62.6321C190.981 62.5929 190.824 62.5536 190.671 62.5841C190.288 62.6713 190.153 63.1593 190.201 63.5472C190.249 63.935 190.406 64.3272 190.314 64.7106C189.478 64.2052 188.519 63.7607 187.552 63.9132C186.584 64.0657 185.713 65.0723 186.04 65.9961C185.534 65.5952 184.75 65.8392 184.305 66.3099C183.861 66.7805 183.652 67.4123 183.347 67.9832C182.606 69.3907 181.373 70.3668 179.996 71.1991C180.048 71.2078 180.096 71.2208 180.148 71.2296C178.828 72.4627 177.408 73.587 175.774 74.55C174.858 75.086 165.643 81.8315 167.529 83.5528C172.954 88.4942 180.296 91.1654 187.621 91.1611C187.66 90.7645 187.695 90.429 187.713 90.2198C187.735 89.9235 187.826 89.5531 187.992 89.6316C188.066 89.6664 188.118 89.7797 188.162 89.893C188.305 90.2721 188.366 90.7166 188.406 91.1524C189.6 91.1219 190.789 91.0216 191.966 90.843C192.122 90.1109 192.301 89.4486 192.38 89.1087C192.445 88.8167 192.597 88.455 192.807 88.5465C192.894 88.5858 192.955 88.7034 192.998 88.8211C193.16 89.2568 193.173 89.7667 193.168 90.2591C193.168 90.3419 193.164 90.4726 193.16 90.6338C193.652 90.5379 194.144 90.429 194.632 90.307C194.589 89.5226 194.602 88.7862 194.584 88.4202C194.567 88.1108 194.663 87.6837 195.003 87.6445C195.147 87.6271 195.282 87.7012 195.386 87.784C195.783 88.0933 195.996 88.5596 196.175 89.0172C196.231 89.1566 196.327 89.4398 196.428 89.7884C196.519 89.7579 196.611 89.7318 196.698 89.7013C197.295 89.5052 197.922 89.2525 198.266 88.7252C198.554 88.2764 198.576 87.7055 198.589 87.1652C198.702 81.7357 198.515 75.1034 196.842 69.8569C196.109 67.5343 195.011 64.5886 192.985 63.1201Z" fill="#19306B"/>
<path d="M91.4623 91.3312C89.0701 90.1634 86.8826 88.6077 84.7432 87.0259C82.791 85.5836 80.8651 84.1064 78.9653 82.5986C77.0044 81.0473 75.0741 79.4568 73.1394 77.8707C69.1785 74.6156 65.1087 71.2341 62.7688 66.6717C62.3941 65.944 62.0542 65.1684 61.4398 64.6237C61.174 64.3927 60.8428 64.2228 60.4986 64.1356L58.9866 66.4016C58.3112 67.4169 58.5857 68.7851 59.5966 69.4606L60.2764 69.9138C60.4681 70.0401 60.6729 70.1229 60.8821 70.1839C63.527 78.3021 69.7624 82.5812 77.2659 88.0282C84.7257 93.4446 94.4166 96.1855 103.707 97.2662C104.831 97.1181 105.955 96.935 107.07 96.6997C102.051 94.4338 96.4123 93.7497 91.4623 91.3312Z" fill="#19306B"/>
</svg>
