<svg width="53" height="53" viewBox="0 0 53 53" fill="none" xmlns="http://www.w3.org/2000/svg">
<path d="M0.487305 19.5083V45.8958C0.487305 49.5529 3.60054 52.4973 7.42644 52.4973H46.0605C49.8864 52.4973 52.9997 49.5529 52.9997 45.8958V13.5069C52.9997 10.8625 51.3493 8.4807 48.7799 7.44921L31.7134 0.528832C29.6129 -0.315116 27.2123 -0.146326 25.2806 1.01645L3.71306 13.9382C1.70634 15.1573 0.487305 17.2578 0.487305 19.5083Z" fill="#B2E4F9"/>
<path d="M9.65795 17.6332H13.1275H17.4598C17.4598 15.4764 15.7156 13.7322 13.5589 13.7322C12.9587 13.7322 12.3961 13.8823 11.8897 14.1261C10.8582 12.832 9.28286 12.0068 7.50119 12.0068C7.25738 12.0068 7.03233 12.0631 6.78852 12.1006L3.7128 13.9385C2.26871 14.8012 1.25597 16.1328 0.787109 17.6332H1.87487H5.34443H9.65795Z" fill="white"/>
<path d="M38.4092 30.3674V19.8274L18.8671 32.6367H16.8604V34.2495H14.291V52.4976H46.061C47.2988 52.4976 48.4428 52.16 49.4368 51.6349V32.3741H38.4092V30.3674Z" fill="white"/>
<path d="M36.7775 34.4934H28.5068V50.4909H36.7775V34.4934Z" fill="#3DB6FF"/>
<path d="M27.0812 34.4934H18.8105V50.4909H27.0812V34.4934Z" fill="#3DB6FF"/>
<path d="M43.2292 42.5012C44.9383 42.5012 46.3237 41.1577 46.3237 39.5005C46.3237 37.8432 44.9383 36.4998 43.2292 36.4998C41.5202 36.4998 40.1348 37.8432 40.1348 39.5005C40.1348 41.1577 41.5202 42.5012 43.2292 42.5012Z" fill="#3DB6FF"/>
<path d="M14.4905 34.2496H17.0598V32.6367H1.90625V49.6282C3.1628 51.3536 5.24453 52.4976 7.62634 52.4976H14.4905V34.2496Z" fill="#3948FF"/>
<path d="M10.1647 36.3689H3.95703V49.0844H10.1647V36.3689Z" fill="#3DB6FF"/>
<path d="M0 32.6367H18.8669L39.0467 19.4148H20.1798L0 32.6367Z" fill="#1F3889"/>
<path d="M40.5291 5.04858H36.2906H25.6943V13.0005H36.2906H40.5291L36.2906 9.02452L40.5291 5.04858Z" fill="#1F3889"/>
<path d="M21.2494 24.2533C20.7806 24.2533 20.3867 23.8782 20.3867 23.3906V4.22354C20.3867 3.75468 20.7618 3.36084 21.2494 3.36084C21.7183 3.36084 22.1121 3.73593 22.1121 4.22354V23.4093C22.0934 23.8782 21.7183 24.2533 21.2494 24.2533Z" fill="white"/>
<path d="M33.121 2.4043H20.3867V10.3562H33.121V2.4043Z" fill="#3948FF"/>
</svg>