<svg width="48" height="48" viewBox="0 0 48 48" fill="none" xmlns="http://www.w3.org/2000/svg">
<path d="M3 18.6152V39.7202C3 42.6452 5.49 45.0002 8.55 45.0002H39.45C42.51 45.0002 45 42.6452 45 39.7202V13.8152C45 11.7002 43.68 9.79517 41.625 8.97017L27.975 3.43517C26.295 2.76017 24.375 2.89517 22.83 3.82517L5.58 14.1602C3.975 15.1352 3 16.8152 3 18.6152Z" fill="#E1EFFF"/>
<path d="M33.3302 27.3001V18.8701L17.7002 29.1151H16.0952V30.4051H14.0402V45.0001H39.4502C40.4402 45.0001 41.3552 44.7301 42.1502 44.3101V28.9051H33.3302V27.3001Z" fill="white"/>
<path d="M32.0249 30.6001H25.4099V43.3951H32.0249V30.6001Z" fill="#5B6866"/>
<path d="M24.27 30.6001H17.655V43.3951H24.27V30.6001Z" fill="#5B6866"/>
<path d="M37.1848 37.0051C38.5517 37.0051 39.6598 35.9306 39.6598 34.6051C39.6598 33.2796 38.5517 32.2051 37.1848 32.2051C35.8179 32.2051 34.7098 33.2796 34.7098 34.6051C34.7098 35.9306 35.8179 37.0051 37.1848 37.0051Z" fill="#5B6866"/>
<path d="M14.1999 30.4052H16.2549V29.1152H4.13489V42.7052C5.13989 44.0852 6.80489 45.0002 8.70989 45.0002H14.1999V30.4052Z" fill="#7B9994"/>
<path d="M10.7401 32.1001H5.77515V42.2701H10.7401V32.1001Z" fill="#5B6866"/>
<path d="M2.60999 29.1155H17.7L33.84 18.5405H18.75L2.60999 29.1155Z" fill="#1C292C"/>
<path d="M35.0253 7.0498H31.6353H23.1603V13.4098H31.6353H35.0253L31.6353 10.2298L35.0253 7.0498Z" fill="#1C292C"/>
<path d="M19.6052 22.4102C19.2302 22.4102 18.9152 22.1102 18.9152 21.7202V6.3902C18.9152 6.0152 19.2152 5.7002 19.6052 5.7002C19.9802 5.7002 20.2952 6.0002 20.2952 6.3902V21.7352C20.2802 22.1102 19.9802 22.4102 19.6052 22.4102Z" fill="white"/>
<path d="M29.1002 4.93506H18.9152V11.2951H29.1002V4.93506Z" fill="#7B9994"/>
</svg>
