<svg width="80" height="80" viewBox="0 0 80 80" fill="none" xmlns="http://www.w3.org/2000/svg">
<path d="M5 31.0255V66.2005C5 71.0755 9.15 75.0005 14.25 75.0005H65.75C70.85 75.0005 75 71.0755 75 66.2005V23.0255C75 19.5005 72.8 16.3255 69.375 14.9505L46.625 5.72545C43.825 4.60045 40.625 4.82545 38.05 6.37545L9.3 23.6005C6.625 25.2255 5 28.0255 5 31.0255Z" fill="#C0C7FF"/>
<path d="M35.05 75.0004H65.75C66.525 75.0004 67.275 74.8754 67.975 74.7254V47.0754L57.175 34.0254L46.375 47.0754V61.0504H35.05V75.0004Z" fill="white"/>
<path d="M14.2502 74.9998H35.0502V63.4998V61.0248H46.3752V47.0498H16.6002V62.7498H9.80017V73.8498C11.1252 74.5748 12.6252 74.9998 14.2502 74.9998Z" fill="#3DB6FF"/>
<path d="M59.8752 30.75L57.1752 34L67.9752 47.075H73.3752L59.8752 30.75Z" fill="#3DB6FF"/>
<path d="M12.976 47.075H46.351L59.876 30.75H26.501L12.976 47.075Z" fill="#1F3889"/>
<path d="M25.3236 48.5742H21.4486V55.8992H25.3236V48.5742Z" fill="#2E46FF"/>
<path d="M61.6986 48.5742H57.8236V62.7242H61.6986V48.5742Z" fill="#2E46FF"/>
<path d="M61.6986 64.5742H57.8236V73.7242H61.6986V64.5742Z" fill="#2E46FF"/>
<path d="M22.35 67.3496H14.375V71.7496H22.35V67.3496Z" fill="#2E46FF"/>
<path d="M31.6508 67.3496H23.6758V71.7496H31.6508V67.3496Z" fill="#2E46FF"/>
<path d="M12.9766 47.075H46.3516L59.8766 30.75H26.5016L12.9766 47.075Z" fill="#1F3889"/>
<path d="M27.0494 13.1748C25.7244 16.4998 23.0744 19.1498 19.7494 20.4748C23.0744 21.7998 25.7244 24.4498 27.0494 27.7748C28.3744 24.4498 31.0244 21.7998 34.3494 20.4748C31.0494 19.1748 28.3744 16.4998 27.0494 13.1748Z" fill="#FBF089"/>
<path d="M27.0494 3.5C26.4494 5 26.1244 6.625 26.1244 8.325C26.1244 10.025 26.4744 11.675 27.0494 13.15C27.6494 11.65 27.9744 10.025 27.9744 8.325C27.9994 6.625 27.6494 5 27.0494 3.5Z" fill="#FBF089"/>
<path d="M14.8992 21.4252C17.564 21.4252 19.7242 21.0111 19.7242 20.5002C19.7242 19.9893 17.564 19.5752 14.8992 19.5752C12.2344 19.5752 10.0742 19.9893 10.0742 20.5002C10.0742 21.0111 12.2344 21.4252 14.8992 21.4252Z" fill="#FBF089"/>
<path d="M39.2 21.4242C41.8648 21.4242 44.025 21.0101 44.025 20.4992C44.025 19.9884 41.8648 19.5742 39.2 19.5742C36.5352 19.5742 34.375 19.9884 34.375 20.4992C34.375 21.0101 36.5352 21.4242 39.2 21.4242Z" fill="#FBF089"/>
<path d="M27.0494 37.4752C27.6494 35.9752 27.9744 34.3502 27.9744 32.6502C27.9744 30.9502 27.6244 29.3002 27.0494 27.8252C26.4494 29.3252 26.1244 30.9502 26.1244 32.6502C26.1244 34.3502 26.4494 35.9752 27.0494 37.4752Z" fill="#FBF089"/>
<path d="M67.0477 37.7012C66.2977 39.5512 64.8227 41.0512 62.9727 41.7762C64.8227 42.5262 66.3227 44.0012 67.0477 45.8512C67.7977 44.0012 69.2727 42.5012 71.1227 41.7762C69.2727 41.0512 67.7977 39.5762 67.0477 37.7012Z" fill="#FBF089"/>
<path d="M67.049 32.3008C66.724 33.1258 66.524 34.0508 66.524 35.0008C66.524 35.9508 66.724 36.8758 67.049 37.7008C67.374 36.8758 67.574 35.9508 67.574 35.0008C67.574 34.0508 67.399 33.1508 67.049 32.3008Z" fill="#FBF089"/>
<path d="M60.2742 42.3264C61.7654 42.3264 62.9742 42.0913 62.9742 41.8014C62.9742 41.5114 61.7654 41.2764 60.2742 41.2764C58.7831 41.2764 57.5742 41.5114 57.5742 41.8014C57.5742 42.0913 58.7831 42.3264 60.2742 42.3264Z" fill="#FBF089"/>
<path d="M73.8492 42.3264C75.3403 42.3264 76.5492 42.0913 76.5492 41.8014C76.5492 41.5114 75.3403 41.2764 73.8492 41.2764C72.358 41.2764 71.1492 41.5114 71.1492 41.8014C71.1492 42.0913 72.358 42.3264 73.8492 42.3264Z" fill="#FBF089"/>
<path d="M67.049 51.276C67.374 50.451 67.574 49.526 67.574 48.576C67.574 47.626 67.374 46.701 67.049 45.876C66.724 46.701 66.524 47.626 66.524 48.576C66.524 49.526 66.724 50.451 67.049 51.276Z" fill="#FBF089"/>
<path d="M16.0483 58.5C15.2983 60.35 13.8233 61.85 11.9733 62.575C13.8233 63.325 15.3233 64.8 16.0483 66.65C16.7983 64.8 18.2733 63.3 20.1233 62.575C18.2733 61.85 16.7983 60.375 16.0483 58.5Z" fill="#FBF089"/>
<path d="M16.0497 53.0996C15.7247 53.9246 15.5247 54.8496 15.5247 55.7996C15.5247 56.7496 15.7247 57.6746 16.0497 58.4996C16.3747 57.6746 16.5747 56.7496 16.5747 55.7996C16.5747 54.8496 16.3997 53.9496 16.0497 53.0996Z" fill="#FBF089"/>
<path d="M9.27483 63.1252C10.766 63.1252 11.9748 62.8901 11.9748 62.6002C11.9748 62.3102 10.766 62.0752 9.27483 62.0752C7.78366 62.0752 6.57483 62.3102 6.57483 62.6002C6.57483 62.8901 7.78366 63.1252 9.27483 63.1252Z" fill="#FBF089"/>
<path d="M22.8498 63.1252C24.3409 63.1252 25.5498 62.8901 25.5498 62.6002C25.5498 62.3102 24.3409 62.0752 22.8498 62.0752C21.3586 62.0752 20.1498 62.3102 20.1498 62.6002C20.1498 62.8901 21.3586 63.1252 22.8498 63.1252Z" fill="#FBF089"/>
<path d="M16.0497 72.0748C16.3747 71.2498 16.5747 70.3248 16.5747 69.3748C16.5747 68.4248 16.3747 67.4998 16.0497 66.6748C15.7247 67.4998 15.5247 68.4248 15.5247 69.3748C15.5247 70.3248 15.7247 71.2498 16.0497 72.0748Z" fill="#FBF089"/>
</svg>
