<svg width="201" height="100" viewBox="0 0 201 100" fill="none" xmlns="http://www.w3.org/2000/svg">
<path d="M42.9466 96.9993H41.4812L45.389 89.9043H47.8313L42.9466 96.9993Z" fill="#FFAE00"/>
<path d="M45.9187 92.7271H43.801L45.3889 89.9043H47.8313L45.9187 92.7271Z" fill="black"/>
<path d="M55.1614 96.9993H53.6945L52.7175 89.9043H55.1614V96.9993Z" fill="#FFAE00"/>
<path d="M55.1614 92.7271H53.0835L52.7175 89.9043H55.1614V92.7271Z" fill="black"/>
<path d="M188.053 96.9993H189.519L185.611 89.9043H183.167L188.053 96.9993Z" fill="#FFAE00"/>
<path d="M185.081 92.7271H187.199L185.611 89.9043H183.167L185.081 92.7271Z" fill="black"/>
<path d="M175.839 96.9993H177.304L178.282 89.9043H175.839V96.9993Z" fill="#FFAE00"/>
<path d="M175.839 92.7271H177.915L178.282 89.9043H175.839V92.7271Z" fill="black"/>
<path d="M196.273 57.4228C195.922 57.284 195.553 57.1949 195.177 57.1584L187.831 56.4337C186.195 56.2715 184.551 56.6426 183.147 57.49L182.921 57.6259H119.147H111.817H48.0425L47.8167 57.49C46.4118 56.6441 44.7678 56.273 43.1327 56.4337L35.7864 57.1584C35.4101 57.1949 35.0412 57.284 34.69 57.4228L30.124 59.2273L39.8683 90.0678H111.817H119.148H191.096L200.841 59.2273L196.273 57.4228Z" fill="#7FFFDE"/>
<path d="M183.882 79.9453H47.0803V90.0268H183.882V79.9453Z" fill="#00D0AF"/>
<path d="M179.813 69.7508H51.1488L44.9286 51.2271C43.8971 48.1545 46.2582 45 49.589 45H181.371C184.703 45 187.065 48.1545 186.032 51.2271L179.813 69.7508Z" fill="#00D0AF"/>
<path d="M53.451 90.0677H39.7709L30 59.4316H39.9568C42.1734 59.4316 44.1346 60.8547 44.8017 62.947L53.451 90.0677Z" fill="#00D0AF"/>
<path d="M177.549 90.0677H191.229L201 59.4316H191.043C188.827 59.4316 186.865 60.8547 186.198 62.947L177.549 90.0677Z" fill="#00D0AF"/>
<path d="M48.4644 47.498H182.497" stroke="black" stroke-width="0.2" stroke-miterlimit="10"/>
<path d="M183.51 74.6683H47.4536L51.4293 69.6699H180.03L183.51 74.6683Z" fill="#7FFFDE"/>
<path d="M115.481 47.1777V89.5024" stroke="black" stroke-width="0.4" stroke-miterlimit="10"/>
<path d="M180.714 83.8585H50.2044C48.6475 83.8585 47.3843 82.6093 47.3843 81.0664V79.3438H183.535V81.0664C183.535 82.6093 182.271 83.8585 180.714 83.8585Z" fill="black"/>
<path d="M181.187 81.5207H49.7764C48.4807 81.5207 47.4299 80.4804 47.4299 79.1976V75.3798C47.4299 74.0969 48.4807 73.0566 49.7764 73.0566H181.187C182.482 73.0566 183.533 74.0969 183.533 75.3798V79.1976C183.535 80.4804 182.482 81.5207 181.187 81.5207Z" fill="#00D0AF"/>
<path d="M49.1729 63.8633L49.623 71.9402L51.4293 69.6711H54.5091L49.1729 63.8633Z" fill="black"/>
<path d="M180.03 69.6706L180.927 70.9593L181.284 65.3691L176.646 69.6706H180.03Z" fill="black"/>
<path d="M113.608 69.6712H115.481V66.3633L113.608 69.6712Z" fill="black"/>
<path d="M117.436 69.6712H115.563V66.3633L117.436 69.6712Z" fill="black"/>
<g clip-path="url(#clip0)">
<path d="M97.9788 36.5273C97.9788 36.5273 98.3486 36.5392 99.0489 37.1183C99.6482 37.6131 99.7323 38.1029 99.7323 38.1029C99.7323 38.1029 99.0083 38.0999 98.5207 37.6478C98.0332 37.1946 97.9788 36.5273 97.9788 36.5273Z" fill="black"/>
<path d="M102.756 30.4169L102.995 29.4551C103.034 29.3024 102.821 29.2062 102.742 29.343C102.741 29.344 102.741 29.345 102.74 29.346L102.334 30.0798C102.33 30.0867 102.326 30.0927 102.321 30.0986L101.683 30.9087C101.668 30.9275 101.649 30.9414 101.627 30.9513L100.171 31.576C100.086 31.6127 99.9886 31.5581 99.9757 31.4659L99.8037 30.2077C99.7908 30.1155 99.6959 30.0639 99.6167 30.1055C99.5782 30.1254 99.5525 30.164 99.5465 30.2077L99.3289 31.7872C99.328 31.7931 99.328 31.8001 99.328 31.806V34.8679C99.328 34.8977 99.3181 34.9274 99.3003 34.9512L97.9196 36.8371C97.8979 36.8669 97.889 36.9026 97.8939 36.9392L98.0324 37.9813C98.0413 38.0517 98.1016 38.1033 98.1718 38.1033H99.2439C99.2953 38.1033 99.3428 38.0755 99.3675 38.0299L100.435 36.0895C100.443 36.0756 100.447 36.0597 100.45 36.0439L100.552 35.4043C100.556 35.3825 100.568 35.3627 100.587 35.3508L101.946 33.8258C101.954 33.8169 101.959 33.806 101.961 33.7951C102.042 33.2904 102.205 32.9681 102.205 32.9632L102.19 32.2483L102.204 31.7227C102.205 31.696 102.198 31.6692 102.184 31.6464L102.057 31.4342C102.041 31.4074 102.068 31.4174 102.086 31.3916L102.734 30.4635C102.745 30.4496 102.752 30.4337 102.756 30.4169Z" fill="#F4CAB5"/>
<path d="M102.236 31.5332H101.396C101.262 31.5332 101.136 31.5897 101.047 31.6889L100.587 32.2015C100.515 32.2818 100.474 32.3869 100.474 32.495C100.474 32.5099 100.49 32.5188 100.503 32.5119L101.359 32.0339C101.362 32.0319 101.366 32.031 101.37 32.0319L102.234 32.1053C102.244 32.1063 102.254 32.0974 102.254 32.0855V31.553C102.255 31.5421 102.246 31.5332 102.236 31.5332Z" fill="#F4CAB5" stroke="#020202" stroke-miterlimit="10"/>
<path d="M102.159 32.1289H101.427C101.275 32.1289 101.13 32.1934 101.029 32.3064L100.501 32.8944C100.485 32.9122 100.476 32.935 100.476 32.9588C100.476 33.0322 100.555 33.0788 100.619 33.0431L101.34 32.6405C101.357 32.6316 101.376 32.6267 101.396 32.6286L102.152 32.6931C102.209 32.698 102.257 32.6534 102.257 32.5969V32.2251C102.255 32.1725 102.212 32.1289 102.159 32.1289Z" fill="#F4CAB5" stroke="#020202" stroke-miterlimit="10"/>
<path d="M102.15 33.2868C102.207 33.2918 102.255 33.2472 102.255 33.1907V32.8188C102.255 32.7653 102.212 32.7227 102.159 32.7227H101.398C101.264 32.7227 101.137 32.7792 101.047 32.8793L100.5 33.4881C100.484 33.506 100.475 33.5288 100.475 33.5526C100.475 33.6259 100.554 33.6725 100.619 33.6369L101.339 33.2343C101.356 33.2254 101.375 33.2204 101.395 33.2224" fill="#F4CAB5"/>
<path d="M102.15 33.2868C102.207 33.2918 102.255 33.2472 102.255 33.1907V32.8188C102.255 32.7653 102.212 32.7227 102.159 32.7227H101.398C101.264 32.7227 101.137 32.7792 101.047 32.8793L100.5 33.4881C100.484 33.506 100.475 33.5288 100.475 33.5526C100.475 33.6259 100.554 33.6725 100.619 33.6369L101.339 33.2343C101.356 33.2254 101.375 33.2204 101.395 33.2224" stroke="#020202" stroke-miterlimit="10"/>
<path d="M100.317 33.1836C100.342 33.6526 100.285 34.1345 100.083 34.5579L100.317 33.1836Z" fill="#F4CAB5"/>
<path d="M67.9243 16.1031C67.9243 16.1031 68.3061 15.5726 69.2644 15.3892C70.2227 15.2058 70.8161 15.3466 70.8161 15.3466C70.8161 15.3466 70.4769 16.0813 69.5591 16.226C68.6413 16.3708 67.9243 16.1031 67.9243 16.1031Z" fill="black"/>
<path d="M96.8424 37.3496H95.6764C95.2452 37.3496 94.8575 37.6164 94.7022 38.0199L94.6657 38.1141C94.5509 38.4126 94.1148 38.361 94.0723 38.0447L93.6984 35.2843C93.6173 34.6893 93.4334 34.1123 93.1525 33.5818L92.4444 32.2412C90.1786 31.6146 88.3835 39.3416 88.3835 39.3416L90.8461 42.5701C90.8788 42.6127 90.9085 42.6593 90.9361 42.7059C92.2209 44.9062 95.0484 45.6518 97.2499 44.3559L97.8601 43.9969C98.5613 43.5844 99.0113 42.8467 99.0578 42.0327L99.217 39.2385L96.8424 37.3496Z" fill="#3DB6FF"/>
<path d="M68.3148 16.5566V12.2533C68.0191 11.9747 67.8322 11.5998 67.7897 11.1953L67.6493 9.87159L67.3397 9.6247C67.2734 9.57215 67.2349 9.49183 67.2349 9.40755C67.2349 9.25386 67.3585 9.12992 67.5118 9.12992H67.7749L67.5533 8.78288C67.4851 8.6758 67.4851 8.53995 67.5533 8.43287C67.6127 8.33966 67.7155 8.28215 67.8263 8.28215H68.0617L67.9192 8.11161C67.8342 8.00948 67.8293 7.86174 67.9064 7.75466C67.9944 7.63369 68.1596 7.59898 68.2881 7.67434L68.9923 8.0888V7.54048L68.2061 6.33477C68.1517 6.25148 68.1616 6.14241 68.2288 6.06904C68.3089 5.98277 68.4424 5.97682 68.5304 6.05416L69.3029 6.74328L70.1593 8.69464C70.3413 9.11009 70.3789 9.57413 70.2652 10.0134L69.7163 12.1353L70.2721 15.8674L69.2 16.8005L68.3148 16.5566Z" fill="#F4CAB5"/>
<path d="M94.739 18.7644C94.739 17.8135 94.2207 16.9846 93.4513 16.5454C93.4602 16.4353 93.4651 16.3233 93.4651 16.2112C93.4651 13.8444 91.5514 11.9258 89.1907 11.9258C88.354 11.9258 87.5747 12.1677 86.916 12.5832C86.5946 12.3968 86.2227 12.2897 85.8251 12.2897C84.6195 12.2897 83.6424 13.2693 83.6424 14.478C83.6424 14.5663 83.6484 14.6525 83.6582 14.7368C82.5516 15.0144 81.7327 16.0179 81.7327 17.2137C81.7327 18.1963 82.2865 19.049 83.0985 19.4754C83.0975 19.4962 83.0965 19.517 83.0965 19.5388C83.0965 20.8229 84.1349 21.864 85.4157 21.864C86.466 21.864 87.3531 21.164 87.638 20.2042C87.7369 20.2428 87.8377 20.2785 87.9406 20.3102C87.8081 20.6196 87.7349 20.9597 87.7349 21.3177C87.7349 22.7276 88.8752 23.8709 90.2816 23.8709C91.6879 23.8709 92.8282 22.7276 92.8282 21.3177C92.8282 21.2909 92.8272 21.2641 92.8262 21.2373C93.927 20.9547 94.739 19.9553 94.739 18.7644Z" fill="black"/>
<path d="M69.2336 77.4249L68.3703 78.0248C67.4821 78.6415 66.7701 79.4804 66.3042 80.458C65.9264 81.2513 65.7702 82.1318 65.8523 83.0063L66.0263 84.8664C66.055 85.1679 65.7791 85.4277 65.4873 85.3493C65.4764 85.3463 65.4666 85.3434 65.4577 85.3394C65.3321 85.2829 65.0927 84.9289 65.0927 84.9289C64.172 83.8947 63.5746 82.6127 63.3738 81.2404L63.0791 79.2226C62.8091 78.469 63.2601 77.649 64.0394 77.4765L65.4577 77.1622L68.6056 75.1543L69.2336 77.4249Z" fill="#F4CAB5"/>
<path d="M78.0001 43.6582C77.9843 44.2154 80.2481 65.951 80.2481 65.951L79.448 68.7947C79.2344 69.5533 79.1681 70.3465 79.2541 71.1308L80.2491 80.246V91.3562L82.1351 91.3156C82.1351 91.3156 84.7806 76.5882 84.7905 76.4316L85.5303 64.312L88.885 45.3954L78.0001 43.6582Z" fill="#2E46FF"/>
<path d="M75.8422 43.4609C76.0934 43.4609 86.7113 44.7212 86.7113 44.974C86.7113 45.1515 90.7929 57.757 93.8153 64.5351C94.9754 67.136 93.6798 70.176 91.0045 71.1348L69.2337 77.4252L68.6047 75.1555L81.9246 67.6258C83.0599 66.6858 84.3575 65.961 85.752 65.487L86.2198 65.3284L79.9901 56.3301C79.3245 55.5091 77.1299 51.6421 76.4534 50.7726C75.0164 48.9273 75.8422 43.4609 75.8422 43.4609Z" fill="#2E46FF"/>
<path d="M81.9254 67.6257C83.0608 66.6857 84.3584 65.9609 85.7529 65.4869L86.2207 65.3283L79.991 56.3301" stroke="black" stroke-miterlimit="10"/>
<path d="M91.0035 71.1348L69.2337 77.4251L68.6057 75.1555" stroke="black" stroke-miterlimit="10"/>
<path d="M80.0593 22.3441C81.0839 21.7114 82.3775 21.7164 83.3971 22.3569C84.8431 23.2652 86.8923 24.6553 88.2333 25.9999C89.7702 27.5407 91.4822 29.9541 92.4217 31.3443C92.8628 31.9967 92.8777 32.8474 92.4623 33.5157L88.9879 39.111L89.7425 46.6755L74.6267 44.154L75.4486 35.7051C75.504 34.1226 75.8412 32.5619 76.4455 31.0984L80.0593 22.3441Z" fill="#3DB6FF"/>
<path d="M92.4623 33.5176L88.9879 39.1119L89.7425 46.6763L74.6267 44.1548" stroke="black" stroke-width="0.2" stroke-miterlimit="10"/>
<path d="M71.194 16.8613L71.9842 17.2837C72.6745 17.6526 73.1532 18.3248 73.2778 19.0992L73.3668 19.6495C73.5646 20.8761 74.6198 21.7774 75.8591 21.7774L81.0137 22.2523C81.3292 22.2811 81.5903 22.5072 81.6674 22.8155C82.0047 24.167 82.6287 27.8416 80.1266 29.8475C79.4471 30.3919 78.6015 30.6973 77.7312 30.7161C77.4345 30.7231 77.1586 30.6943 77.0102 30.5912L69.9577 25.6801C68.9015 24.9612 68.1943 23.8319 68.0064 22.5657L67.592 19.7755C67.4832 19.0457 67.6969 18.304 68.1755 17.7428L71.194 16.8613Z" fill="#3DB6FF"/>
<path d="M81.6674 22.8145C82.0047 24.1659 82.6288 27.8406 80.1266 29.8465C79.4471 30.3908 78.6016 30.6962 77.7312 30.715C77.4345 30.722 77.1586 30.6932 77.0103 30.5901" stroke="black" stroke-width="0.3" stroke-miterlimit="10"/>
<path d="M68.1765 18.1409L67.9253 16.1032L67.9668 16.1141C68.8134 16.3452 69.7193 16.1726 70.4215 15.6442L70.8181 15.3457L71.1949 17.1106L70.8715 17.4031C70.2702 17.9465 69.4899 18.2469 68.6799 18.2469L68.1765 18.1409Z" fill="#F8F08E"/>
<path d="M96.6179 38.1029L97.9788 36.5273L98.0094 36.682C98.1716 37.508 98.8936 38.1029 99.7333 38.1029L98.7344 39.8054C97.7523 39.8054 96.8939 39.143 96.6426 38.1912L96.6179 38.1029Z" fill="#F8F08E"/>
<path d="M86.4176 24.8282L86.6411 23.6532C86.7242 23.2149 86.3701 22.8163 85.926 22.8491C85.4563 22.8838 84.7758 22.2006 84.7808 21.7276L85.3267 18.0798L89.523 17.7129L88.2185 26.3889C88.2176 26.3938 88.2136 26.3968 88.2087 26.3948C87.4155 26.1529 86.7647 25.5818 86.4176 24.8282Z" fill="#F4CAB5"/>
<path d="M86.1436 20.3418C86.0912 20.4885 86.0388 20.6353 85.9873 20.7811C85.9587 20.8614 85.929 20.9476 85.9468 21.0319C85.9646 21.1162 86.0496 21.1916 86.1307 21.1668" stroke="black" stroke-width="0.1" stroke-miterlimit="10"/>
<path d="M87.7209 19.6159C87.6745 19.5881 87.625 19.5663 87.5736 19.5485C87.5222 19.5306 87.4687 19.5227 87.4144 19.5158C87.3936 19.5148 87.3748 19.5197 87.357 19.5286C87.3382 19.5346 87.3224 19.5445 87.3095 19.5594C87.2838 19.5852 87.264 19.6278 87.266 19.6645C87.268 19.7032 87.2799 19.7428 87.3095 19.7696C87.3194 19.7775 87.3293 19.7854 87.3392 19.7924C87.3619 19.8063 87.3877 19.8122 87.4144 19.8122C87.4183 19.8122 87.4223 19.8132 87.4262 19.8142C87.4134 19.8122 87.3995 19.8102 87.3867 19.8092C87.4371 19.8162 87.4856 19.8301 87.533 19.8499C87.5212 19.8449 87.5093 19.84 87.4974 19.835C87.5231 19.8459 87.5469 19.8588 87.5706 19.8727C87.6033 19.8925 87.6487 19.8975 87.6853 19.8876C87.72 19.8777 87.7575 19.8519 87.7743 19.8192C87.7922 19.7845 87.802 19.7428 87.7892 19.7041C87.7773 19.6675 87.7546 19.6367 87.7209 19.6159Z" fill="black"/>
<path d="M85.7301 19.4349C85.6451 19.4527 85.56 19.4696 85.474 19.4874C85.4393 19.4944 85.4027 19.5261 85.3849 19.5559C85.3662 19.5876 85.3582 19.6352 85.3701 19.6709C85.382 19.7066 85.4037 19.7413 85.4384 19.7601C85.4502 19.7651 85.4621 19.77 85.474 19.775C85.5007 19.7819 85.5264 19.7819 85.5531 19.775C85.6381 19.7571 85.7232 19.7403 85.8092 19.7224C85.8438 19.7155 85.8804 19.6838 85.8982 19.654C85.917 19.6223 85.9249 19.5747 85.9131 19.539C85.9012 19.5033 85.8794 19.4686 85.8448 19.4498C85.833 19.4448 85.8211 19.4399 85.8092 19.4349C85.7825 19.428 85.7568 19.428 85.7301 19.4349Z" fill="black"/>
<path d="M87.3975 20.152C87.3975 20.2115 87.2966 20.152 87.173 20.152C87.0494 20.152 86.9485 20.2115 86.9485 20.152C86.9485 20.0925 87.0494 20.043 87.173 20.043C87.2966 20.043 87.3975 20.0925 87.3975 20.152Z" fill="black"/>
<path d="M85.8191 20.152C85.8191 20.2115 85.7182 20.152 85.5946 20.152C85.471 20.152 85.3701 20.2115 85.3701 20.152C85.3701 20.0925 85.471 20.043 85.5946 20.043C85.7182 20.043 85.8191 20.0925 85.8191 20.152Z" fill="black"/>
<path d="M87.3601 21.4079C87.4065 21.6042 87.1791 22.0613 86.7874 22.1545C86.3958 22.2467 85.9893 21.9384 85.9428 21.742C85.8963 21.5457 86.2296 21.5358 86.6203 21.4436C87.0119 21.3514 87.3136 21.2116 87.3601 21.4079Z" fill="black"/>
<path d="M86.9624 19.1287C87.992 19.1287 88.8267 18.2919 88.8267 17.2597C88.8267 16.2274 87.992 15.3906 86.9624 15.3906C85.9328 15.3906 85.0981 16.2274 85.0981 17.2597C85.0981 18.2919 85.9328 19.1287 86.9624 19.1287Z" fill="black"/>
<path d="M90.146 20.6776C91.1756 20.6776 92.0103 19.8408 92.0103 18.8085C92.0103 17.7763 91.1756 16.9395 90.146 16.9395C89.1164 16.9395 88.2817 17.7763 88.2817 18.8085C88.2817 19.8408 89.1164 20.6776 90.146 20.6776Z" fill="black"/>
<path d="M90.5101 22.2271C91.3387 22.2271 92.0104 21.5536 92.0104 20.7229C92.0104 19.8922 91.3387 19.2188 90.5101 19.2188C89.6815 19.2188 89.0098 19.8922 89.0098 20.7229C89.0098 21.5536 89.6815 22.2271 90.5101 22.2271Z" fill="black"/>
<path d="M74.866 41.6973L89.522 44.4696L89.7425 46.6748L74.6267 44.1533L74.866 41.6973Z" fill="#3DB6FF"/>
<path d="M89.2303 21.4625C89.6094 21.4625 89.9167 21.0927 89.9167 20.6365C89.9167 20.1803 89.6094 19.8105 89.2303 19.8105C88.8512 19.8105 88.5439 20.1803 88.5439 20.6365C88.5439 21.0927 88.8512 21.4625 89.2303 21.4625Z" fill="#F4CAB5"/>
<path d="M89.1194 20.1332C89.244 20.1282 89.3696 20.1748 89.4616 20.2601C89.5535 20.3444 89.6099 20.4663 89.6159 20.5913" stroke="black" stroke-miterlimit="10"/>
<path d="M70.0654 9.64889L69.4364 7.6787C69.4157 7.61425 69.3257 7.61525 69.3059 7.6797C69.2495 7.86214 69.2317 8.05351 69.2525 8.24289L69.3237 8.89532C69.3395 9.04207 69.3197 9.18981 69.2644 9.32664L68.7827 10.5234V11.4" fill="#F4CAB5"/>
<path d="M70.0654 9.64889L69.4364 7.6787C69.4157 7.61425 69.3257 7.61525 69.3059 7.6797C69.2495 7.86214 69.2317 8.05351 69.2525 8.24289L69.3237 8.89532C69.3395 9.04207 69.3197 9.18981 69.2644 9.32664L68.7827 10.5234V11.4" stroke="#020202" stroke-miterlimit="10"/>
<path d="M67.9204 8.00781L68.7986 8.90714L68.8095 8.86153C68.8679 8.62752 68.7967 8.38063 68.6236 8.21405L68.5188 8.11391" stroke="black" stroke-miterlimit="10"/>
<path d="M67.6375 8.82109L68.3159 9.54094L68.3733 9.29702C68.4079 9.15028 68.3644 8.9956 68.2585 8.88752L68.0162 8.64062" stroke="black" stroke-miterlimit="10"/>
<path d="M67.321 9.56291L67.9995 10.1777L68.044 9.98729C68.0865 9.80683 68.0331 9.61645 67.9036 9.48458L67.6998 9.27734" stroke="black" stroke-miterlimit="10"/>
<path d="M82.2399 90.4707L80.248 90.5114L79.9968 94.5955L79.3668 95.5077C79.0682 95.9411 79.082 96.5171 79.4024 96.9346L80.9413 98.9405C81.2252 99.3103 81.6277 99.5711 82.0806 99.6802L83.0251 99.9052C83.8955 100.113 85.7459 99.9984 85.5303 99.3867L84.1111 97.8934C83.5968 97.352 83.1468 96.7531 82.769 96.1086L82.5158 95.6763C82.1034 94.9733 81.9165 94.1602 81.9788 93.3462L82.2399 90.4707Z" fill="#F4CAB5"/>
<path d="M84.665 99.2715C84.8767 99.3637 85.0448 99.5511 85.1121 99.7732" stroke="black" stroke-miterlimit="10"/>
<path d="M84.1289 99.5176C84.3227 99.5721 84.4859 99.7248 84.5552 99.9142" stroke="black" stroke-miterlimit="10"/>
<path d="M83.6917 99.623C83.7925 99.7222 83.8657 99.8481 83.9013 99.985" stroke="black" stroke-miterlimit="10"/>
<path d="M83.1704 99.6074C83.2515 99.6986 83.3079 99.8127 83.3306 99.9327" stroke="black" stroke-miterlimit="10"/>
<path d="M82.6829 99.4863C82.764 99.5776 82.8203 99.6916 82.8431 99.8116" stroke="black" stroke-miterlimit="10"/>
<path d="M65.251 85.0174C65.3973 85.0223 65.4705 84.8399 65.4765 84.6931C65.4824 84.5563 65.4666 84.4195 65.429 84.2876C65.3964 84.1706 65.4448 84.0506 65.4695 83.9316" stroke="black" stroke-miterlimit="10"/>
<path d="M64.7427 84.4838C65.0117 84.2993 65.1383 83.9305 65.0414 83.6191" stroke="black" stroke-miterlimit="10"/>
<path d="M64.3628 83.8042C64.615 83.7249 64.792 83.4552 64.7653 83.1914" stroke="black" stroke-miterlimit="10"/>
<path d="M64.1541 83.46C64.3687 83.2438 64.4686 82.9186 64.4132 82.6191" stroke="black" stroke-miterlimit="10"/>
<path d="M89.5743 38.168L88.9878 39.1129L89.1045 40.2859L89.7424 41.1218L89.5743 38.168Z" fill="black"/>
<path d="M76.7353 30.3965L77.2703 30.7148L76.1587 31.859L76.7353 30.3965Z" fill="black"/>
<path d="M79.1621 55.0957L85.5293 64.314L85.4818 65.1876L79.7555 61.2294L79.1621 55.0957Z" fill="black"/>
<path d="M79.6133 74.4257L84.9677 72.8789L84.7897 76.4326L79.9911 77.8921L79.6133 74.4257Z" fill="black"/>
<path d="M69.8923 75.4791L89.1382 68.6295C90.9263 67.8621 91.6265 65.6886 90.6247 64.0169L79.6132 49.2092L79.8051 46.0273" stroke="black" stroke-miterlimit="10"/>
</g>
<path d="M152.894 96.617L152.585 98.2642C152.471 98.8657 152.871 99.4442 153.47 99.5452L156.035 99.977C156.072 99.9832 156.109 99.9864 156.147 99.9864H158.055C158.274 99.9864 158.345 99.6877 158.15 99.5878L156.226 98.5993C156.136 98.5535 156.055 98.4921 155.985 98.4193L153.409 95.7148L152.894 96.617Z" fill="#00D0AF"/>
<path d="M130.832 93.5876L130.095 97.5583C129.981 98.1775 129.504 98.6634 128.893 98.7862L126.366 99.2961C126.32 99.3054 126.272 99.3106 126.226 99.3106H124.689C124.3 99.3106 124.176 98.782 124.525 98.6062L126.828 97.448C126.927 97.3981 127.015 97.3284 127.085 97.242L130.317 93.2754L130.832 93.5876Z" fill="#E2FFF5"/>
<mask id="mask0" mask-type="alpha" maskUnits="userSpaceOnUse" x="124" y="93" width="7" height="7">
<path d="M130.821 93.5348L130.084 97.5056C129.97 98.1247 129.494 98.6107 128.882 98.7335L126.355 99.2433C126.309 99.2527 126.262 99.2579 126.215 99.2579H124.678C124.289 99.2579 124.166 98.7293 124.514 98.5534L126.817 97.3953C126.916 97.3454 127.004 97.2756 127.074 97.1893L130.306 93.2227L130.821 93.5348Z" fill="#E2FFF5"/>
</mask>
<g mask="url(#mask0)">
<path d="M130.754 94.8349L129.67 94.2637L130.627 95.5134L130.754 94.8349Z" fill="black"/>
<path d="M130.089 93.5843C130.191 93.5843 130.275 93.5006 130.275 93.3966C130.275 93.2934 130.191 93.209 130.089 93.209C129.986 93.209 129.903 93.2934 129.903 93.3966C129.903 93.5006 129.986 93.5843 130.089 93.5843Z" fill="#1D1D1B"/>
<path d="M130.089 97.3382C130.191 97.3382 130.275 97.2545 130.275 97.1505C130.275 97.0473 130.191 96.9629 130.089 96.9629C129.986 96.9629 129.903 97.0473 129.903 97.1505C129.903 97.2545 129.986 97.3382 130.089 97.3382Z" fill="#1D1D1B"/>
<path d="M130.089 95.4612C130.191 95.4612 130.275 95.3776 130.275 95.2736C130.275 95.1704 130.191 95.0859 130.089 95.0859C129.986 95.0859 129.903 95.1704 129.903 95.2736C129.903 95.3776 129.986 95.4612 130.089 95.4612Z" fill="#1D1D1B"/>
<path d="M130.089 93.5843C130.191 93.5843 130.275 93.5006 130.275 93.3966C130.275 93.2934 130.191 93.209 130.089 93.209C129.986 93.209 129.903 93.2934 129.903 93.3966C129.903 93.5006 129.986 93.5843 130.089 93.5843Z" fill="#1D1D1B"/>
<path d="M130.089 99.2151C130.191 99.2151 130.275 99.1315 130.275 99.0275C130.275 98.9243 130.191 98.8398 130.089 98.8398C129.986 98.8398 129.903 98.9243 129.903 99.0275C129.903 99.1315 129.986 99.2151 130.089 99.2151Z" fill="#1D1D1B"/>
<path d="M130.089 97.3382C130.191 97.3382 130.275 97.2545 130.275 97.1505C130.275 97.0473 130.191 96.9629 130.089 96.9629C129.986 96.9629 129.903 97.0473 129.903 97.1505C129.903 97.2545 129.986 97.3382 130.089 97.3382Z" fill="#1D1D1B"/>
<path d="M128.23 93.5843C128.333 93.5843 128.416 93.5006 128.416 93.3966C128.416 93.2934 128.333 93.209 128.23 93.209C128.127 93.209 128.044 93.2934 128.044 93.3966C128.044 93.5006 128.127 93.5843 128.23 93.5843Z" fill="#1D1D1B"/>
<path d="M130.089 93.5843C130.192 93.5843 130.275 93.5006 130.275 93.3966C130.275 93.2934 130.192 93.209 130.089 93.209C129.986 93.209 129.904 93.2934 129.904 93.3966C129.904 93.5006 129.986 93.5843 130.089 93.5843Z" fill="#1D1D1B"/>
<path d="M126.371 93.5843C126.473 93.5843 126.557 93.5006 126.557 93.3966C126.557 93.2934 126.473 93.209 126.371 93.209C126.268 93.209 126.185 93.2934 126.185 93.3966C126.185 93.5006 126.268 93.5843 126.371 93.5843Z" fill="#1D1D1B"/>
<path d="M128.23 97.3382C128.332 97.3382 128.416 97.2545 128.416 97.1505C128.416 97.0473 128.332 96.9629 128.23 96.9629C128.127 96.9629 128.044 97.0473 128.044 97.1505C128.044 97.2545 128.127 97.3382 128.23 97.3382Z" fill="#1D1D1B"/>
<path d="M130.089 97.3382C130.191 97.3382 130.275 97.2545 130.275 97.1505C130.275 97.0473 130.191 96.9629 130.089 96.9629C129.986 96.9629 129.903 97.0473 129.903 97.1505C129.903 97.2545 129.986 97.3382 130.089 97.3382Z" fill="#1D1D1B"/>
<path d="M128.23 95.4612C128.332 95.4612 128.416 95.3776 128.416 95.2736C128.416 95.1704 128.332 95.0859 128.23 95.0859C128.127 95.0859 128.044 95.1704 128.044 95.2736C128.044 95.3776 128.127 95.4612 128.23 95.4612Z" fill="#1D1D1B"/>
<path d="M130.089 95.4612C130.191 95.4612 130.275 95.3776 130.275 95.2736C130.275 95.1704 130.191 95.0859 130.089 95.0859C129.986 95.0859 129.903 95.1704 129.903 95.2736C129.903 95.3776 129.986 95.4612 130.089 95.4612Z" fill="#1D1D1B"/>
<path d="M129.16 96.4007C129.262 96.4007 129.346 96.317 129.346 96.213C129.346 96.1098 129.262 96.0254 129.16 96.0254C129.057 96.0254 128.974 96.1098 128.974 96.213C128.974 96.317 129.057 96.4007 129.16 96.4007Z" fill="#1D1D1B"/>
<path d="M127.301 96.4007C127.403 96.4007 127.487 96.317 127.487 96.213C127.487 96.1098 127.403 96.0254 127.301 96.0254C127.198 96.0254 127.115 96.1098 127.115 96.213C127.115 96.317 127.198 96.4007 127.301 96.4007Z" fill="#1D1D1B"/>
<path d="M129.16 94.5237C129.262 94.5237 129.346 94.4401 129.346 94.3361C129.346 94.2329 129.262 94.1484 129.16 94.1484C129.057 94.1484 128.974 94.2329 128.974 94.3361C128.974 94.4401 129.057 94.5237 129.16 94.5237Z" fill="#1D1D1B"/>
<path d="M127.301 94.5237C127.403 94.5237 127.487 94.4401 127.487 94.3361C127.487 94.2329 127.403 94.1484 127.301 94.1484C127.198 94.1484 127.115 94.2329 127.115 94.3361C127.115 94.4401 127.198 94.5237 127.301 94.5237Z" fill="#1D1D1B"/>
<path d="M126.371 97.3382C126.473 97.3382 126.557 97.2545 126.557 97.1505C126.557 97.0473 126.473 96.9629 126.371 96.9629C126.268 96.9629 126.185 97.0473 126.185 97.1505C126.185 97.2545 126.268 97.3382 126.371 97.3382Z" fill="#1D1D1B"/>
<path d="M126.371 95.4612C126.473 95.4612 126.557 95.3776 126.557 95.2736C126.557 95.1704 126.473 95.0859 126.371 95.0859C126.268 95.0859 126.185 95.1704 126.185 95.2736C126.185 95.3776 126.268 95.4612 126.371 95.4612Z" fill="#1D1D1B"/>
<path d="M128.23 93.5843C128.333 93.5843 128.416 93.5006 128.416 93.3966C128.416 93.2934 128.333 93.209 128.23 93.209C128.127 93.209 128.044 93.2934 128.044 93.3966C128.044 93.5006 128.127 93.5843 128.23 93.5843Z" fill="#1D1D1B"/>
<path d="M130.089 93.5843C130.192 93.5843 130.275 93.5006 130.275 93.3966C130.275 93.2934 130.192 93.209 130.089 93.209C129.986 93.209 129.904 93.2934 129.904 93.3966C129.904 93.5006 129.986 93.5843 130.089 93.5843Z" fill="#1D1D1B"/>
<path d="M126.371 93.5843C126.473 93.5843 126.557 93.5006 126.557 93.3966C126.557 93.2934 126.473 93.209 126.371 93.209C126.268 93.209 126.185 93.2934 126.185 93.3966C126.185 93.5006 126.268 93.5843 126.371 93.5843Z" fill="#1D1D1B"/>
<path d="M128.23 99.2132C128.332 99.2132 128.416 99.1295 128.416 99.0255C128.416 98.9223 128.332 98.8379 128.23 98.8379C128.127 98.8379 128.044 98.9223 128.044 99.0255C128.044 99.1295 128.127 99.2132 128.23 99.2132Z" fill="#1D1D1B"/>
<path d="M130.089 99.2132C130.191 99.2132 130.275 99.1295 130.275 99.0255C130.275 98.9223 130.191 98.8379 130.089 98.8379C129.986 98.8379 129.903 98.9223 129.903 99.0255C129.903 99.1295 129.986 99.2132 130.089 99.2132Z" fill="#1D1D1B"/>
<path d="M129.16 98.2757C129.262 98.2757 129.346 98.192 129.346 98.088C129.346 97.9848 129.262 97.9004 129.16 97.9004C129.057 97.9004 128.974 97.9848 128.974 98.088C128.974 98.192 129.057 98.2757 129.16 98.2757Z" fill="#1D1D1B"/>
<path d="M127.301 98.2757C127.403 98.2757 127.487 98.192 127.487 98.088C127.487 97.9848 127.403 97.9004 127.301 97.9004C127.198 97.9004 127.115 97.9848 127.115 98.088C127.115 98.192 127.198 98.2757 127.301 98.2757Z" fill="#1D1D1B"/>
<path d="M126.371 99.2151C126.473 99.2151 126.557 99.1315 126.557 99.0275C126.557 98.9243 126.473 98.8398 126.371 98.8398C126.268 98.8398 126.185 98.9243 126.185 99.0275C126.185 99.1315 126.268 99.2151 126.371 99.2151Z" fill="#1D1D1B"/>
<path d="M128.23 97.3382C128.333 97.3382 128.416 97.2545 128.416 97.1505C128.416 97.0473 128.333 96.9629 128.23 96.9629C128.127 96.9629 128.044 97.0473 128.044 97.1505C128.044 97.2545 128.127 97.3382 128.23 97.3382Z" fill="#1D1D1B"/>
<path d="M130.089 97.3382C130.192 97.3382 130.275 97.2545 130.275 97.1505C130.275 97.0473 130.192 96.9629 130.089 96.9629C129.986 96.9629 129.904 97.0473 129.904 97.1505C129.904 97.2545 129.986 97.3382 130.089 97.3382Z" fill="#1D1D1B"/>
<path d="M126.371 97.3382C126.473 97.3382 126.557 97.2545 126.557 97.1505C126.557 97.0473 126.473 96.9629 126.371 96.9629C126.268 96.9629 126.185 97.0473 126.185 97.1505C126.185 97.2545 126.268 97.3382 126.371 97.3382Z" fill="#1D1D1B"/>
<path d="M124.512 93.5843C124.614 93.5843 124.698 93.5006 124.698 93.3966C124.698 93.2934 124.614 93.209 124.512 93.209C124.409 93.209 124.326 93.2934 124.326 93.3966C124.326 93.5006 124.409 93.5843 124.512 93.5843Z" fill="#1D1D1B"/>
<path d="M126.371 93.5843C126.473 93.5843 126.557 93.5006 126.557 93.3966C126.557 93.2934 126.473 93.209 126.371 93.209C126.268 93.209 126.185 93.2934 126.185 93.3966C126.185 93.5006 126.268 93.5843 126.371 93.5843Z" fill="#1D1D1B"/>
<path d="M124.512 97.3382C124.615 97.3382 124.698 97.2545 124.698 97.1505C124.698 97.0473 124.615 96.9629 124.512 96.9629C124.409 96.9629 124.326 97.0473 124.326 97.1505C124.326 97.2545 124.409 97.3382 124.512 97.3382Z" fill="#1D1D1B"/>
<path d="M126.371 97.3382C126.473 97.3382 126.557 97.2545 126.557 97.1505C126.557 97.0473 126.473 96.9629 126.371 96.9629C126.268 96.9629 126.185 97.0473 126.185 97.1505C126.185 97.2545 126.268 97.3382 126.371 97.3382Z" fill="#1D1D1B"/>
<path d="M124.512 95.4612C124.615 95.4612 124.698 95.3776 124.698 95.2736C124.698 95.1704 124.615 95.0859 124.512 95.0859C124.409 95.0859 124.326 95.1704 124.326 95.2736C124.326 95.3776 124.409 95.4612 124.512 95.4612Z" fill="#1D1D1B"/>
<path d="M126.371 95.4612C126.473 95.4612 126.557 95.3776 126.557 95.2736C126.557 95.1704 126.473 95.0859 126.371 95.0859C126.268 95.0859 126.185 95.1704 126.185 95.2736C126.185 95.3776 126.268 95.4612 126.371 95.4612Z" fill="#1D1D1B"/>
<path d="M125.442 96.4007C125.544 96.4007 125.628 96.317 125.628 96.213C125.628 96.1098 125.544 96.0254 125.442 96.0254C125.339 96.0254 125.256 96.1098 125.256 96.213C125.256 96.317 125.339 96.4007 125.442 96.4007Z" fill="#1D1D1B"/>
<path d="M125.442 94.5237C125.544 94.5237 125.628 94.4401 125.628 94.3361C125.628 94.2329 125.544 94.1484 125.442 94.1484C125.339 94.1484 125.256 94.2329 125.256 94.3361C125.256 94.4401 125.339 94.5237 125.442 94.5237Z" fill="#1D1D1B"/>
<path d="M124.512 93.5843C124.615 93.5843 124.698 93.5006 124.698 93.3966C124.698 93.2934 124.615 93.209 124.512 93.209C124.409 93.209 124.326 93.2934 124.326 93.3966C124.326 93.5006 124.409 93.5843 124.512 93.5843Z" fill="#1D1D1B"/>
<path d="M126.371 93.5843C126.474 93.5843 126.557 93.5006 126.557 93.3966C126.557 93.2934 126.474 93.209 126.371 93.209C126.268 93.209 126.186 93.2934 126.186 93.3966C126.186 93.5006 126.268 93.5843 126.371 93.5843Z" fill="#1D1D1B"/>
<path d="M124.512 99.2132C124.615 99.2132 124.698 99.1295 124.698 99.0255C124.698 98.9223 124.615 98.8379 124.512 98.8379C124.409 98.8379 124.326 98.9223 124.326 99.0255C124.326 99.1295 124.409 99.2132 124.512 99.2132Z" fill="#1D1D1B"/>
<path d="M126.371 99.2132C126.473 99.2132 126.557 99.1295 126.557 99.0255C126.557 98.9223 126.473 98.8379 126.371 98.8379C126.268 98.8379 126.185 98.9223 126.185 99.0255C126.185 99.1295 126.268 99.2132 126.371 99.2132Z" fill="#1D1D1B"/>
<path d="M125.442 98.2757C125.544 98.2757 125.628 98.192 125.628 98.088C125.628 97.9848 125.544 97.9004 125.442 97.9004C125.339 97.9004 125.256 97.9848 125.256 98.088C125.256 98.192 125.339 98.2757 125.442 98.2757Z" fill="#1D1D1B"/>
<path d="M124.512 97.3382C124.615 97.3382 124.698 97.2545 124.698 97.1505C124.698 97.0473 124.615 96.9629 124.512 96.9629C124.409 96.9629 124.326 97.0473 124.326 97.1505C124.326 97.2545 124.409 97.3382 124.512 97.3382Z" fill="#1D1D1B"/>
<path d="M126.371 97.3382C126.474 97.3382 126.557 97.2545 126.557 97.1505C126.557 97.0473 126.474 96.9629 126.371 96.9629C126.268 96.9629 126.186 97.0473 126.186 97.1505C126.186 97.2545 126.268 97.3382 126.371 97.3382Z" fill="#1D1D1B"/>
</g>
<path d="M133.995 69.3936L143.718 48.9466L150.58 49.8374L149.388 46.8655L159.817 45.3047L160.875 51.546C161.498 55.2202 161.472 58.9766 160.798 62.6404L154.552 96.6074L152.235 97.3722C152.235 97.3722 153.304 74.8566 153.511 74.4404C153.653 74.1542 152.251 64.3022 151.706 58.0515L139.552 72.6839C138.471 73.9482 137.636 75.406 137.091 76.9814L130.864 94.9633L129.39 94.185L131.935 76.2426C132.271 73.867 132.966 71.557 133.995 69.3936Z" fill="#3DB6FF"/>
<path d="M143.322 49.7812L142.363 51.7978C142.363 51.7978 147.093 53.24 152.157 51.6386C157.221 50.0372 160.214 47.6439 160.214 47.6439L159.817 45.3047L143.322 49.7812Z" fill="black"/>
<path d="M175.157 36.1965C175.385 35.8958 175.75 35.4036 175.948 35.081C176.045 34.9218 176.243 34.8594 176.412 34.9385L178.538 35.9281C178.555 35.9374 178.571 35.9468 178.588 35.9562L180.294 37.1039C180.374 37.158 180.43 37.2423 180.45 37.338L180.498 37.5846C180.514 37.6648 180.556 37.7376 180.618 37.7917L180.7 37.8635C180.808 37.9571 180.852 38.106 180.814 38.2433L180.783 38.3526C180.75 38.4701 180.776 38.5981 180.855 38.6918L180.914 38.7625C181.018 38.8874 181.029 39.0664 180.94 39.2027L180.752 39.493C180.674 39.6116 180.672 39.7636 180.743 39.8843L180.788 39.9592C180.874 40.1038 180.852 40.2901 180.733 40.4097L180.496 40.6491C180.388 40.7583 180.225 40.7875 180.086 40.723L179.288 40.3536C179.116 40.2734 178.926 40.3421 178.831 40.4847L179.679 41.5419C179.707 41.5773 179.726 41.6178 179.732 41.6615L179.745 41.751C179.783 41.9904 179.479 42.1423 179.286 41.982L178.246 41.1215C178.211 41.0924 178.104 40.9519 178.083 40.9092L177.011 38.8812C176.674 38.2423 176.234 37.6648 175.71 37.1705L175.199 36.6887C175.061 36.5597 175.043 36.3474 175.157 36.1965Z" fill="#F4CAB5"/>
<path d="M175.626 37.241C175.626 37.241 163.938 30.2901 161.811 29.3619C153.872 25.8958 144.58 23.8657 145.426 24.234L146.67 18.4787C146.876 17.5266 147.894 17.0032 148.779 17.3944L163.619 23.9603C165.661 24.8635 167.523 26.1341 169.115 27.7095L177.17 35.264L175.626 37.241Z" fill="#FFAE00"/>
<path d="M175.599 37.2842C175.483 37.2145 163.89 30.325 161.791 29.4082L161.832 29.3125C163.937 30.2313 175.535 37.125 175.653 37.1947L175.599 37.2842Z" fill="black"/>
<path d="M139.41 16.0924C138.964 16.0404 138.515 16.1538 138.143 16.4098L132.857 20.0601C130.659 21.5783 130.034 24.574 131.44 26.857C133.756 30.6155 137.161 36.2085 139.406 39.9015C140.911 42.378 141.708 45.226 141.708 48.1313V50.0012C141.708 50.9554 146.252 52.8981 153.577 50.4517C153.778 50.3851 162.962 45.8587 162.557 45.0928L151.547 24.316C151.517 24.2598 151.49 24.2036 151.466 24.1443L149.035 18.184C148.776 17.5492 148.196 17.107 147.521 17.0289L139.41 16.0924Z" fill="#FFAE00"/>
<path d="M140.368 41.5059L141.092 43.7524L144.358 42.047L140.368 41.5059Z" fill="black"/>
<path d="M158.385 43.1777C158.385 43.1777 162.936 45.1808 163.119 45.2786C163.3 45.3775 165.353 46.1392 165.241 46.7874C165.064 47.8124 162.504 48.8446 162.14 48.6469C161.777 48.4492 158.988 46.9331 158.988 46.9331L158.503 45.3692L157.5 44.8353L158.385 43.1777Z" fill="#F4CAB5"/>
<path d="M137.209 22.7257C135.952 20.2315 129.234 20.9037 131.163 26.4301L136.791 38.382C137.771 40.4995 139.726 41.9906 142.012 42.3621L157.389 44.8657C157.475 44.8792 157.561 44.8376 157.602 44.7596L158.393 43.2778C158.512 43.0531 158.418 42.7731 158.187 42.6691C155.618 41.5245 142.389 35.6287 142.482 35.6287C142.565 35.6276 138.854 25.9868 137.209 22.7257Z" fill="#FFAE00"/>
<path d="M157.422 44.9183C157.408 44.9183 157.395 44.9173 157.38 44.9152L142.004 42.4116L142.021 42.3086L157.397 44.8122C157.462 44.8226 157.526 44.7903 157.557 44.7331L158.347 43.2503C158.399 43.1546 158.407 43.0443 158.372 42.9423C158.337 42.8393 158.264 42.7592 158.165 42.7144L158.206 42.6187C158.33 42.6738 158.426 42.7789 158.469 42.908C158.512 43.037 158.501 43.1795 158.437 43.2992L157.646 44.781C157.602 44.8673 157.514 44.9183 157.422 44.9183Z" fill="black"/>
<path d="M152.421 25.9666L151.466 24.1445L154.827 26.7241L152.421 25.9666Z" fill="black"/>
<path d="M154.305 96.6543L152.793 97.1538L152.711 97.5846L154.528 96.8874L154.305 96.6543Z" fill="black"/>
<path d="M159.433 39.31C159.363 39.1841 152.414 26.6495 150.627 22.2251L150.723 22.1855C152.507 26.6048 159.454 39.1332 159.524 39.2591L159.433 39.31Z" fill="black"/>
<path d="M151.708 58.0515L153.873 57.5312L151.923 60.296L151.708 58.0515Z" fill="black"/>
<path d="M164.919 47.39L164.933 47.3411L164.893 47.3713C164.84 47.312 163.934 46.5513 163.667 46.5513V46.4473C163.983 46.4473 164.956 47.262 164.98 47.3182L164.972 47.3744L164.919 47.39Z" fill="black"/>
<path d="M164.3 47.9115L164.315 47.8626L164.274 47.8928C164.222 47.8335 163.316 47.0728 163.049 47.0728V46.9688C163.365 46.9688 164.337 47.7835 164.362 47.8397L164.354 47.8959L164.3 47.9115Z" fill="black"/>
<path d="M163.475 48.3295L163.49 48.2806L163.45 48.3107C163.397 48.2514 162.491 47.4908 162.224 47.4908V47.3867C162.54 47.3867 163.513 48.2015 163.537 48.2577L163.529 48.3139L163.475 48.3295Z" fill="black"/>
<path d="M160.074 53.0837C158.873 53.0837 157.897 52.0972 157.897 50.885V48.2773H158V50.885C158 52.04 158.931 52.9796 160.074 52.9796V53.0837Z" fill="black"/>
<path d="M142.012 54.409V54.3049C143.01 54.3049 143.884 53.6598 144.186 52.7004L144.582 51.4434L144.679 51.4746L144.284 52.7316C143.968 53.7347 143.056 54.409 142.012 54.409Z" fill="black"/>
<path d="M152.105 56.6809V50.8809H152.208V56.5509C152.484 56.4687 153.602 56.0337 153.822 54.3501L153.924 54.3636C153.664 56.3553 152.182 56.6664 152.166 56.6695L152.105 56.6809Z" fill="black"/>
<path d="M139.444 16.6603C139.813 15.1546 140.457 11.8561 140.457 11.8561C140.457 11.8561 140.481 11.8883 140.525 11.9445L141.074 9.5148C141.287 8.73958 141.995 8.19953 142.805 8.19537H142.851C144.31 8.186 145.566 9.40242 146.216 10.2047C146.602 10.6813 146.668 12.4325 146.659 12.4554C146.659 12.4554 144.4 17.601 144.377 17.6332C144.046 18.0973 142.96 17.7904 142.45 17.5167L142.168 17.3648C141.981 17.2638 141.749 17.3596 141.684 17.5625C141.59 17.8611 141.507 18.1171 141.454 18.2867C141.397 18.4647 141.263 18.6103 141.088 18.6686C140.719 18.7893 140.348 18.6332 140.013 18.2617C139.729 17.9485 139.229 17.5417 139.444 16.6603Z" fill="#F4CAB5"/>
<path d="M141.258 8.88158L143.577 11.0178L146.698 12.4268C146.698 12.4268 147.717 10.9398 147.265 9.90965C146.812 8.87949 142.617 6.82231 141.258 8.88158Z" fill="#002921"/>
<path d="M143.577 11.0165L141.258 8.8802C141.258 8.8802 140.918 8.76574 140.577 9.45251C140.237 10.1393 140.124 13.4566 140.124 13.4566C140.124 13.4566 142.104 13.6855 142.557 12.0841C142.698 11.5909 142.837 10.6367 143.577 11.0165Z" fill="#002921"/>
<path d="M141.205 13.6718C141.639 13.6718 141.992 13.2455 141.992 12.7197C141.992 12.1939 141.639 11.7676 141.205 11.7676C140.771 11.7676 140.418 12.1939 140.418 12.7197C140.418 13.2455 140.771 13.6718 141.205 13.6718Z" fill="#F4CAB5"/>
<path d="M140.813 12.672L140.71 12.6668C140.717 12.5086 140.789 12.3556 140.904 12.2485C141.019 12.1413 141.174 12.083 141.333 12.0882L141.329 12.1923C141.199 12.1881 141.069 12.236 140.973 12.3244C140.878 12.4139 140.819 12.5398 140.813 12.672Z" fill="black"/>
<path d="M144.358 15.3314C144.315 15.3314 144.275 15.3179 144.243 15.2929L144.306 15.2107C144.33 15.2294 144.359 15.2294 144.377 15.2252C144.418 15.218 144.461 15.1899 144.483 15.1535C144.53 15.0806 144.532 14.9818 144.534 14.8933L144.545 14.3605L144.648 14.3574L144.637 14.8954C144.635 14.9922 144.633 15.1118 144.57 15.2096C144.531 15.27 144.464 15.3147 144.395 15.3272C144.382 15.3303 144.37 15.3314 144.358 15.3314Z" fill="black"/>
<path d="M143.839 12.557C143.849 12.555 143.86 12.5539 143.87 12.5518C143.857 12.5539 143.842 12.556 143.829 12.557C143.887 12.5498 143.944 12.5498 144.001 12.557C143.988 12.555 143.973 12.5529 143.96 12.5518C143.985 12.555 144.011 12.5602 144.037 12.5664C144.076 12.5768 144.121 12.5716 144.157 12.5508C144.189 12.5321 144.22 12.4946 144.228 12.4572C144.237 12.4176 144.235 12.3729 144.212 12.3364C144.191 12.3032 144.16 12.2751 144.12 12.2647C144.061 12.2501 144 12.2407 143.939 12.2386C143.878 12.2366 143.817 12.2438 143.758 12.2542C143.722 12.2605 143.683 12.2948 143.665 12.326C143.645 12.3593 143.637 12.4093 143.649 12.4467C143.662 12.4842 143.684 12.5206 143.721 12.5404C143.733 12.5456 143.745 12.5508 143.758 12.556C143.784 12.5643 143.812 12.5643 143.839 12.557Z" fill="black"/>
<path d="M145.343 13.5921C145.428 13.6462 145.511 13.7004 145.596 13.7534C145.629 13.7742 145.677 13.7794 145.716 13.769C145.752 13.7586 145.791 13.7316 145.808 13.6972C145.827 13.6608 145.837 13.6171 145.824 13.5765C145.811 13.537 145.788 13.5058 145.753 13.4829C145.668 13.4288 145.585 13.3747 145.5 13.3216C145.467 13.3008 145.419 13.2956 145.38 13.306C145.344 13.3164 145.305 13.3434 145.288 13.3778C145.269 13.4142 145.259 13.4579 145.272 13.4985C145.285 13.5391 145.308 13.5703 145.343 13.5921Z" fill="black"/>
<path d="M143.33 13.6418C143.307 13.7074 143.438 13.6803 143.573 13.7282C143.708 13.7761 143.793 13.8801 143.816 13.8146C143.839 13.749 143.748 13.6574 143.614 13.6106C143.479 13.5627 143.352 13.5763 143.33 13.6418Z" fill="black"/>
<path d="M145.13 14.2161C145.116 14.2837 145.243 14.238 145.382 14.265C145.522 14.2921 145.623 14.3816 145.635 14.3139C145.648 14.2463 145.545 14.1693 145.406 14.1422C145.266 14.1152 145.143 14.1485 145.13 14.2161Z" fill="black"/>
<path d="M143.102 15.4824C143.052 15.7092 143.319 16.4626 143.768 16.5635C144.218 16.6645 144.679 16.0745 144.73 15.8476C144.78 15.6208 144.399 15.8424 143.949 15.7415C143.5 15.6416 143.153 15.2556 143.102 15.4824Z" fill="black"/>
<path d="M152.408 94.8807L152.305 94.8755L153.461 74.4369L151.657 58.0564L151.759 58.0449L153.563 74.4337L152.408 94.8807Z" fill="black"/>
<g clip-path="url(#clip1)">
<path d="M17.8538 19.5977H16.146V100.001H17.8538V19.5977Z" fill="#7B9994"/>
<path d="M34 24.03H0L12.4201 0.03125H23.1324L34 24.03Z" fill="#7C9BF8"/>
<path d="M30.1964 98.625H3.80371V100.001H30.1964V98.625Z" fill="#7B9994"/>
<path d="M17.905 41.9782L16.1973 43.519V23.9531H17.905V41.9782Z" fill="black"/>
<path d="M17.2065 0.03125V23.7243" stroke="black" stroke-width="0.2" stroke-miterlimit="10"/>
<path d="M16.7407 0.183594L15.033 24.0295" stroke="black" stroke-width="0.2" stroke-miterlimit="10"/>
<path d="M16.2749 0.183594L12.7041 24.0295" stroke="black" stroke-width="0.2" stroke-miterlimit="10"/>
<path d="M15.6541 0.183594L10.686 24.0295" stroke="black" stroke-width="0.2" stroke-miterlimit="10"/>
<path d="M15.0331 0.03125L8.97827 24.03" stroke="black" stroke-width="0.2" stroke-miterlimit="10"/>
<path d="M14.2567 0.03125L6.80469 24.03" stroke="black" stroke-width="0.2" stroke-miterlimit="10"/>
<path d="M13.4804 0.03125L4.78638 24.03" stroke="black" stroke-width="0.2" stroke-miterlimit="10"/>
<path d="M12.7043 0.03125L2.14722 24.03" stroke="black" stroke-width="0.2" stroke-miterlimit="10"/>
</g>
<defs>
<clipPath id="clip0">
<rect width="40" height="94" fill="white" transform="translate(63 6)"/>
</clipPath>
<clipPath id="clip1">
<rect width="34" height="100" fill="white"/>
</clipPath>
</defs>
</svg>
